STARTFONT 2.1
COMMENT
COMMENT Converted from OpenType font "JetBrainsMono-Regular.ttf" by "otf2bdf 3.0".
COMMENT
FONT -FreeType-JetBrains Mono-Medium-R-Normal--14-100-100-100-P-69-ISO10646-1
SIZE 10 100 100
FONTBOUNDINGBOX 20 22 -9 -6
STARTPROPERTIES 19
FOUNDRY "FreeType"
FAMILY_NAME "JetBrains Mono"
WEIGHT_NAME "Medium"
SLANT "R"
SETWIDTH_NAME "Normal"
ADD_STYLE_NAME ""
PIXEL_SIZE 14
POINT_SIZE 100
RESOLUTION_X 100
RESOLUTION_Y 100
SPACING "P"
AVERAGE_WIDTH 69
CHARSET_REGISTRY "ISO10646"
CHARSET_ENCODING "1"
FONT_ASCENT 14
FONT_DESCENT 4
COPYRIGHT "Copyright 2020 The JetBrains Mono Project Authors (https://github.com/JetBrains/JetBrainsMono)"
_OTF_FONTFILE "JetBrainsMono-Regular.ttf"
_OTF_PSNAME "JetBrainsMono-Regular"
ENDPROPERTIES
CHARS 1317
STARTCHAR 000D
ENCODING 13
SWIDTH 576 0
DWIDTH 8 0
BBX 0 0 0 0
BITMAP
ENDCHAR
STARTCHAR 0020
ENCODING 32
SWIDTH 576 0
DWIDTH 8 0
BBX 0 0 0 0
BITMAP
ENDCHAR
STARTCHAR 0021
ENCODING 33
SWIDTH 576 0
DWIDTH 8 0
BBX 2 10 3 0
BITMAP
C0
C0
40
40
40
40
40
00
00
C0
ENDCHAR
STARTCHAR 0022
ENCODING 34
SWIDTH 576 0
DWIDTH 8 0
BBX 4 4 2 6
BITMAP
90
90
90
90
ENDCHAR
STARTCHAR 0023
ENCODING 35
SWIDTH 576 0
DWIDTH 8 0
BBX 8 10 0 0
BITMAP
12
12
7F
24
24
24
FE
24
44
48
ENDCHAR
STARTCHAR 0024
ENCODING 36
SWIDTH 576 0
DWIDTH 8 0
BBX 6 15 1 -2
BITMAP
10
10
30
7C
D4
D0
50
78
1C
14
94
D4
78
10
10
ENDCHAR
STARTCHAR 0025
ENCODING 37
SWIDTH 576 0
DWIDTH 8 0
BBX 8 10 0 0
BITMAP
71
92
94
74
08
17
19
29
49
C7
ENDCHAR
STARTCHAR 0026
ENCODING 38
SWIDTH 576 0
DWIDTH 8 0
BBX 9 10 0 0
BITMAP
3C00
2400
2200
2000
7000
C980
C600
C600
4E00
7980
ENDCHAR
STARTCHAR 0027
ENCODING 39
SWIDTH 576 0
DWIDTH 8 0
BBX 2 4 3 6
BITMAP
C0
40
40
40
ENDCHAR
STARTCHAR 0028
ENCODING 40
SWIDTH 576 0
DWIDTH 8 0
BBX 4 14 3 -2
BITMAP
10
70
C0
80
80
80
80
80
80
80
80
C0
70
10
ENDCHAR
STARTCHAR 0029
ENCODING 41
SWIDTH 576 0
DWIDTH 8 0
BBX 4 14 2 -2
BITMAP
80
C0
60
20
30
10
10
10
10
30
20
60
C0
80
ENDCHAR
STARTCHAR 002A
ENCODING 42
SWIDTH 576 0
DWIDTH 8 0
BBX 8 7 0 2
BITMAP
08
08
4B
FE
18
34
26
ENDCHAR
STARTCHAR 002B
ENCODING 43
SWIDTH 576 0
DWIDTH 8 0
BBX 6 7 1 1
BITMAP
10
10
10
FC
10
10
10
ENDCHAR
STARTCHAR 002C
ENCODING 44
SWIDTH 576 0
DWIDTH 8 0
BBX 2 4 3 -3
BITMAP
40
C0
C0
80
ENDCHAR
STARTCHAR 002D
ENCODING 45
SWIDTH 576 0
DWIDTH 8 0
BBX 4 1 2 4
BITMAP
F0
ENDCHAR
STARTCHAR 002E
ENCODING 46
SWIDTH 576 0
DWIDTH 8 0
BBX 2 2 3 0
BITMAP
C0
C0
ENDCHAR
STARTCHAR 002F
ENCODING 47
SWIDTH 576 0
DWIDTH 8 0
BBX 6 14 1 -2
BITMAP
04
04
0C
08
08
18
10
30
20
20
60
40
40
C0
ENDCHAR
STARTCHAR 0030
ENCODING 48
SWIDTH 576 0
DWIDTH 8 0
BBX 6 10 1 0
BITMAP
78
CC
84
84
B4
84
84
84
CC
78
ENDCHAR
STARTCHAR 0031
ENCODING 49
SWIDTH 576 0
DWIDTH 8 0
BBX 7 10 1 0
BITMAP
30
70
90
10
10
10
10
10
10
FE
ENDCHAR
STARTCHAR 0032
ENCODING 50
SWIDTH 576 0
DWIDTH 8 0
BBX 6 10 1 0
BITMAP
78
CC
84
04
0C
18
10
20
40
FC
ENDCHAR
STARTCHAR 0033
ENCODING 51
SWIDTH 576 0
DWIDTH 8 0
BBX 6 10 1 0
BITMAP
FC
0C
18
30
38
04
04
84
CC
78
ENDCHAR
STARTCHAR 0034
ENCODING 52
SWIDTH 576 0
DWIDTH 8 0
BBX 6 10 1 0
BITMAP
18
10
30
20
44
C4
84
FC
04
04
ENDCHAR
STARTCHAR 0035
ENCODING 53
SWIDTH 576 0
DWIDTH 8 0
BBX 6 10 1 0
BITMAP
FC
C0
C0
F8
0C
04
04
84
CC
78
ENDCHAR
STARTCHAR 0036
ENCODING 54
SWIDTH 576 0
DWIDTH 8 0
BBX 7 10 1 0
BITMAP
18
30
20
78
44
84
86
84
CC
78
ENDCHAR
STARTCHAR 0037
ENCODING 55
SWIDTH 576 0
DWIDTH 8 0
BBX 7 10 1 0
BITMAP
FE
86
84
0C
08
08
10
10
30
20
ENDCHAR
STARTCHAR 0038
ENCODING 56
SWIDTH 576 0
DWIDTH 8 0
BBX 6 10 1 0
BITMAP
78
CC
84
C4
38
CC
84
84
CC
78
ENDCHAR
STARTCHAR 0039
ENCODING 57
SWIDTH 576 0
DWIDTH 8 0
BBX 7 10 1 0
BITMAP
78
CC
84
86
C4
7C
08
18
10
20
ENDCHAR
STARTCHAR 003A
ENCODING 58
SWIDTH 576 0
DWIDTH 8 0
BBX 2 8 3 0
BITMAP
C0
C0
00
00
00
00
C0
C0
ENDCHAR
STARTCHAR 003B
ENCODING 59
SWIDTH 576 0
DWIDTH 8 0
BBX 2 11 3 -3
BITMAP
C0
C0
00
00
00
00
00
40
C0
C0
80
ENDCHAR
STARTCHAR 003C
ENCODING 60
SWIDTH 576 0
DWIDTH 8 0
BBX 6 7 1 1
BITMAP
04
18
60
80
70
1C
04
ENDCHAR
STARTCHAR 003D
ENCODING 61
SWIDTH 576 0
DWIDTH 8 0
BBX 6 4 1 3
BITMAP
FC
00
00
FC
ENDCHAR
STARTCHAR 003E
ENCODING 62
SWIDTH 576 0
DWIDTH 8 0
BBX 6 7 1 1
BITMAP
C0
70
1C
04
18
60
80
ENDCHAR
STARTCHAR 003F
ENCODING 63
SWIDTH 576 0
DWIDTH 8 0
BBX 5 10 2 0
BITMAP
F0
18
08
18
70
40
40
00
00
E0
ENDCHAR
STARTCHAR 0040
ENCODING 64
SWIDTH 576 0
DWIDTH 8 0
BBX 7 13 1 -3
BITMAP
78
C4
82
9A
B6
A2
A2
A2
B6
9C
80
C0
78
ENDCHAR
STARTCHAR 0041
ENCODING 65
SWIDTH 576 0
DWIDTH 8 0
BBX 7 10 1 0
BITMAP
30
30
28
68
48
4C
7C
C4
84
86
ENDCHAR
STARTCHAR 0042
ENCODING 66
SWIDTH 576 0
DWIDTH 8 0
BBX 6 10 1 0
BITMAP
F8
CC
C4
C4
F8
CC
C4
C4
C4
F8
ENDCHAR
STARTCHAR 0043
ENCODING 67
SWIDTH 576 0
DWIDTH 8 0
BBX 6 10 1 0
BITMAP
78
44
C4
C0
C0
C0
C0
C4
44
78
ENDCHAR
STARTCHAR 0044
ENCODING 68
SWIDTH 576 0
DWIDTH 8 0
BBX 6 10 1 0
BITMAP
F8
CC
C4
C4
C4
C4
C4
C4
CC
F8
ENDCHAR
STARTCHAR 0045
ENCODING 69
SWIDTH 576 0
DWIDTH 8 0
BBX 6 10 1 0
BITMAP
FC
C0
C0
C0
FC
C0
C0
C0
C0
FC
ENDCHAR
STARTCHAR 0046
ENCODING 70
SWIDTH 576 0
DWIDTH 8 0
BBX 6 10 1 0
BITMAP
FC
C0
C0
C0
FC
C0
C0
C0
C0
C0
ENDCHAR
STARTCHAR 0047
ENCODING 71
SWIDTH 576 0
DWIDTH 8 0
BBX 6 10 1 0
BITMAP
78
C4
C0
80
9C
84
84
C4
CC
78
ENDCHAR
STARTCHAR 0048
ENCODING 72
SWIDTH 576 0
DWIDTH 8 0
BBX 6 10 1 0
BITMAP
C4
C4
C4
C4
FC
C4
C4
C4
C4
C4
ENDCHAR
STARTCHAR 0049
ENCODING 73
SWIDTH 576 0
DWIDTH 8 0
BBX 6 10 1 0
BITMAP
FC
10
10
10
10
10
10
10
10
FC
ENDCHAR
STARTCHAR 004A
ENCODING 74
SWIDTH 576 0
DWIDTH 8 0
BBX 6 10 1 0
BITMAP
04
04
04
04
04
04
04
84
CC
78
ENDCHAR
STARTCHAR 004B
ENCODING 75
SWIDTH 576 0
DWIDTH 8 0
BBX 7 10 1 0
BITMAP
C6
CC
C8
D8
F0
D8
C8
CC
C4
C6
ENDCHAR
STARTCHAR 004C
ENCODING 76
SWIDTH 576 0
DWIDTH 8 0
BBX 6 10 2 0
BITMAP
80
80
80
80
80
80
80
80
80
FC
ENDCHAR
STARTCHAR 004D
ENCODING 77
SWIDTH 576 0
DWIDTH 8 0
BBX 6 10 1 0
BITMAP
CC
CC
AC
B4
B4
94
84
84
84
84
ENDCHAR
STARTCHAR 004E
ENCODING 78
SWIDTH 576 0
DWIDTH 8 0
BBX 6 10 1 0
BITMAP
C4
C4
A4
A4
B4
94
94
8C
8C
8C
ENDCHAR
STARTCHAR 004F
ENCODING 79
SWIDTH 576 0
DWIDTH 8 0
BBX 6 10 1 0
BITMAP
78
4C
C4
84
84
84
84
C4
4C
78
ENDCHAR
STARTCHAR 0050
ENCODING 80
SWIDTH 576 0
DWIDTH 8 0
BBX 7 10 1 0
BITMAP
F8
C4
C6
C6
C4
FC
C0
C0
C0
C0
ENDCHAR
STARTCHAR 0051
ENCODING 81
SWIDTH 576 0
DWIDTH 8 0
BBX 6 13 1 -3
BITMAP
78
CC
84
84
84
84
84
84
CC
78
08
0C
04
ENDCHAR
STARTCHAR 0052
ENCODING 82
SWIDTH 576 0
DWIDTH 8 0
BBX 7 10 1 0
BITMAP
F8
C4
C4
C4
FC
D8
C8
CC
C4
C6
ENDCHAR
STARTCHAR 0053
ENCODING 83
SWIDTH 576 0
DWIDTH 8 0
BBX 6 10 1 0
BITMAP
78
CC
84
C0
70
0C
04
84
CC
78
ENDCHAR
STARTCHAR 0054
ENCODING 84
SWIDTH 576 0
DWIDTH 8 0
BBX 7 10 1 0
BITMAP
FE
10
10
10
10
10
10
10
10
10
ENDCHAR
STARTCHAR 0055
ENCODING 85
SWIDTH 576 0
DWIDTH 8 0
BBX 6 10 1 0
BITMAP
C4
C4
C4
C4
C4
C4
C4
C4
4C
78
ENDCHAR
STARTCHAR 0056
ENCODING 86
SWIDTH 576 0
DWIDTH 8 0
BBX 7 10 1 0
BITMAP
86
84
C4
44
4C
48
68
28
30
30
ENDCHAR
STARTCHAR 0057
ENCODING 87
SWIDTH 576 0
DWIDTH 8 0
BBX 8 10 0 0
BITMAP
99
D9
59
59
55
56
56
66
66
66
ENDCHAR
STARTCHAR 0058
ENCODING 88
SWIDTH 576 0
DWIDTH 8 0
BBX 7 10 1 0
BITMAP
86
4C
48
38
30
30
38
48
C4
86
ENDCHAR
STARTCHAR 0059
ENCODING 89
SWIDTH 576 0
DWIDTH 8 0
BBX 8 10 0 0
BITMAP
C3
62
26
34
1C
18
08
08
08
08
ENDCHAR
STARTCHAR 005A
ENCODING 90
SWIDTH 576 0
DWIDTH 8 0
BBX 6 10 1 0
BITMAP
FC
04
08
18
10
30
20
40
C0
FC
ENDCHAR
STARTCHAR 005B
ENCODING 91
SWIDTH 576 0
DWIDTH 8 0
BBX 3 13 3 -1
BITMAP
E0
80
80
80
80
80
80
80
80
80
80
80
E0
ENDCHAR
STARTCHAR 005C
ENCODING 92
SWIDTH 576 0
DWIDTH 8 0
BBX 6 14 1 -2
BITMAP
80
C0
40
40
20
20
30
10
10
18
08
08
0C
04
ENDCHAR
STARTCHAR 005D
ENCODING 93
SWIDTH 576 0
DWIDTH 8 0
BBX 4 13 2 -1
BITMAP
F0
30
30
30
30
30
30
30
30
30
30
30
F0
ENDCHAR
STARTCHAR 005E
ENCODING 94
SWIDTH 576 0
DWIDTH 8 0
BBX 6 6 1 5
BITMAP
10
30
28
48
4C
84
ENDCHAR
STARTCHAR 005F
ENCODING 95
SWIDTH 576 0
DWIDTH 8 0
BBX 7 1 1 -1
BITMAP
FE
ENDCHAR
STARTCHAR 0060
ENCODING 96
SWIDTH 576 0
DWIDTH 8 0
BBX 3 2 2 9
BITMAP
C0
60
ENDCHAR
STARTCHAR 0061
ENCODING 97
SWIDTH 576 0
DWIDTH 8 0
BBX 6 8 1 0
BITMAP
78
CC
04
7C
C4
84
CC
74
ENDCHAR
STARTCHAR 0062
ENCODING 98
SWIDTH 576 0
DWIDTH 8 0
BBX 6 10 1 0
BITMAP
C0
C0
F8
CC
C4
C4
C4
C4
CC
F8
ENDCHAR
STARTCHAR 0063
ENCODING 99
SWIDTH 576 0
DWIDTH 8 0
BBX 6 8 1 0
BITMAP
78
44
C4
80
80
C4
4C
78
ENDCHAR
STARTCHAR 0064
ENCODING 100
SWIDTH 576 0
DWIDTH 8 0
BBX 6 10 1 0
BITMAP
04
04
74
CC
C4
84
84
C4
CC
74
ENDCHAR
STARTCHAR 0065
ENCODING 101
SWIDTH 576 0
DWIDTH 8 0
BBX 6 8 1 0
BITMAP
78
4C
84
FC
80
80
4C
78
ENDCHAR
STARTCHAR 0066
ENCODING 102
SWIDTH 576 0
DWIDTH 8 0
BBX 6 10 1 0
BITMAP
1C
20
20
FC
20
20
20
20
20
20
ENDCHAR
STARTCHAR 0067
ENCODING 103
SWIDTH 576 0
DWIDTH 8 0
BBX 6 11 1 -3
BITMAP
74
4C
C4
84
84
C4
CC
74
04
0C
78
ENDCHAR
STARTCHAR 0068
ENCODING 104
SWIDTH 576 0
DWIDTH 8 0
BBX 6 10 1 0
BITMAP
C0
C0
F8
CC
C4
C4
C4
C4
C4
C4
ENDCHAR
STARTCHAR 0069
ENCODING 105
SWIDTH 576 0
DWIDTH 8 0
BBX 7 11 1 0
BITMAP
10
30
00
F0
10
10
10
10
10
10
FE
ENDCHAR
STARTCHAR 006A
ENCODING 106
SWIDTH 576 0
DWIDTH 8 0
BBX 5 14 1 -3
BITMAP
08
18
00
F8
08
08
08
08
08
08
08
08
18
F0
ENDCHAR
STARTCHAR 006B
ENCODING 107
SWIDTH 576 0
DWIDTH 8 0
BBX 7 10 1 0
BITMAP
C0
C0
C6
CC
D8
F0
D8
C8
CC
C6
ENDCHAR
STARTCHAR 006C
ENCODING 108
SWIDTH 576 0
DWIDTH 8 0
BBX 8 10 0 0
BITMAP
F0
10
10
10
10
10
10
10
18
0F
ENDCHAR
STARTCHAR 006D
ENCODING 109
SWIDTH 576 0
DWIDTH 8 0
BBX 7 8 1 0
BITMAP
EC
96
96
96
96
96
96
96
ENDCHAR
STARTCHAR 006E
ENCODING 110
SWIDTH 576 0
DWIDTH 8 0
BBX 6 8 1 0
BITMAP
F8
CC
C4
C4
C4
C4
C4
C4
ENDCHAR
STARTCHAR 006F
ENCODING 111
SWIDTH 576 0
DWIDTH 8 0
BBX 6 8 1 0
BITMAP
78
CC
84
84
84
84
4C
78
ENDCHAR
STARTCHAR 0070
ENCODING 112
SWIDTH 576 0
DWIDTH 8 0
BBX 6 11 1 -3
BITMAP
F8
CC
C4
C4
C4
C4
CC
F8
C0
C0
C0
ENDCHAR
STARTCHAR 0071
ENCODING 113
SWIDTH 576 0
DWIDTH 8 0
BBX 6 11 1 -3
BITMAP
74
CC
C4
84
84
C4
CC
74
04
04
04
ENDCHAR
STARTCHAR 0072
ENCODING 114
SWIDTH 576 0
DWIDTH 8 0
BBX 5 8 2 0
BITMAP
F8
88
88
88
80
80
80
80
ENDCHAR
STARTCHAR 0073
ENCODING 115
SWIDTH 576 0
DWIDTH 8 0
BBX 6 8 1 0
BITMAP
78
C4
C0
78
0C
04
C4
78
ENDCHAR
STARTCHAR 0074
ENCODING 116
SWIDTH 576 0
DWIDTH 8 0
BBX 6 10 1 0
BITMAP
20
20
FC
20
20
20
20
20
20
1C
ENDCHAR
STARTCHAR 0075
ENCODING 117
SWIDTH 576 0
DWIDTH 8 0
BBX 6 8 1 0
BITMAP
C4
C4
C4
C4
C4
C4
4C
78
ENDCHAR
STARTCHAR 0076
ENCODING 118
SWIDTH 576 0
DWIDTH 8 0
BBX 7 8 1 0
BITMAP
86
C4
44
48
68
28
38
30
ENDCHAR
STARTCHAR 0077
ENCODING 119
SWIDTH 576 0
DWIDTH 8 0
BBX 8 8 0 0
BITMAP
D9
59
59
5A
56
56
66
26
ENDCHAR
STARTCHAR 0078
ENCODING 120
SWIDTH 576 0
DWIDTH 8 0
BBX 7 8 1 0
BITMAP
C6
4C
28
30
30
68
4C
C6
ENDCHAR
STARTCHAR 0079
ENCODING 121
SWIDTH 576 0
DWIDTH 8 0
BBX 7 11 1 -3
BITMAP
86
C4
4C
48
68
28
30
30
30
20
60
ENDCHAR
STARTCHAR 007A
ENCODING 122
SWIDTH 576 0
DWIDTH 8 0
BBX 6 8 1 0
BITMAP
FC
0C
08
10
20
60
C0
FC
ENDCHAR
STARTCHAR 007B
ENCODING 123
SWIDTH 576 0
DWIDTH 8 0
BBX 6 13 1 -1
BITMAP
0C
10
10
10
10
10
E0
10
10
10
10
10
1C
ENDCHAR
STARTCHAR 007C
ENCODING 124
SWIDTH 576 0
DWIDTH 8 0
BBX 1 14 4 -2
BITMAP
80
80
80
80
80
80
80
80
80
80
80
80
80
80
ENDCHAR
STARTCHAR 007D
ENCODING 125
SWIDTH 576 0
DWIDTH 8 0
BBX 6 13 1 -1
BITMAP
E0
30
30
20
20
20
1C
20
20
20
20
30
E0
ENDCHAR
STARTCHAR 007E
ENCODING 126
SWIDTH 576 0
DWIDTH 8 0
BBX 6 3 1 4
BITMAP
64
B4
9C
ENDCHAR
STARTCHAR 00A0
ENCODING 160
SWIDTH 576 0
DWIDTH 8 0
BBX 0 0 0 0
BITMAP
ENDCHAR
STARTCHAR 00A1
ENCODING 161
SWIDTH 576 0
DWIDTH 8 0
BBX 2 11 3 -3
BITMAP
C0
00
00
00
40
40
40
40
40
C0
C0
ENDCHAR
STARTCHAR 00A2
ENCODING 162
SWIDTH 576 0
DWIDTH 8 0
BBX 6 12 1 -2
BITMAP
10
10
78
54
D4
90
90
D4
D4
78
10
10
ENDCHAR
STARTCHAR 00A3
ENCODING 163
SWIDTH 576 0
DWIDTH 8 0
BBX 6 10 1 0
BITMAP
78
CC
80
40
F8
20
60
40
C0
FC
ENDCHAR
STARTCHAR 00A4
ENCODING 164
SWIDTH 576 0
DWIDTH 8 0
BBX 7 8 1 1
BITMAP
84
FE
4C
84
84
4C
FC
86
ENDCHAR
STARTCHAR 00A5
ENCODING 165
SWIDTH 576 0
DWIDTH 8 0
BBX 8 10 0 0
BITMAP
C3
62
26
34
1C
7F
08
7F
08
08
ENDCHAR
STARTCHAR 00A6
ENCODING 166
SWIDTH 576 0
DWIDTH 8 0
BBX 1 13 4 -2
BITMAP
80
80
80
80
80
00
00
00
80
80
80
80
80
ENDCHAR
STARTCHAR 00A7
ENCODING 167
SWIDTH 576 0
DWIDTH 8 0
BBX 6 13 1 -3
BITMAP
78
C4
C0
E0
58
C4
C4
FC
78
0C
04
C4
7C
ENDCHAR
STARTCHAR 00A8
ENCODING 168
SWIDTH 576 0
DWIDTH 8 0
BBX 5 2 2 9
BITMAP
90
D8
ENDCHAR
STARTCHAR 00A9
ENCODING 169
SWIDTH 576 0
DWIDTH 8 0
BBX 7 9 1 1
BITMAP
78
84
BA
CA
C2
CA
BA
84
78
ENDCHAR
STARTCHAR 00AA
ENCODING 170
SWIDTH 576 0
DWIDTH 8 0
BBX 4 4 2 6
BITMAP
70
70
90
70
ENDCHAR
STARTCHAR 00AB
ENCODING 171
SWIDTH 576 0
DWIDTH 8 0
BBX 8 7 0 1
BITMAP
1B
26
64
C8
64
26
1B
ENDCHAR
STARTCHAR 00AC
ENCODING 172
SWIDTH 576 0
DWIDTH 8 0
BBX 6 3 1 3
BITMAP
FC
04
04
ENDCHAR
STARTCHAR 00AD
ENCODING 173
SWIDTH 576 0
DWIDTH 8 0
BBX 4 1 2 4
BITMAP
F0
ENDCHAR
STARTCHAR 00AE
ENCODING 174
SWIDTH 576 0
DWIDTH 8 0
BBX 7 9 1 2
BITMAP
78
C4
BA
AA
BA
B2
AA
84
78
ENDCHAR
STARTCHAR 00AF
ENCODING 175
SWIDTH 576 0
DWIDTH 8 0
BBX 4 1 2 10
BITMAP
F0
ENDCHAR
STARTCHAR 00B0
ENCODING 176
SWIDTH 576 0
DWIDTH 8 0
BBX 4 4 2 6
BITMAP
70
90
90
70
ENDCHAR
STARTCHAR 00B1
ENCODING 177
SWIDTH 576 0
DWIDTH 8 0
BBX 6 8 1 0
BITMAP
10
10
10
FC
10
10
10
FC
ENDCHAR
STARTCHAR 00B2
ENCODING 178
SWIDTH 576 0
DWIDTH 8 0
BBX 4 7 2 5
BITMAP
70
90
10
10
20
40
F0
ENDCHAR
STARTCHAR 00B3
ENCODING 179
SWIDTH 576 0
DWIDTH 8 0
BBX 4 7 2 5
BITMAP
F0
10
20
10
10
90
70
ENDCHAR
STARTCHAR 00B4
ENCODING 180
SWIDTH 576 0
DWIDTH 8 0
BBX 3 2 3 9
BITMAP
60
C0
ENDCHAR
STARTCHAR 00B5
ENCODING 181
SWIDTH 576 0
DWIDTH 8 0
BBX 6 11 1 -3
BITMAP
C4
C4
C4
C4
C4
C4
CC
F4
C0
C0
C0
ENDCHAR
STARTCHAR 00B6
ENCODING 182
SWIDTH 576 0
DWIDTH 8 0
BBX 6 13 1 -3
BITMAP
74
F4
F4
F4
F4
74
14
14
14
14
14
14
14
ENDCHAR
STARTCHAR 00B7
ENCODING 183
SWIDTH 576 0
DWIDTH 8 0
BBX 2 2 3 4
BITMAP
C0
C0
ENDCHAR
STARTCHAR 00B8
ENCODING 184
SWIDTH 576 0
DWIDTH 8 0
BBX 3 3 3 -3
BITMAP
80
60
E0
ENDCHAR
STARTCHAR 00B9
ENCODING 185
SWIDTH 576 0
DWIDTH 8 0
BBX 5 7 2 5
BITMAP
60
A0
20
20
20
20
F8
ENDCHAR
STARTCHAR 00BA
ENCODING 186
SWIDTH 576 0
DWIDTH 8 0
BBX 3 4 3 6
BITMAP
C0
A0
A0
C0
ENDCHAR
STARTCHAR 00BB
ENCODING 187
SWIDTH 576 0
DWIDTH 8 0
BBX 7 7 1 1
BITMAP
98
48
64
32
64
48
98
ENDCHAR
STARTCHAR 00BC
ENCODING 188
SWIDTH 576 0
DWIDTH 8 0
BBX 8 11 0 0
BITMAP
21
63
22
24
FC
08
12
34
29
4F
C1
ENDCHAR
STARTCHAR 00BD
ENCODING 189
SWIDTH 576 0
DWIDTH 8 0
BBX 8 10 0 0
BITMAP
63
22
24
FC
08
16
39
21
46
CF
ENDCHAR
STARTCHAR 00BE
ENCODING 190
SWIDTH 576 0
DWIDTH 8 0
BBX 8 11 0 0
BITMAP
71
22
22
14
E8
08
12
34
29
4F
C1
ENDCHAR
STARTCHAR 00BF
ENCODING 191
SWIDTH 576 0
DWIDTH 8 0
BBX 5 11 2 -3
BITMAP
30
00
00
30
30
70
C0
80
80
C0
78
ENDCHAR
STARTCHAR 00C0
ENCODING 192
SWIDTH 576 0
DWIDTH 8 0
BBX 7 14 1 0
BITMAP
60
30
00
00
30
30
28
68
48
4C
7C
C4
84
86
ENDCHAR
STARTCHAR 00C1
ENCODING 193
SWIDTH 576 0
DWIDTH 8 0
BBX 7 14 1 0
BITMAP
08
30
00
00
30
30
28
68
48
4C
7C
C4
84
86
ENDCHAR
STARTCHAR 00C2
ENCODING 194
SWIDTH 576 0
DWIDTH 8 0
BBX 7 14 1 0
BITMAP
30
6C
00
00
30
30
28
68
48
4C
7C
C4
84
86
ENDCHAR
STARTCHAR 00C3
ENCODING 195
SWIDTH 576 0
DWIDTH 8 0
BBX 7 14 1 0
BITMAP
68
58
00
00
30
30
28
68
48
4C
7C
C4
84
86
ENDCHAR
STARTCHAR 00C4
ENCODING 196
SWIDTH 576 0
DWIDTH 8 0
BBX 7 14 1 0
BITMAP
48
6C
00
00
30
30
28
68
48
4C
7C
C4
84
86
ENDCHAR
STARTCHAR 00C5
ENCODING 197
SWIDTH 576 0
DWIDTH 8 0
BBX 7 14 1 0
BITMAP
30
48
38
00
30
30
28
68
48
4C
7C
C4
84
86
ENDCHAR
STARTCHAR 00C6
ENCODING 198
SWIDTH 576 0
DWIDTH 8 0
BBX 8 10 0 0
BITMAP
3F
28
28
28
2F
68
78
48
48
CF
ENDCHAR
STARTCHAR 00C7
ENCODING 199
SWIDTH 576 0
DWIDTH 8 0
BBX 6 13 1 -3
BITMAP
78
44
C4
C0
C0
C0
C0
C4
44
78
30
08
30
ENDCHAR
STARTCHAR 00C8
ENCODING 200
SWIDTH 576 0
DWIDTH 8 0
BBX 6 14 1 0
BITMAP
60
30
00
00
FC
C0
C0
C0
FC
C0
C0
C0
C0
FC
ENDCHAR
STARTCHAR 00C9
ENCODING 201
SWIDTH 576 0
DWIDTH 8 0
BBX 6 14 1 0
BITMAP
08
10
00
00
FC
C0
C0
C0
FC
C0
C0
C0
C0
FC
ENDCHAR
STARTCHAR 00CA
ENCODING 202
SWIDTH 576 0
DWIDTH 8 0
BBX 6 14 1 0
BITMAP
30
6C
00
00
FC
C0
C0
C0
FC
C0
C0
C0
C0
FC
ENDCHAR
STARTCHAR 00CB
ENCODING 203
SWIDTH 576 0
DWIDTH 8 0
BBX 6 14 1 0
BITMAP
6C
6C
00
00
FC
C0
C0
C0
FC
C0
C0
C0
C0
FC
ENDCHAR
STARTCHAR 00CC
ENCODING 204
SWIDTH 576 0
DWIDTH 8 0
BBX 6 14 1 0
BITMAP
60
30
00
00
FC
10
10
10
10
10
10
10
10
FC
ENDCHAR
STARTCHAR 00CD
ENCODING 205
SWIDTH 576 0
DWIDTH 8 0
BBX 6 14 1 0
BITMAP
08
30
00
00
FC
10
10
10
10
10
10
10
10
FC
ENDCHAR
STARTCHAR 00CE
ENCODING 206
SWIDTH 576 0
DWIDTH 8 0
BBX 6 14 1 0
BITMAP
30
6C
00
00
FC
10
10
10
10
10
10
10
10
FC
ENDCHAR
STARTCHAR 00CF
ENCODING 207
SWIDTH 576 0
DWIDTH 8 0
BBX 6 14 1 0
BITMAP
48
6C
00
00
FC
10
10
10
10
10
10
10
10
FC
ENDCHAR
STARTCHAR 00D0
ENCODING 208
SWIDTH 576 0
DWIDTH 8 0
BBX 7 10 0 0
BITMAP
7C
66
62
62
F2
62
62
62
66
7C
ENDCHAR
STARTCHAR 00D1
ENCODING 209
SWIDTH 576 0
DWIDTH 8 0
BBX 6 14 1 0
BITMAP
68
58
00
00
C4
C4
A4
A4
B4
94
94
8C
8C
8C
ENDCHAR
STARTCHAR 00D2
ENCODING 210
SWIDTH 576 0
DWIDTH 8 0
BBX 6 14 1 0
BITMAP
60
30
00
00
78
4C
C4
84
84
84
84
C4
4C
78
ENDCHAR
STARTCHAR 00D3
ENCODING 211
SWIDTH 576 0
DWIDTH 8 0
BBX 6 14 1 0
BITMAP
08
30
00
00
78
4C
C4
84
84
84
84
C4
4C
78
ENDCHAR
STARTCHAR 00D4
ENCODING 212
SWIDTH 576 0
DWIDTH 8 0
BBX 6 14 1 0
BITMAP
30
6C
00
00
78
4C
C4
84
84
84
84
C4
4C
78
ENDCHAR
STARTCHAR 00D5
ENCODING 213
SWIDTH 576 0
DWIDTH 8 0
BBX 6 14 1 0
BITMAP
68
58
00
00
78
4C
C4
84
84
84
84
C4
4C
78
ENDCHAR
STARTCHAR 00D6
ENCODING 214
SWIDTH 576 0
DWIDTH 8 0
BBX 6 14 1 0
BITMAP
48
6C
00
00
78
4C
C4
84
84
84
84
C4
4C
78
ENDCHAR
STARTCHAR 00D7
ENCODING 215
SWIDTH 576 0
DWIDTH 8 0
BBX 6 5 1 2
BITMAP
CC
38
30
68
C4
ENDCHAR
STARTCHAR 00D8
ENCODING 216
SWIDTH 576 0
DWIDTH 8 0
BBX 8 10 0 0
BITMAP
3F
66
66
46
4A
5A
52
62
26
FC
ENDCHAR
STARTCHAR 00D9
ENCODING 217
SWIDTH 576 0
DWIDTH 8 0
BBX 6 14 1 0
BITMAP
60
30
00
00
C4
C4
C4
C4
C4
C4
C4
C4
4C
78
ENDCHAR
STARTCHAR 00DA
ENCODING 218
SWIDTH 576 0
DWIDTH 8 0
BBX 6 14 1 0
BITMAP
08
30
00
00
C4
C4
C4
C4
C4
C4
C4
C4
4C
78
ENDCHAR
STARTCHAR 00DB
ENCODING 219
SWIDTH 576 0
DWIDTH 8 0
BBX 6 14 1 0
BITMAP
30
6C
00
00
C4
C4
C4
C4
C4
C4
C4
C4
4C
78
ENDCHAR
STARTCHAR 00DC
ENCODING 220
SWIDTH 576 0
DWIDTH 8 0
BBX 6 14 1 0
BITMAP
48
6C
00
00
C4
C4
C4
C4
C4
C4
C4
C4
4C
78
ENDCHAR
STARTCHAR 00DD
ENCODING 221
SWIDTH 576 0
DWIDTH 8 0
BBX 8 14 0 0
BITMAP
04
18
00
00
C3
62
26
34
1C
18
08
08
08
08
ENDCHAR
STARTCHAR 00DE
ENCODING 222
SWIDTH 576 0
DWIDTH 8 0
BBX 7 10 1 0
BITMAP
C0
C0
FC
C4
C6
C6
FC
C0
C0
C0
ENDCHAR
STARTCHAR 00DF
ENCODING 223
SWIDTH 576 0
DWIDTH 8 0
BBX 7 10 1 0
BITMAP
78
4C
C4
C4
D8
C4
C4
C6
CC
D8
ENDCHAR
STARTCHAR 00E0
ENCODING 224
SWIDTH 576 0
DWIDTH 8 0
BBX 6 11 1 0
BITMAP
60
30
00
78
CC
04
7C
C4
84
CC
74
ENDCHAR
STARTCHAR 00E1
ENCODING 225
SWIDTH 576 0
DWIDTH 8 0
BBX 6 11 1 0
BITMAP
08
30
00
78
CC
04
7C
C4
84
CC
74
ENDCHAR
STARTCHAR 00E2
ENCODING 226
SWIDTH 576 0
DWIDTH 8 0
BBX 6 11 1 0
BITMAP
30
6C
00
78
CC
04
7C
C4
84
CC
74
ENDCHAR
STARTCHAR 00E3
ENCODING 227
SWIDTH 576 0
DWIDTH 8 0
BBX 6 11 1 0
BITMAP
64
58
00
78
CC
04
7C
C4
84
CC
74
ENDCHAR
STARTCHAR 00E4
ENCODING 228
SWIDTH 576 0
DWIDTH 8 0
BBX 6 11 1 0
BITMAP
4C
6C
00
78
CC
04
7C
C4
84
CC
74
ENDCHAR
STARTCHAR 00E5
ENCODING 229
SWIDTH 576 0
DWIDTH 8 0
BBX 6 12 1 0
BITMAP
38
28
38
00
78
CC
04
7C
C4
84
CC
74
ENDCHAR
STARTCHAR 00E6
ENCODING 230
SWIDTH 576 0
DWIDTH 8 0
BBX 8 8 0 0
BITMAP
76
49
09
7F
48
C8
59
76
ENDCHAR
STARTCHAR 00E7
ENCODING 231
SWIDTH 576 0
DWIDTH 8 0
BBX 6 11 1 -3
BITMAP
78
44
C4
80
80
C4
4C
78
30
08
30
ENDCHAR
STARTCHAR 00E8
ENCODING 232
SWIDTH 576 0
DWIDTH 8 0
BBX 6 11 1 0
BITMAP
60
30
00
78
4C
84
FC
80
80
4C
78
ENDCHAR
STARTCHAR 00E9
ENCODING 233
SWIDTH 576 0
DWIDTH 8 0
BBX 6 11 1 0
BITMAP
08
30
00
78
4C
84
FC
80
80
4C
78
ENDCHAR
STARTCHAR 00EA
ENCODING 234
SWIDTH 576 0
DWIDTH 8 0
BBX 6 11 1 0
BITMAP
30
6C
00
78
4C
84
FC
80
80
4C
78
ENDCHAR
STARTCHAR 00EB
ENCODING 235
SWIDTH 576 0
DWIDTH 8 0
BBX 6 11 1 0
BITMAP
48
6C
00
78
4C
84
FC
80
80
4C
78
ENDCHAR
STARTCHAR 00EC
ENCODING 236
SWIDTH 576 0
DWIDTH 8 0
BBX 7 11 1 0
BITMAP
60
10
00
F0
10
10
10
10
10
10
FE
ENDCHAR
STARTCHAR 00ED
ENCODING 237
SWIDTH 576 0
DWIDTH 8 0
BBX 7 11 1 0
BITMAP
08
10
00
F0
10
10
10
10
10
10
FE
ENDCHAR
STARTCHAR 00EE
ENCODING 238
SWIDTH 576 0
DWIDTH 8 0
BBX 7 11 1 0
BITMAP
30
6C
00
F0
10
10
10
10
10
10
FE
ENDCHAR
STARTCHAR 00EF
ENCODING 239
SWIDTH 576 0
DWIDTH 8 0
BBX 7 11 1 0
BITMAP
6C
6C
00
F0
10
10
10
10
10
10
FE
ENDCHAR
STARTCHAR 00F0
ENCODING 240
SWIDTH 576 0
DWIDTH 8 0
BBX 6 10 1 0
BITMAP
68
30
58
08
74
CC
84
84
CC
78
ENDCHAR
STARTCHAR 00F1
ENCODING 241
SWIDTH 576 0
DWIDTH 8 0
BBX 6 11 1 0
BITMAP
64
58
00
F8
CC
C4
C4
C4
C4
C4
C4
ENDCHAR
STARTCHAR 00F2
ENCODING 242
SWIDTH 576 0
DWIDTH 8 0
BBX 6 11 1 0
BITMAP
60
30
00
78
CC
84
84
84
84
4C
78
ENDCHAR
STARTCHAR 00F3
ENCODING 243
SWIDTH 576 0
DWIDTH 8 0
BBX 6 11 1 0
BITMAP
08
30
00
78
CC
84
84
84
84
4C
78
ENDCHAR
STARTCHAR 00F4
ENCODING 244
SWIDTH 576 0
DWIDTH 8 0
BBX 6 11 1 0
BITMAP
30
6C
00
78
CC
84
84
84
84
4C
78
ENDCHAR
STARTCHAR 00F5
ENCODING 245
SWIDTH 576 0
DWIDTH 8 0
BBX 6 11 1 0
BITMAP
68
58
00
78
CC
84
84
84
84
4C
78
ENDCHAR
STARTCHAR 00F6
ENCODING 246
SWIDTH 576 0
DWIDTH 8 0
BBX 6 11 1 0
BITMAP
48
6C
00
78
CC
84
84
84
84
4C
78
ENDCHAR
STARTCHAR 00F7
ENCODING 247
SWIDTH 576 0
DWIDTH 8 0
BBX 6 8 1 1
BITMAP
30
30
00
FC
00
00
30
30
ENDCHAR
STARTCHAR 00F8
ENCODING 248
SWIDTH 576 0
DWIDTH 8 0
BBX 8 9 0 0
BITMAP
01
3E
26
46
4A
52
52
26
FC
ENDCHAR
STARTCHAR 00F9
ENCODING 249
SWIDTH 576 0
DWIDTH 8 0
BBX 6 11 1 0
BITMAP
60
30
00
C4
C4
C4
C4
C4
C4
4C
78
ENDCHAR
STARTCHAR 00FA
ENCODING 250
SWIDTH 576 0
DWIDTH 8 0
BBX 6 11 1 0
BITMAP
08
30
00
C4
C4
C4
C4
C4
C4
4C
78
ENDCHAR
STARTCHAR 00FB
ENCODING 251
SWIDTH 576 0
DWIDTH 8 0
BBX 6 11 1 0
BITMAP
30
6C
00
C4
C4
C4
C4
C4
C4
4C
78
ENDCHAR
STARTCHAR 00FC
ENCODING 252
SWIDTH 576 0
DWIDTH 8 0
BBX 6 11 1 0
BITMAP
48
6C
00
C4
C4
C4
C4
C4
C4
4C
78
ENDCHAR
STARTCHAR 00FD
ENCODING 253
SWIDTH 576 0
DWIDTH 8 0
BBX 7 14 1 -3
BITMAP
08
30
00
86
C4
4C
48
68
28
30
30
30
20
60
ENDCHAR
STARTCHAR 00FE
ENCODING 254
SWIDTH 576 0
DWIDTH 8 0
BBX 6 13 1 -3
BITMAP
80
80
B8
CC
C4
84
84
C4
CC
B8
80
80
80
ENDCHAR
STARTCHAR 00FF
ENCODING 255
SWIDTH 576 0
DWIDTH 8 0
BBX 7 14 1 -3
BITMAP
48
6C
00
86
C4
4C
48
68
28
30
30
30
20
60
ENDCHAR
STARTCHAR 0100
ENCODING 256
SWIDTH 576 0
DWIDTH 8 0
BBX 7 13 1 0
BITMAP
78
00
00
30
30
28
68
48
4C
7C
C4
84
86
ENDCHAR
STARTCHAR 0101
ENCODING 257
SWIDTH 576 0
DWIDTH 8 0
BBX 6 11 1 0
BITMAP
7C
00
00
78
CC
04
7C
C4
84
CC
74
ENDCHAR
STARTCHAR 0102
ENCODING 258
SWIDTH 576 0
DWIDTH 8 0
BBX 7 14 1 0
BITMAP
48
78
00
00
30
30
28
68
48
4C
7C
C4
84
86
ENDCHAR
STARTCHAR 0103
ENCODING 259
SWIDTH 576 0
DWIDTH 8 0
BBX 6 11 1 0
BITMAP
4C
38
00
78
CC
04
7C
C4
84
CC
74
ENDCHAR
STARTCHAR 0104
ENCODING 260
SWIDTH 576 0
DWIDTH 8 0
BBX 7 13 1 -3
BITMAP
30
30
28
68
48
4C
7C
C4
84
86
04
0C
06
ENDCHAR
STARTCHAR 0105
ENCODING 261
SWIDTH 576 0
DWIDTH 8 0
BBX 7 11 1 -3
BITMAP
78
CC
04
7C
C4
84
CC
74
08
08
0E
ENDCHAR
STARTCHAR 0106
ENCODING 262
SWIDTH 576 0
DWIDTH 8 0
BBX 6 14 1 0
BITMAP
08
30
00
00
78
44
C4
C0
C0
C0
C0
C4
44
78
ENDCHAR
STARTCHAR 0107
ENCODING 263
SWIDTH 576 0
DWIDTH 8 0
BBX 6 11 1 0
BITMAP
08
10
20
78
44
C4
80
80
C4
4C
78
ENDCHAR
STARTCHAR 0108
ENCODING 264
SWIDTH 576 0
DWIDTH 8 0
BBX 6 14 1 0
BITMAP
30
6C
00
00
78
44
C4
C0
C0
C0
C0
C4
44
78
ENDCHAR
STARTCHAR 0109
ENCODING 265
SWIDTH 576 0
DWIDTH 8 0
BBX 6 11 1 0
BITMAP
30
6C
00
78
44
C4
80
80
C4
4C
78
ENDCHAR
STARTCHAR 010A
ENCODING 266
SWIDTH 576 0
DWIDTH 8 0
BBX 6 14 1 0
BITMAP
30
30
00
00
78
44
C4
C0
C0
C0
C0
C4
44
78
ENDCHAR
STARTCHAR 010B
ENCODING 267
SWIDTH 576 0
DWIDTH 8 0
BBX 6 11 1 0
BITMAP
10
30
00
78
44
C4
80
80
C4
4C
78
ENDCHAR
STARTCHAR 010C
ENCODING 268
SWIDTH 576 0
DWIDTH 8 0
BBX 6 14 1 0
BITMAP
6C
30
00
00
78
44
C4
C0
C0
C0
C0
C4
44
78
ENDCHAR
STARTCHAR 010D
ENCODING 269
SWIDTH 576 0
DWIDTH 8 0
BBX 6 11 1 0
BITMAP
6C
30
00
78
44
C4
80
80
C4
4C
78
ENDCHAR
STARTCHAR 010E
ENCODING 270
SWIDTH 576 0
DWIDTH 8 0
BBX 6 14 1 0
BITMAP
6C
30
00
00
F8
CC
C4
C4
C4
C4
C4
C4
CC
F8
ENDCHAR
STARTCHAR 010F
ENCODING 271
SWIDTH 576 0
DWIDTH 8 0
BBX 7 10 1 0
BITMAP
0A
0A
7A
C8
88
88
88
88
C8
78
ENDCHAR
STARTCHAR 0110
ENCODING 272
SWIDTH 576 0
DWIDTH 8 0
BBX 7 10 0 0
BITMAP
7C
66
62
62
F2
62
62
62
66
7C
ENDCHAR
STARTCHAR 0111
ENCODING 273
SWIDTH 576 0
DWIDTH 8 0
BBX 7 10 1 0
BITMAP
04
3E
04
74
CC
C4
C4
C4
CC
74
ENDCHAR
STARTCHAR 0112
ENCODING 274
SWIDTH 576 0
DWIDTH 8 0
BBX 6 13 1 0
BITMAP
7C
00
00
FC
C0
C0
C0
FC
C0
C0
C0
C0
FC
ENDCHAR
STARTCHAR 0113
ENCODING 275
SWIDTH 576 0
DWIDTH 8 0
BBX 6 11 1 0
BITMAP
78
00
00
78
4C
84
FC
80
80
4C
78
ENDCHAR
STARTCHAR 0114
ENCODING 276
SWIDTH 576 0
DWIDTH 8 0
BBX 6 14 1 0
BITMAP
44
38
00
00
FC
C0
C0
C0
FC
C0
C0
C0
C0
FC
ENDCHAR
STARTCHAR 0115
ENCODING 277
SWIDTH 576 0
DWIDTH 8 0
BBX 6 11 1 0
BITMAP
48
78
00
78
4C
84
FC
80
80
4C
78
ENDCHAR
STARTCHAR 0116
ENCODING 278
SWIDTH 576 0
DWIDTH 8 0
BBX 6 14 1 0
BITMAP
10
30
00
00
FC
C0
C0
C0
FC
C0
C0
C0
C0
FC
ENDCHAR
STARTCHAR 0117
ENCODING 279
SWIDTH 576 0
DWIDTH 8 0
BBX 6 11 1 0
BITMAP
30
30
00
78
4C
84
FC
80
80
4C
78
ENDCHAR
STARTCHAR 0118
ENCODING 280
SWIDTH 576 0
DWIDTH 8 0
BBX 6 13 1 -3
BITMAP
FC
C0
C0
C0
FC
C0
C0
C0
C0
FC
08
08
0C
ENDCHAR
STARTCHAR 0119
ENCODING 281
SWIDTH 576 0
DWIDTH 8 0
BBX 6 11 1 -3
BITMAP
78
4C
84
FC
80
C0
4C
78
10
10
18
ENDCHAR
STARTCHAR 011A
ENCODING 282
SWIDTH 576 0
DWIDTH 8 0
BBX 6 14 1 0
BITMAP
6C
30
00
00
FC
C0
C0
C0
FC
C0
C0
C0
C0
FC
ENDCHAR
STARTCHAR 011B
ENCODING 283
SWIDTH 576 0
DWIDTH 8 0
BBX 6 11 1 0
BITMAP
6C
30
00
78
4C
84
FC
80
80
4C
78
ENDCHAR
STARTCHAR 011C
ENCODING 284
SWIDTH 576 0
DWIDTH 8 0
BBX 6 14 1 0
BITMAP
30
6C
00
00
78
C4
C0
80
9C
84
84
C4
CC
78
ENDCHAR
STARTCHAR 011D
ENCODING 285
SWIDTH 576 0
DWIDTH 8 0
BBX 6 14 1 -3
BITMAP
30
6C
00
74
4C
C4
84
84
C4
CC
74
04
0C
78
ENDCHAR
STARTCHAR 011E
ENCODING 286
SWIDTH 576 0
DWIDTH 8 0
BBX 6 14 1 0
BITMAP
48
78
00
00
78
C4
C0
80
9C
84
84
C4
CC
78
ENDCHAR
STARTCHAR 011F
ENCODING 287
SWIDTH 576 0
DWIDTH 8 0
BBX 6 14 1 -3
BITMAP
48
78
00
74
4C
C4
84
84
C4
CC
74
04
0C
78
ENDCHAR
STARTCHAR 0120
ENCODING 288
SWIDTH 576 0
DWIDTH 8 0
BBX 6 14 1 0
BITMAP
30
30
00
00
78
C4
C0
80
9C
84
84
C4
CC
78
ENDCHAR
STARTCHAR 0121
ENCODING 289
SWIDTH 576 0
DWIDTH 8 0
BBX 6 14 1 -3
BITMAP
30
30
00
74
4C
C4
84
84
C4
CC
74
04
0C
78
ENDCHAR
STARTCHAR 0122
ENCODING 290
SWIDTH 576 0
DWIDTH 8 0
BBX 6 13 1 -3
BITMAP
78
C4
C0
80
9C
84
84
C4
CC
78
00
18
20
ENDCHAR
STARTCHAR 0123
ENCODING 291
SWIDTH 576 0
DWIDTH 8 0
BBX 6 16 1 -3
BITMAP
08
10
10
30
00
74
4C
C4
84
84
C4
CC
74
04
0C
78
ENDCHAR
STARTCHAR 0124
ENCODING 292
SWIDTH 576 0
DWIDTH 8 0
BBX 6 14 1 0
BITMAP
30
6C
00
00
C4
C4
C4
C4
FC
C4
C4
C4
C4
C4
ENDCHAR
STARTCHAR 0125
ENCODING 293
SWIDTH 576 0
DWIDTH 8 0
BBX 8 14 -1 0
BITMAP
30
C8
00
00
30
30
3E
33
31
31
31
31
31
31
ENDCHAR
STARTCHAR 0126
ENCODING 294
SWIDTH 576 0
DWIDTH 8 0
BBX 8 10 0 0
BITMAP
62
FF
62
62
7E
62
62
62
62
62
ENDCHAR
STARTCHAR 0127
ENCODING 295
SWIDTH 576 0
DWIDTH 8 0
BBX 7 10 0 0
BITMAP
60
F8
60
7C
66
62
62
62
62
62
ENDCHAR
STARTCHAR 0128
ENCODING 296
SWIDTH 576 0
DWIDTH 8 0
BBX 6 14 1 0
BITMAP
68
58
00
00
FC
10
10
10
10
10
10
10
10
FC
ENDCHAR
STARTCHAR 0129
ENCODING 297
SWIDTH 576 0
DWIDTH 8 0
BBX 7 11 1 0
BITMAP
74
58
00
F0
10
10
10
10
10
10
FE
ENDCHAR
STARTCHAR 012A
ENCODING 298
SWIDTH 576 0
DWIDTH 8 0
BBX 6 13 1 0
BITMAP
78
00
00
FC
10
10
10
10
10
10
10
10
FC
ENDCHAR
STARTCHAR 012B
ENCODING 299
SWIDTH 576 0
DWIDTH 8 0
BBX 7 11 1 0
BITMAP
7C
00
00
F0
10
10
10
10
10
10
FE
ENDCHAR
STARTCHAR 012C
ENCODING 300
SWIDTH 576 0
DWIDTH 8 0
BBX 6 14 1 0
BITMAP
48
78
00
00
FC
10
10
10
10
10
10
10
10
FC
ENDCHAR
STARTCHAR 012D
ENCODING 301
SWIDTH 576 0
DWIDTH 8 0
BBX 7 11 1 0
BITMAP
44
38
00
F0
10
10
10
10
10
10
FE
ENDCHAR
STARTCHAR 012E
ENCODING 302
SWIDTH 576 0
DWIDTH 8 0
BBX 6 13 1 -3
BITMAP
FC
10
10
10
10
10
10
10
10
FC
20
20
30
ENDCHAR
STARTCHAR 012F
ENCODING 303
SWIDTH 576 0
DWIDTH 8 0
BBX 7 14 1 -3
BITMAP
10
30
00
F0
10
10
10
10
10
10
FE
20
20
38
ENDCHAR
STARTCHAR 0130
ENCODING 304
SWIDTH 576 0
DWIDTH 8 0
BBX 6 14 1 0
BITMAP
30
30
00
00
FC
10
10
10
10
10
10
10
10
FC
ENDCHAR
STARTCHAR 0131
ENCODING 305
SWIDTH 576 0
DWIDTH 8 0
BBX 7 8 1 0
BITMAP
F0
10
10
10
10
10
10
FE
ENDCHAR
STARTCHAR 0134
ENCODING 308
SWIDTH 576 0
DWIDTH 8 0
BBX 8 14 1 0
BITMAP
0C
1B
00
00
04
04
04
04
04
04
04
84
CC
78
ENDCHAR
STARTCHAR 0135
ENCODING 309
SWIDTH 576 0
DWIDTH 8 0
BBX 7 14 1 -3
BITMAP
18
36
00
F8
08
08
08
08
08
08
08
08
18
F0
ENDCHAR
STARTCHAR 0136
ENCODING 310
SWIDTH 576 0
DWIDTH 8 0
BBX 7 13 1 -3
BITMAP
C6
CC
C8
D8
F0
D8
C8
CC
C4
C6
00
10
20
ENDCHAR
STARTCHAR 0137
ENCODING 311
SWIDTH 576 0
DWIDTH 8 0
BBX 7 13 1 -3
BITMAP
C0
C0
C6
CC
D8
F0
D8
C8
CC
C6
00
10
20
ENDCHAR
STARTCHAR 0138
ENCODING 312
SWIDTH 576 0
DWIDTH 8 0
BBX 7 8 1 0
BITMAP
C6
CC
C8
F0
D8
C8
C4
C6
ENDCHAR
STARTCHAR 0139
ENCODING 313
SWIDTH 576 0
DWIDTH 8 0
BBX 6 14 2 0
BITMAP
40
80
00
00
80
80
80
80
80
80
80
80
80
FC
ENDCHAR
STARTCHAR 013A
ENCODING 314
SWIDTH 576 0
DWIDTH 8 0
BBX 8 14 0 0
BITMAP
08
10
00
00
F0
10
10
10
10
10
10
10
18
0F
ENDCHAR
STARTCHAR 013B
ENCODING 315
SWIDTH 576 0
DWIDTH 8 0
BBX 6 13 2 -3
BITMAP
80
80
80
80
80
80
80
80
80
FC
00
30
60
ENDCHAR
STARTCHAR 013C
ENCODING 316
SWIDTH 576 0
DWIDTH 8 0
BBX 8 13 0 -3
BITMAP
F0
10
10
10
10
10
10
10
18
0F
00
0C
18
ENDCHAR
STARTCHAR 013D
ENCODING 317
SWIDTH 576 0
DWIDTH 8 0
BBX 6 10 2 0
BITMAP
90
90
90
80
80
80
80
80
80
FC
ENDCHAR
STARTCHAR 013E
ENCODING 318
SWIDTH 576 0
DWIDTH 8 0
BBX 8 10 0 0
BITMAP
F2
12
12
10
10
10
10
10
18
0F
ENDCHAR
STARTCHAR 013F
ENCODING 319
SWIDTH 576 0
DWIDTH 8 0
BBX 6 10 2 0
BITMAP
80
80
80
80
9C
8C
80
80
80
FC
ENDCHAR
STARTCHAR 0140
ENCODING 320
SWIDTH 576 0
DWIDTH 8 0
BBX 9 10 0 0
BITMAP
F000
1000
1000
1000
1380
1180
1000
1000
1000
1E00
ENDCHAR
STARTCHAR 0141
ENCODING 321
SWIDTH 576 0
DWIDTH 8 0
BBX 8 10 0 0
BITMAP
20
20
24
28
30
60
A0
20
20
3F
ENDCHAR
STARTCHAR 0142
ENCODING 322
SWIDTH 576 0
DWIDTH 8 0
BBX 8 10 0 0
BITMAP
F0
10
12
16
18
30
50
10
18
0F
ENDCHAR
STARTCHAR 0143
ENCODING 323
SWIDTH 576 0
DWIDTH 8 0
BBX 6 14 1 0
BITMAP
08
30
00
00
C4
C4
A4
A4
B4
94
94
8C
8C
8C
ENDCHAR
STARTCHAR 0144
ENCODING 324
SWIDTH 576 0
DWIDTH 8 0
BBX 6 11 1 0
BITMAP
08
30
00
F8
CC
C4
C4
C4
C4
C4
C4
ENDCHAR
STARTCHAR 0145
ENCODING 325
SWIDTH 576 0
DWIDTH 8 0
BBX 6 13 1 -3
BITMAP
C4
C4
A4
A4
B4
94
94
8C
8C
8C
00
10
20
ENDCHAR
STARTCHAR 0146
ENCODING 326
SWIDTH 576 0
DWIDTH 8 0
BBX 6 11 1 -3
BITMAP
F8
CC
C4
C4
C4
C4
C4
C4
00
10
20
ENDCHAR
STARTCHAR 0147
ENCODING 327
SWIDTH 576 0
DWIDTH 8 0
BBX 6 14 1 0
BITMAP
6C
30
00
00
C4
C4
A4
A4
B4
94
94
8C
8C
8C
ENDCHAR
STARTCHAR 0148
ENCODING 328
SWIDTH 576 0
DWIDTH 8 0
BBX 6 11 1 0
BITMAP
6C
30
00
F8
CC
C4
C4
C4
C4
C4
C4
ENDCHAR
STARTCHAR 0149
ENCODING 329
SWIDTH 576 0
DWIDTH 8 0
BBX 7 11 0 0
BITMAP
60
C0
00
7C
66
62
62
62
62
62
62
ENDCHAR
STARTCHAR 014A
ENCODING 330
SWIDTH 576 0
DWIDTH 8 0
BBX 6 13 1 -3
BITMAP
C4
E4
A4
A4
94
94
9C
8C
8C
84
04
0C
38
ENDCHAR
STARTCHAR 014B
ENCODING 331
SWIDTH 576 0
DWIDTH 8 0
BBX 6 11 1 -3
BITMAP
F8
CC
C4
C4
C4
C4
C4
C4
04
0C
38
ENDCHAR
STARTCHAR 014C
ENCODING 332
SWIDTH 576 0
DWIDTH 8 0
BBX 6 13 1 0
BITMAP
78
00
00
78
4C
C4
84
84
84
84
C4
4C
78
ENDCHAR
STARTCHAR 014D
ENCODING 333
SWIDTH 576 0
DWIDTH 8 0
BBX 6 11 1 0
BITMAP
78
00
00
78
CC
84
84
84
84
4C
78
ENDCHAR
STARTCHAR 014E
ENCODING 334
SWIDTH 576 0
DWIDTH 8 0
BBX 6 14 1 0
BITMAP
48
78
00
00
78
4C
C4
84
84
84
84
C4
4C
78
ENDCHAR
STARTCHAR 014F
ENCODING 335
SWIDTH 576 0
DWIDTH 8 0
BBX 6 11 1 0
BITMAP
48
78
00
78
CC
84
84
84
84
4C
78
ENDCHAR
STARTCHAR 0150
ENCODING 336
SWIDTH 576 0
DWIDTH 8 0
BBX 6 14 1 0
BITMAP
34
68
00
00
78
4C
C4
84
84
84
84
C4
4C
78
ENDCHAR
STARTCHAR 0151
ENCODING 337
SWIDTH 576 0
DWIDTH 8 0
BBX 6 11 1 0
BITMAP
34
68
00
78
CC
84
84
84
84
4C
78
ENDCHAR
STARTCHAR 0152
ENCODING 338
SWIDTH 576 0
DWIDTH 8 0
BBX 7 10 1 0
BITMAP
FE
98
98
98
9E
98
98
98
98
FE
ENDCHAR
STARTCHAR 0153
ENCODING 339
SWIDTH 576 0
DWIDTH 8 0
BBX 8 8 0 0
BITMAP
76
59
C9
CF
C8
C8
5B
76
ENDCHAR
STARTCHAR 0154
ENCODING 340
SWIDTH 576 0
DWIDTH 8 0
BBX 7 14 1 0
BITMAP
08
30
00
00
F8
C4
C4
C4
FC
D8
C8
CC
C4
C6
ENDCHAR
STARTCHAR 0155
ENCODING 341
SWIDTH 576 0
DWIDTH 8 0
BBX 5 11 2 0
BITMAP
18
20
00
F8
88
88
88
80
80
80
80
ENDCHAR
STARTCHAR 0156
ENCODING 342
SWIDTH 576 0
DWIDTH 8 0
BBX 7 13 1 -3
BITMAP
F8
C4
C4
C4
FC
D8
C8
CC
C4
C6
00
10
20
ENDCHAR
STARTCHAR 0157
ENCODING 343
SWIDTH 576 0
DWIDTH 8 0
BBX 7 11 0 -3
BITMAP
3E
22
22
22
20
20
20
20
00
60
C0
ENDCHAR
STARTCHAR 0158
ENCODING 344
SWIDTH 576 0
DWIDTH 8 0
BBX 7 14 1 0
BITMAP
6C
30
00
00
F8
C4
C4
C4
FC
D8
C8
CC
C4
C6
ENDCHAR
STARTCHAR 0159
ENCODING 345
SWIDTH 576 0
DWIDTH 8 0
BBX 5 11 2 0
BITMAP
D8
70
00
F8
88
88
88
80
80
80
80
ENDCHAR
STARTCHAR 015A
ENCODING 346
SWIDTH 576 0
DWIDTH 8 0
BBX 6 14 1 0
BITMAP
08
30
00
00
78
CC
84
C0
70
0C
04
84
CC
78
ENDCHAR
STARTCHAR 015B
ENCODING 347
SWIDTH 576 0
DWIDTH 8 0
BBX 6 11 1 0
BITMAP
08
30
00
78
C4
C0
78
0C
04
C4
78
ENDCHAR
STARTCHAR 015C
ENCODING 348
SWIDTH 576 0
DWIDTH 8 0
BBX 6 14 1 0
BITMAP
30
6C
00
00
78
CC
84
C0
70
0C
04
84
CC
78
ENDCHAR
STARTCHAR 015D
ENCODING 349
SWIDTH 576 0
DWIDTH 8 0
BBX 6 11 1 0
BITMAP
30
6C
00
78
C4
C0
78
0C
04
C4
78
ENDCHAR
STARTCHAR 015E
ENCODING 350
SWIDTH 576 0
DWIDTH 8 0
BBX 6 13 1 -3
BITMAP
78
CC
84
C0
70
0C
04
84
CC
78
30
08
30
ENDCHAR
STARTCHAR 015F
ENCODING 351
SWIDTH 576 0
DWIDTH 8 0
BBX 6 11 1 -3
BITMAP
78
C4
C0
78
0C
04
C4
78
30
08
38
ENDCHAR
STARTCHAR 0160
ENCODING 352
SWIDTH 576 0
DWIDTH 8 0
BBX 6 14 1 0
BITMAP
6C
30
00
00
78
CC
84
C0
70
0C
04
84
CC
78
ENDCHAR
STARTCHAR 0161
ENCODING 353
SWIDTH 576 0
DWIDTH 8 0
BBX 6 11 1 0
BITMAP
6C
30
00
78
C4
C0
78
0C
04
C4
78
ENDCHAR
STARTCHAR 0162
ENCODING 354
SWIDTH 576 0
DWIDTH 8 0
BBX 7 13 1 -3
BITMAP
FE
10
10
10
10
10
10
10
10
10
10
08
38
ENDCHAR
STARTCHAR 0163
ENCODING 355
SWIDTH 576 0
DWIDTH 8 0
BBX 6 13 1 -3
BITMAP
20
20
FC
20
20
20
20
20
20
1C
10
0C
18
ENDCHAR
STARTCHAR 0164
ENCODING 356
SWIDTH 576 0
DWIDTH 8 0
BBX 7 14 1 0
BITMAP
6C
30
00
00
FE
10
10
10
10
10
10
10
10
10
ENDCHAR
STARTCHAR 0165
ENCODING 357
SWIDTH 576 0
DWIDTH 8 0
BBX 6 11 1 0
BITMAP
0C
28
28
FC
20
20
20
20
20
20
1C
ENDCHAR
STARTCHAR 0166
ENCODING 358
SWIDTH 576 0
DWIDTH 8 0
BBX 7 10 1 0
BITMAP
FE
10
10
10
10
7C
10
10
10
10
ENDCHAR
STARTCHAR 0167
ENCODING 359
SWIDTH 576 0
DWIDTH 8 0
BBX 6 10 1 0
BITMAP
20
20
FC
20
20
FC
20
20
20
1C
ENDCHAR
STARTCHAR 0168
ENCODING 360
SWIDTH 576 0
DWIDTH 8 0
BBX 6 14 1 0
BITMAP
68
58
00
00
C4
C4
C4
C4
C4
C4
C4
C4
4C
78
ENDCHAR
STARTCHAR 0169
ENCODING 361
SWIDTH 576 0
DWIDTH 8 0
BBX 6 11 1 0
BITMAP
68
58
00
C4
C4
C4
C4
C4
C4
4C
78
ENDCHAR
STARTCHAR 016A
ENCODING 362
SWIDTH 576 0
DWIDTH 8 0
BBX 6 13 1 0
BITMAP
78
00
00
C4
C4
C4
C4
C4
C4
C4
C4
4C
78
ENDCHAR
STARTCHAR 016B
ENCODING 363
SWIDTH 576 0
DWIDTH 8 0
BBX 6 11 1 0
BITMAP
78
00
00
C4
C4
C4
C4
C4
C4
4C
78
ENDCHAR
STARTCHAR 016C
ENCODING 364
SWIDTH 576 0
DWIDTH 8 0
BBX 6 14 1 0
BITMAP
48
78
00
00
C4
C4
C4
C4
C4
C4
C4
C4
4C
78
ENDCHAR
STARTCHAR 016D
ENCODING 365
SWIDTH 576 0
DWIDTH 8 0
BBX 6 11 1 0
BITMAP
48
78
00
C4
C4
C4
C4
C4
C4
4C
78
ENDCHAR
STARTCHAR 016E
ENCODING 366
SWIDTH 576 0
DWIDTH 8 0
BBX 6 14 1 0
BITMAP
30
48
38
00
C4
C4
C4
C4
C4
C4
C4
C4
4C
78
ENDCHAR
STARTCHAR 016F
ENCODING 367
SWIDTH 576 0
DWIDTH 8 0
BBX 6 12 1 0
BITMAP
30
48
38
00
C4
C4
C4
C4
C4
C4
4C
78
ENDCHAR
STARTCHAR 0170
ENCODING 368
SWIDTH 576 0
DWIDTH 8 0
BBX 6 14 1 0
BITMAP
34
68
00
00
C4
C4
C4
C4
C4
C4
C4
C4
4C
78
ENDCHAR
STARTCHAR 0171
ENCODING 369
SWIDTH 576 0
DWIDTH 8 0
BBX 6 11 1 0
BITMAP
34
68
00
C4
C4
C4
C4
C4
C4
4C
78
ENDCHAR
STARTCHAR 0172
ENCODING 370
SWIDTH 576 0
DWIDTH 8 0
BBX 6 13 1 -3
BITMAP
C4
C4
C4
C4
C4
C4
C4
C4
4C
78
10
10
18
ENDCHAR
STARTCHAR 0173
ENCODING 371
SWIDTH 576 0
DWIDTH 8 0
BBX 6 11 1 -3
BITMAP
C4
C4
C4
C4
C4
C4
4C
78
10
30
18
ENDCHAR
STARTCHAR 0174
ENCODING 372
SWIDTH 576 0
DWIDTH 8 0
BBX 8 14 0 0
BITMAP
18
36
00
00
99
D9
59
59
55
56
56
66
66
66
ENDCHAR
STARTCHAR 0175
ENCODING 373
SWIDTH 576 0
DWIDTH 8 0
BBX 8 11 0 0
BITMAP
18
36
00
D9
59
59
5A
56
56
66
26
ENDCHAR
STARTCHAR 0176
ENCODING 374
SWIDTH 576 0
DWIDTH 8 0
BBX 8 14 0 0
BITMAP
18
36
00
00
C3
62
26
34
1C
18
08
08
08
08
ENDCHAR
STARTCHAR 0177
ENCODING 375
SWIDTH 576 0
DWIDTH 8 0
BBX 7 14 1 -3
BITMAP
30
6C
00
86
C4
4C
48
68
28
30
30
30
20
60
ENDCHAR
STARTCHAR 0178
ENCODING 376
SWIDTH 576 0
DWIDTH 8 0
BBX 8 14 0 0
BITMAP
24
36
00
00
C3
62
26
34
1C
18
08
08
08
08
ENDCHAR
STARTCHAR 0179
ENCODING 377
SWIDTH 576 0
DWIDTH 8 0
BBX 6 14 1 0
BITMAP
08
30
00
00
FC
04
08
18
10
30
20
40
C0
FC
ENDCHAR
STARTCHAR 017A
ENCODING 378
SWIDTH 576 0
DWIDTH 8 0
BBX 6 11 1 0
BITMAP
08
30
00
FC
0C
08
10
20
60
C0
FC
ENDCHAR
STARTCHAR 017B
ENCODING 379
SWIDTH 576 0
DWIDTH 8 0
BBX 6 14 1 0
BITMAP
30
30
00
00
FC
04
08
18
10
30
20
40
C0
FC
ENDCHAR
STARTCHAR 017C
ENCODING 380
SWIDTH 576 0
DWIDTH 8 0
BBX 6 11 1 0
BITMAP
30
30
00
FC
0C
08
10
20
60
C0
FC
ENDCHAR
STARTCHAR 017D
ENCODING 381
SWIDTH 576 0
DWIDTH 8 0
BBX 6 14 1 0
BITMAP
6C
30
00
00
FC
04
08
18
10
30
20
40
C0
FC
ENDCHAR
STARTCHAR 017E
ENCODING 382
SWIDTH 576 0
DWIDTH 8 0
BBX 6 11 1 0
BITMAP
6C
30
00
FC
0C
08
10
20
60
C0
FC
ENDCHAR
STARTCHAR 017F
ENCODING 383
SWIDTH 576 0
DWIDTH 8 0
BBX 5 10 2 0
BITMAP
78
C0
C0
C0
C0
C0
C0
C0
C0
C0
ENDCHAR
STARTCHAR 018F
ENCODING 399
SWIDTH 576 0
DWIDTH 8 0
BBX 6 10 1 0
BITMAP
78
CC
C4
04
FC
C4
C4
C4
4C
78
ENDCHAR
STARTCHAR 0190
ENCODING 400
SWIDTH 576 0
DWIDTH 8 0
BBX 7 10 1 0
BITMAP
78
C4
C4
40
38
C0
80
86
C4
78
ENDCHAR
STARTCHAR 0192
ENCODING 402
SWIDTH 576 0
DWIDTH 8 0
BBX 7 13 0 -3
BITMAP
0E
10
10
10
10
7E
10
10
10
10
10
10
E0
ENDCHAR
STARTCHAR 019B
ENCODING 411
SWIDTH 576 0
DWIDTH 8 0
BBX 7 10 1 0
BITMAP
2C
38
F0
B0
38
68
48
4C
C4
86
ENDCHAR
STARTCHAR 01A0
ENCODING 416
SWIDTH 576 0
DWIDTH 8 0
BBX 6 12 1 0
BITMAP
04
04
7C
4C
C4
84
84
84
84
C4
4C
78
ENDCHAR
STARTCHAR 01A1
ENCODING 417
SWIDTH 576 0
DWIDTH 8 0
BBX 7 9 1 0
BITMAP
02
7C
CC
84
84
84
84
4C
78
ENDCHAR
STARTCHAR 01AF
ENCODING 431
SWIDTH 576 0
DWIDTH 8 0
BBX 7 12 1 0
BITMAP
02
02
C6
C4
C4
C4
C4
C4
C4
C4
4C
78
ENDCHAR
STARTCHAR 01B0
ENCODING 432
SWIDTH 576 0
DWIDTH 8 0
BBX 7 10 1 0
BITMAP
02
02
C6
C4
C4
C4
C4
C4
4C
78
ENDCHAR
STARTCHAR 01CD
ENCODING 461
SWIDTH 576 0
DWIDTH 8 0
BBX 7 14 1 0
BITMAP
6C
30
00
00
30
30
28
68
48
4C
7C
C4
84
86
ENDCHAR
STARTCHAR 01CE
ENCODING 462
SWIDTH 576 0
DWIDTH 8 0
BBX 6 11 1 0
BITMAP
6C
30
00
78
CC
04
7C
C4
84
CC
74
ENDCHAR
STARTCHAR 01D0
ENCODING 464
SWIDTH 576 0
DWIDTH 8 0
BBX 7 11 1 0
BITMAP
6C
30
00
F0
10
10
10
10
10
10
FE
ENDCHAR
STARTCHAR 01D2
ENCODING 466
SWIDTH 576 0
DWIDTH 8 0
BBX 6 11 1 0
BITMAP
6C
30
00
78
CC
84
84
84
84
4C
78
ENDCHAR
STARTCHAR 01D4
ENCODING 468
SWIDTH 576 0
DWIDTH 8 0
BBX 6 11 1 0
BITMAP
6C
30
00
C4
C4
C4
C4
C4
C4
4C
78
ENDCHAR
STARTCHAR 01D6
ENCODING 470
SWIDTH 576 0
DWIDTH 8 0
BBX 6 14 1 0
BITMAP
78
00
00
48
6C
00
C4
C4
C4
C4
C4
C4
4C
78
ENDCHAR
STARTCHAR 01D8
ENCODING 472
SWIDTH 576 0
DWIDTH 8 0
BBX 6 14 1 0
BITMAP
08
30
00
48
6C
00
C4
C4
C4
C4
C4
C4
4C
78
ENDCHAR
STARTCHAR 01DA
ENCODING 474
SWIDTH 576 0
DWIDTH 8 0
BBX 6 14 1 0
BITMAP
6C
30
00
48
6C
00
C4
C4
C4
C4
C4
C4
4C
78
ENDCHAR
STARTCHAR 01DC
ENCODING 476
SWIDTH 576 0
DWIDTH 8 0
BBX 6 14 1 0
BITMAP
60
30
00
48
6C
00
C4
C4
C4
C4
C4
C4
4C
78
ENDCHAR
STARTCHAR 01E6
ENCODING 486
SWIDTH 576 0
DWIDTH 8 0
BBX 6 14 1 0
BITMAP
6C
30
00
00
78
C4
C0
80
9C
84
84
C4
CC
78
ENDCHAR
STARTCHAR 01E7
ENCODING 487
SWIDTH 576 0
DWIDTH 8 0
BBX 6 14 1 -3
BITMAP
6C
30
00
74
4C
C4
84
84
C4
CC
74
04
0C
78
ENDCHAR
STARTCHAR 01EA
ENCODING 490
SWIDTH 576 0
DWIDTH 8 0
BBX 6 13 1 -3
BITMAP
78
CC
C4
84
84
84
84
C4
CC
78
10
10
18
ENDCHAR
STARTCHAR 01EB
ENCODING 491
SWIDTH 576 0
DWIDTH 8 0
BBX 6 11 1 -3
BITMAP
78
4C
C4
84
84
C4
4C
78
10
30
18
ENDCHAR
STARTCHAR 01F4
ENCODING 500
SWIDTH 576 0
DWIDTH 8 0
BBX 6 14 1 0
BITMAP
08
30
00
00
78
C4
C0
80
9C
84
84
C4
CC
78
ENDCHAR
STARTCHAR 01F5
ENCODING 501
SWIDTH 576 0
DWIDTH 8 0
BBX 6 14 1 -3
BITMAP
18
30
00
74
4C
C4
84
84
C4
CC
74
04
0C
78
ENDCHAR
STARTCHAR 01FC
ENCODING 508
SWIDTH 576 0
DWIDTH 8 0
BBX 8 14 0 0
BITMAP
04
18
00
00
3F
28
28
28
2F
68
78
48
48
CF
ENDCHAR
STARTCHAR 01FD
ENCODING 509
SWIDTH 576 0
DWIDTH 8 0
BBX 8 11 0 0
BITMAP
04
18
00
76
49
09
7F
48
C8
59
76
ENDCHAR
STARTCHAR 01FE
ENCODING 510
SWIDTH 576 0
DWIDTH 8 0
BBX 8 14 0 0
BITMAP
04
18
00
00
3F
66
66
46
4A
5A
52
62
26
FC
ENDCHAR
STARTCHAR 01FF
ENCODING 511
SWIDTH 576 0
DWIDTH 8 0
BBX 8 11 0 0
BITMAP
04
18
01
3E
26
46
4A
52
52
26
FC
ENDCHAR
STARTCHAR 0218
ENCODING 536
SWIDTH 576 0
DWIDTH 8 0
BBX 6 13 1 -3
BITMAP
78
CC
84
C0
70
0C
04
84
CC
78
00
10
20
ENDCHAR
STARTCHAR 0219
ENCODING 537
SWIDTH 576 0
DWIDTH 8 0
BBX 6 11 1 -3
BITMAP
78
C4
C0
78
0C
04
C4
78
00
10
20
ENDCHAR
STARTCHAR 021A
ENCODING 538
SWIDTH 576 0
DWIDTH 8 0
BBX 7 13 1 -3
BITMAP
FE
10
10
10
10
10
10
10
10
10
00
10
20
ENDCHAR
STARTCHAR 021B
ENCODING 539
SWIDTH 576 0
DWIDTH 8 0
BBX 6 13 1 -3
BITMAP
20
20
FC
20
20
20
20
20
20
1C
00
18
30
ENDCHAR
STARTCHAR 0232
ENCODING 562
SWIDTH 576 0
DWIDTH 8 0
BBX 8 13 0 0
BITMAP
3C
00
00
C3
62
26
34
1C
18
08
08
08
08
ENDCHAR
STARTCHAR 0233
ENCODING 563
SWIDTH 576 0
DWIDTH 8 0
BBX 7 14 1 -3
BITMAP
78
00
00
86
C4
4C
48
68
28
30
30
30
20
60
ENDCHAR
STARTCHAR 0237
ENCODING 567
SWIDTH 576 0
DWIDTH 8 0
BBX 5 11 1 -3
BITMAP
F8
08
08
08
08
08
08
08
08
18
F0
ENDCHAR
STARTCHAR 0259
ENCODING 601
SWIDTH 576 0
DWIDTH 8 0
BBX 6 8 1 0
BITMAP
78
CC
04
04
FC
84
4C
78
ENDCHAR
STARTCHAR 02B9
ENCODING 697
SWIDTH 576 0
DWIDTH 8 0
BBX 3 5 2 6
BITMAP
60
60
40
40
C0
ENDCHAR
STARTCHAR 02BA
ENCODING 698
SWIDTH 576 0
DWIDTH 8 0
BBX 7 5 1 6
BITMAP
66
4C
CC
88
88
ENDCHAR
STARTCHAR 02BC
ENCODING 700
SWIDTH 576 0
DWIDTH 8 0
BBX 3 5 2 7
BITMAP
60
60
40
40
C0
ENDCHAR
STARTCHAR 02C6
ENCODING 710
SWIDTH 576 0
DWIDTH 8 0
BBX 5 2 2 9
BITMAP
60
D8
ENDCHAR
STARTCHAR 02C7
ENCODING 711
SWIDTH 576 0
DWIDTH 8 0
BBX 5 2 2 9
BITMAP
D8
60
ENDCHAR
STARTCHAR 02C9
ENCODING 713
SWIDTH 576 0
DWIDTH 8 0
BBX 4 1 2 10
BITMAP
F0
ENDCHAR
STARTCHAR 02D8
ENCODING 728
SWIDTH 576 0
DWIDTH 8 0
BBX 4 2 2 9
BITMAP
90
F0
ENDCHAR
STARTCHAR 02D9
ENCODING 729
SWIDTH 576 0
DWIDTH 8 0
BBX 2 2 3 9
BITMAP
C0
C0
ENDCHAR
STARTCHAR 02DA
ENCODING 730
SWIDTH 576 0
DWIDTH 8 0
BBX 3 3 3 9
BITMAP
C0
A0
E0
ENDCHAR
STARTCHAR 02DB
ENCODING 731
SWIDTH 576 0
DWIDTH 8 0
BBX 2 3 3 -3
BITMAP
C0
80
C0
ENDCHAR
STARTCHAR 02DC
ENCODING 732
SWIDTH 576 0
DWIDTH 8 0
BBX 4 2 2 9
BITMAP
D0
B0
ENDCHAR
STARTCHAR 02DD
ENCODING 733
SWIDTH 576 0
DWIDTH 8 0
BBX 5 2 2 9
BITMAP
68
D0
ENDCHAR
STARTCHAR 02F3
ENCODING 755
SWIDTH 576 0
DWIDTH 8 0
BBX 3 3 3 -4
BITMAP
C0
A0
E0
ENDCHAR
STARTCHAR 02F7
ENCODING 759
SWIDTH 576 0
DWIDTH 8 0
BBX 4 2 2 -3
BITMAP
D0
B0
ENDCHAR
STARTCHAR 0300
ENCODING 768
SWIDTH 0 0
DWIDTH 0 0
BBX 3 2 -6 9
BITMAP
C0
60
ENDCHAR
STARTCHAR 0301
ENCODING 769
SWIDTH 0 0
DWIDTH 0 0
BBX 3 2 -5 9
BITMAP
60
C0
ENDCHAR
STARTCHAR 0302
ENCODING 770
SWIDTH 0 0
DWIDTH 0 0
BBX 5 2 -7 9
BITMAP
30
D8
ENDCHAR
STARTCHAR 0303
ENCODING 771
SWIDTH 0 0
DWIDTH 0 0
BBX 4 2 -6 9
BITMAP
D0
B0
ENDCHAR
STARTCHAR 0304
ENCODING 772
SWIDTH 0 0
DWIDTH 0 0
BBX 4 1 -6 10
BITMAP
F0
ENDCHAR
STARTCHAR 0306
ENCODING 774
SWIDTH 0 0
DWIDTH 0 0
BBX 4 2 -6 9
BITMAP
90
F0
ENDCHAR
STARTCHAR 0307
ENCODING 775
SWIDTH 0 0
DWIDTH 0 0
BBX 2 2 -5 9
BITMAP
C0
C0
ENDCHAR
STARTCHAR 0308
ENCODING 776
SWIDTH 0 0
DWIDTH 0 0
BBX 5 2 -7 9
BITMAP
48
D8
ENDCHAR
STARTCHAR 0309
ENCODING 777
SWIDTH 0 0
DWIDTH 0 0
BBX 2 3 -5 9
BITMAP
C0
40
C0
ENDCHAR
STARTCHAR 030A
ENCODING 778
SWIDTH 0 0
DWIDTH 0 0
BBX 3 3 -6 9
BITMAP
60
A0
E0
ENDCHAR
STARTCHAR 030B
ENCODING 779
SWIDTH 0 0
DWIDTH 0 0
BBX 5 2 -6 9
BITMAP
58
B0
ENDCHAR
STARTCHAR 030C
ENCODING 780
SWIDTH 0 0
DWIDTH 0 0
BBX 5 2 -7 9
BITMAP
D8
30
ENDCHAR
STARTCHAR 030F
ENCODING 783
SWIDTH 0 0
DWIDTH 0 0
BBX 5 2 -7 9
BITMAP
B0
58
ENDCHAR
STARTCHAR 0312
ENCODING 786
SWIDTH 0 0
DWIDTH 0 0
BBX 2 4 -5 9
BITMAP
40
40
C0
80
ENDCHAR
STARTCHAR 031B
ENCODING 795
SWIDTH 0 0
DWIDTH 0 0
BBX 2 3 -3 7
BITMAP
40
40
80
ENDCHAR
STARTCHAR 0323
ENCODING 803
SWIDTH 0 0
DWIDTH 0 0
BBX 2 2 -5 -3
BITMAP
C0
C0
ENDCHAR
STARTCHAR 0325
ENCODING 805
SWIDTH 0 0
DWIDTH 0 0
BBX 3 3 -6 -4
BITMAP
60
A0
E0
ENDCHAR
STARTCHAR 0326
ENCODING 806
SWIDTH 0 0
DWIDTH 0 0
BBX 3 2 -6 -3
BITMAP
60
C0
ENDCHAR
STARTCHAR 0327
ENCODING 807
SWIDTH 0 0
DWIDTH 0 0
BBX 3 3 -6 -3
BITMAP
40
20
E0
ENDCHAR
STARTCHAR 0328
ENCODING 808
SWIDTH 0 0
DWIDTH 0 0
BBX 3 3 -6 -3
BITMAP
40
80
60
ENDCHAR
STARTCHAR 0336
ENCODING 822
SWIDTH 0 0
DWIDTH 0 0
BBX 9 1 -9 4
BITMAP
FF80
ENDCHAR
STARTCHAR 0337
ENCODING 823
SWIDTH 0 0
DWIDTH 0 0
BBX 8 9 -8 0
BITMAP
03
04
04
08
10
30
20
40
C0
ENDCHAR
STARTCHAR 0338
ENCODING 824
SWIDTH 0 0
DWIDTH 0 0
BBX 5 11 -7 -2
BITMAP
08
08
10
10
10
20
20
40
40
40
80
ENDCHAR
STARTCHAR 0374
ENCODING 884
SWIDTH 576 0
DWIDTH 8 0
BBX 3 4 2 6
BITMAP
60
60
40
C0
ENDCHAR
STARTCHAR 0375
ENCODING 885
SWIDTH 576 0
DWIDTH 8 0
BBX 2 4 3 -3
BITMAP
40
C0
C0
80
ENDCHAR
STARTCHAR 037E
ENCODING 894
SWIDTH 576 0
DWIDTH 8 0
BBX 2 11 3 -3
BITMAP
C0
C0
00
00
00
00
00
40
C0
C0
80
ENDCHAR
STARTCHAR 0384
ENCODING 900
SWIDTH 576 0
DWIDTH 8 0
BBX 3 2 3 9
BITMAP
60
C0
ENDCHAR
STARTCHAR 0385
ENCODING 901
SWIDTH 576 0
DWIDTH 8 0
BBX 5 4 2 9
BITMAP
10
20
98
D8
ENDCHAR
STARTCHAR 0386
ENCODING 902
SWIDTH 576 0
DWIDTH 8 0
BBX 8 10 0 0
BITMAP
58
D8
14
34
24
26
3E
62
42
43
ENDCHAR
STARTCHAR 0387
ENCODING 903
SWIDTH 576 0
DWIDTH 8 0
BBX 2 2 3 4
BITMAP
C0
C0
ENDCHAR
STARTCHAR 0388
ENCODING 904
SWIDTH 576 0
DWIDTH 8 0
BBX 9 10 -2 0
BITMAP
5F80
5800
9800
1800
1F80
1800
1800
1800
1800
1F80
ENDCHAR
STARTCHAR 0389
ENCODING 905
SWIDTH 576 0
DWIDTH 8 0
BBX 9 10 -2 0
BITMAP
5880
5880
9880
1880
1F80
1880
1880
1880
1880
1880
ENDCHAR
STARTCHAR 038A
ENCODING 906
SWIDTH 576 0
DWIDTH 8 0
BBX 9 10 -2 0
BITMAP
5F80
4200
8200
0200
0200
0200
0200
0200
0200
1F80
ENDCHAR
STARTCHAR 038C
ENCODING 908
SWIDTH 576 0
DWIDTH 8 0
BBX 8 10 -1 0
BITMAP
DE
93
31
21
21
21
21
31
13
1E
ENDCHAR
STARTCHAR 038E
ENCODING 910
SWIDTH 576 0
DWIDTH 8 0
BBX 10 10 -2 0
BITMAP
70C0
D880
0980
0D00
0700
0600
0200
0200
0200
0200
ENDCHAR
STARTCHAR 038F
ENCODING 911
SWIDTH 576 0
DWIDTH 8 0
BBX 9 10 -1 0
BITMAP
DE00
B300
2100
2100
2100
2100
2100
2100
1B00
3B80
ENDCHAR
STARTCHAR 0390
ENCODING 912
SWIDTH 576 0
DWIDTH 8 0
BBX 7 13 1 0
BITMAP
08
10
4C
6C
00
F0
30
30
30
30
30
10
1E
ENDCHAR
STARTCHAR 0391
ENCODING 913
SWIDTH 576 0
DWIDTH 8 0
BBX 7 10 1 0
BITMAP
30
30
28
68
48
4C
7C
C4
84
86
ENDCHAR
STARTCHAR 0392
ENCODING 914
SWIDTH 576 0
DWIDTH 8 0
BBX 6 10 1 0
BITMAP
F8
CC
C4
C4
F8
CC
C4
C4
C4
F8
ENDCHAR
STARTCHAR 0393
ENCODING 915
SWIDTH 576 0
DWIDTH 8 0
BBX 6 10 2 0
BITMAP
FC
80
80
80
80
80
80
80
80
80
ENDCHAR
STARTCHAR 0394
ENCODING 916
SWIDTH 576 0
DWIDTH 8 0
BBX 7 10 1 0
BITMAP
30
30
28
68
48
4C
44
C4
84
FE
ENDCHAR
STARTCHAR 0395
ENCODING 917
SWIDTH 576 0
DWIDTH 8 0
BBX 6 10 1 0
BITMAP
FC
C0
C0
C0
FC
C0
C0
C0
C0
FC
ENDCHAR
STARTCHAR 0396
ENCODING 918
SWIDTH 576 0
DWIDTH 8 0
BBX 6 10 1 0
BITMAP
FC
04
08
18
10
30
20
40
C0
FC
ENDCHAR
STARTCHAR 0397
ENCODING 919
SWIDTH 576 0
DWIDTH 8 0
BBX 6 10 1 0
BITMAP
C4
C4
C4
C4
FC
C4
C4
C4
C4
C4
ENDCHAR
STARTCHAR 0398
ENCODING 920
SWIDTH 576 0
DWIDTH 8 0
BBX 6 10 1 0
BITMAP
78
CC
C4
84
B4
84
84
C4
CC
78
ENDCHAR
STARTCHAR 0399
ENCODING 921
SWIDTH 576 0
DWIDTH 8 0
BBX 6 10 1 0
BITMAP
FC
10
10
10
10
10
10
10
10
FC
ENDCHAR
STARTCHAR 039A
ENCODING 922
SWIDTH 576 0
DWIDTH 8 0
BBX 7 10 1 0
BITMAP
C6
CC
C8
D8
F0
D8
C8
CC
C4
C6
ENDCHAR
STARTCHAR 039B
ENCODING 923
SWIDTH 576 0
DWIDTH 8 0
BBX 7 10 1 0
BITMAP
30
30
28
68
48
4C
44
C4
84
86
ENDCHAR
STARTCHAR 039C
ENCODING 924
SWIDTH 576 0
DWIDTH 8 0
BBX 6 10 1 0
BITMAP
CC
CC
AC
B4
B4
94
84
84
84
84
ENDCHAR
STARTCHAR 039D
ENCODING 925
SWIDTH 576 0
DWIDTH 8 0
BBX 6 10 1 0
BITMAP
C4
C4
A4
A4
B4
94
94
8C
8C
8C
ENDCHAR
STARTCHAR 039E
ENCODING 926
SWIDTH 576 0
DWIDTH 8 0
BBX 6 10 1 0
BITMAP
FC
00
00
00
7C
00
00
00
00
FC
ENDCHAR
STARTCHAR 039F
ENCODING 927
SWIDTH 576 0
DWIDTH 8 0
BBX 6 10 1 0
BITMAP
78
4C
C4
84
84
84
84
C4
4C
78
ENDCHAR
STARTCHAR 03A0
ENCODING 928
SWIDTH 576 0
DWIDTH 8 0
BBX 6 10 1 0
BITMAP
FC
C4
C4
C4
C4
C4
C4
C4
C4
C4
ENDCHAR
STARTCHAR 03A1
ENCODING 929
SWIDTH 576 0
DWIDTH 8 0
BBX 7 10 1 0
BITMAP
F8
C4
C6
C6
C4
FC
C0
C0
C0
C0
ENDCHAR
STARTCHAR 03A3
ENCODING 931
SWIDTH 576 0
DWIDTH 8 0
BBX 7 10 1 0
BITMAP
FE
C0
60
30
18
10
20
60
C0
FE
ENDCHAR
STARTCHAR 03A4
ENCODING 932
SWIDTH 576 0
DWIDTH 8 0
BBX 7 10 1 0
BITMAP
FE
10
10
10
10
10
10
10
10
10
ENDCHAR
STARTCHAR 03A5
ENCODING 933
SWIDTH 576 0
DWIDTH 8 0
BBX 8 10 0 0
BITMAP
C3
62
26
34
1C
18
08
08
08
08
ENDCHAR
STARTCHAR 03A6
ENCODING 934
SWIDTH 576 0
DWIDTH 8 0
BBX 7 11 1 0
BITMAP
10
7C
D4
92
92
92
92
92
94
7C
10
ENDCHAR
STARTCHAR 03A7
ENCODING 935
SWIDTH 576 0
DWIDTH 8 0
BBX 7 10 1 0
BITMAP
86
4C
48
38
30
30
38
48
C4
86
ENDCHAR
STARTCHAR 03A8
ENCODING 936
SWIDTH 576 0
DWIDTH 8 0
BBX 7 10 1 0
BITMAP
96
96
96
96
96
94
7C
10
10
10
ENDCHAR
STARTCHAR 03A9
ENCODING 937
SWIDTH 576 0
DWIDTH 8 0
BBX 7 10 1 0
BITMAP
78
CC
84
84
84
84
84
84
6C
EE
ENDCHAR
STARTCHAR 03AA
ENCODING 938
SWIDTH 576 0
DWIDTH 8 0
BBX 6 14 1 0
BITMAP
48
6C
00
00
FC
10
10
10
10
10
10
10
10
FC
ENDCHAR
STARTCHAR 03AB
ENCODING 939
SWIDTH 576 0
DWIDTH 8 0
BBX 8 14 0 0
BITMAP
24
36
00
00
C3
62
26
34
1C
18
08
08
08
08
ENDCHAR
STARTCHAR 03AC
ENCODING 940
SWIDTH 576 0
DWIDTH 8 0
BBX 6 12 1 0
BITMAP
08
10
30
00
74
CC
84
84
84
84
CC
74
ENDCHAR
STARTCHAR 03AD
ENCODING 941
SWIDTH 576 0
DWIDTH 8 0
BBX 6 12 1 0
BITMAP
08
10
30
00
78
C4
C0
78
C0
80
C4
7C
ENDCHAR
STARTCHAR 03AE
ENCODING 942
SWIDTH 576 0
DWIDTH 8 0
BBX 6 11 1 0
BITMAP
08
30
00
F8
CC
C4
C4
C4
C4
C4
C4
ENDCHAR
STARTCHAR 03AF
ENCODING 943
SWIDTH 576 0
DWIDTH 8 0
BBX 7 11 1 0
BITMAP
18
30
00
F0
30
30
30
30
30
10
1E
ENDCHAR
STARTCHAR 03B0
ENCODING 944
SWIDTH 576 0
DWIDTH 8 0
BBX 6 13 1 0
BITMAP
08
10
4C
6C
00
C4
C4
C4
C4
C4
C4
4C
78
ENDCHAR
STARTCHAR 03B1
ENCODING 945
SWIDTH 576 0
DWIDTH 8 0
BBX 6 8 1 0
BITMAP
74
CC
84
84
84
84
CC
74
ENDCHAR
STARTCHAR 03B2
ENCODING 946
SWIDTH 576 0
DWIDTH 8 0
BBX 7 13 1 -3
BITMAP
78
4C
C4
CC
D8
C4
C4
C6
C4
F8
C0
C0
C0
ENDCHAR
STARTCHAR 03B3
ENCODING 947
SWIDTH 576 0
DWIDTH 8 0
BBX 7 11 1 -3
BITMAP
86
C4
44
48
68
28
30
30
10
10
10
ENDCHAR
STARTCHAR 03B4
ENCODING 948
SWIDTH 576 0
DWIDTH 8 0
BBX 6 10 1 0
BITMAP
7C
40
70
48
C4
84
84
C4
4C
78
ENDCHAR
STARTCHAR 03B5
ENCODING 949
SWIDTH 576 0
DWIDTH 8 0
BBX 6 8 1 0
BITMAP
7C
C4
C0
78
C0
80
C4
7C
ENDCHAR
STARTCHAR 03B6
ENCODING 950
SWIDTH 576 0
DWIDTH 8 0
BBX 7 13 1 -3
BITMAP
7E
06
08
10
20
40
40
C0
60
3C
06
06
04
ENDCHAR
STARTCHAR 03B7
ENCODING 951
SWIDTH 576 0
DWIDTH 8 0
BBX 6 8 1 0
BITMAP
F8
CC
C4
C4
C4
C4
C4
C4
ENDCHAR
STARTCHAR 03B8
ENCODING 952
SWIDTH 576 0
DWIDTH 8 0
BBX 6 10 1 0
BITMAP
78
4C
84
84
FC
84
84
C4
CC
78
ENDCHAR
STARTCHAR 03B9
ENCODING 953
SWIDTH 576 0
DWIDTH 8 0
BBX 7 8 1 0
BITMAP
F0
30
30
30
30
30
10
1E
ENDCHAR
STARTCHAR 03BA
ENCODING 954
SWIDTH 576 0
DWIDTH 8 0
BBX 7 8 1 0
BITMAP
C6
CC
C8
F0
D8
C8
C4
C6
ENDCHAR
STARTCHAR 03BB
ENCODING 955
SWIDTH 576 0
DWIDTH 8 0
BBX 7 10 1 0
BITMAP
20
20
10
30
38
68
48
4C
C4
86
ENDCHAR
STARTCHAR 03BC
ENCODING 956
SWIDTH 576 0
DWIDTH 8 0
BBX 6 11 1 -3
BITMAP
C4
C4
C4
C4
C4
C4
CC
F4
C0
C0
C0
ENDCHAR
STARTCHAR 03BD
ENCODING 957
SWIDTH 576 0
DWIDTH 8 0
BBX 7 8 1 0
BITMAP
86
C4
44
48
68
28
38
30
ENDCHAR
STARTCHAR 03BE
ENCODING 958
SWIDTH 576 0
DWIDTH 8 0
BBX 7 13 1 -3
BITMAP
38
44
42
40
3C
40
C0
C0
60
3C
04
04
0C
ENDCHAR
STARTCHAR 03BF
ENCODING 959
SWIDTH 576 0
DWIDTH 8 0
BBX 6 8 1 0
BITMAP
78
CC
84
84
84
84
4C
78
ENDCHAR
STARTCHAR 03C0
ENCODING 960
SWIDTH 576 0
DWIDTH 8 0
BBX 8 8 0 0
BITMAP
FF
24
24
24
24
24
26
23
ENDCHAR
STARTCHAR 03C1
ENCODING 961
SWIDTH 576 0
DWIDTH 8 0
BBX 6 11 1 -3
BITMAP
78
4C
C4
C4
C4
C4
CC
F8
C0
C0
C0
ENDCHAR
STARTCHAR 03C2
ENCODING 962
SWIDTH 576 0
DWIDTH 8 0
BBX 6 11 1 -3
BITMAP
78
44
C4
C0
C0
C0
60
3C
04
08
08
ENDCHAR
STARTCHAR 03C3
ENCODING 963
SWIDTH 576 0
DWIDTH 8 0
BBX 7 8 1 0
BITMAP
7E
48
84
84
84
84
4C
78
ENDCHAR
STARTCHAR 03C4
ENCODING 964
SWIDTH 576 0
DWIDTH 8 0
BBX 6 8 1 0
BITMAP
FC
20
20
20
20
20
20
1C
ENDCHAR
STARTCHAR 03C5
ENCODING 965
SWIDTH 576 0
DWIDTH 8 0
BBX 6 8 1 0
BITMAP
C4
C4
C4
C4
C4
C4
4C
78
ENDCHAR
STARTCHAR 03C6
ENCODING 966
SWIDTH 576 0
DWIDTH 8 0
BBX 7 11 1 -3
BITMAP
58
D4
96
96
96
96
D4
78
10
10
10
ENDCHAR
STARTCHAR 03C7
ENCODING 967
SWIDTH 576 0
DWIDTH 8 0
BBX 7 8 1 0
BITMAP
C6
4C
28
30
30
68
4C
C6
ENDCHAR
STARTCHAR 03C8
ENCODING 968
SWIDTH 576 0
DWIDTH 8 0
BBX 7 11 1 -3
BITMAP
96
96
96
96
96
96
94
7C
10
10
10
ENDCHAR
STARTCHAR 03C9
ENCODING 969
SWIDTH 576 0
DWIDTH 8 0
BBX 7 8 1 0
BITMAP
44
84
86
96
96
96
B6
EC
ENDCHAR
STARTCHAR 03CA
ENCODING 970
SWIDTH 576 0
DWIDTH 8 0
BBX 7 11 1 0
BITMAP
48
4C
00
F0
30
30
30
30
30
10
1E
ENDCHAR
STARTCHAR 03CB
ENCODING 971
SWIDTH 576 0
DWIDTH 8 0
BBX 6 11 1 0
BITMAP
48
6C
00
C4
C4
C4
C4
C4
C4
4C
78
ENDCHAR
STARTCHAR 03CC
ENCODING 972
SWIDTH 576 0
DWIDTH 8 0
BBX 6 11 1 0
BITMAP
18
30
00
78
CC
84
84
84
84
4C
78
ENDCHAR
STARTCHAR 03CD
ENCODING 973
SWIDTH 576 0
DWIDTH 8 0
BBX 6 11 1 0
BITMAP
18
30
00
C4
C4
C4
C4
C4
C4
4C
78
ENDCHAR
STARTCHAR 03CE
ENCODING 974
SWIDTH 576 0
DWIDTH 8 0
BBX 7 11 1 0
BITMAP
18
30
00
44
84
86
96
96
96
B6
EC
ENDCHAR
STARTCHAR 03CF
ENCODING 975
SWIDTH 576 0
DWIDTH 8 0
BBX 7 13 1 -3
BITMAP
C6
CC
C8
D8
F0
D8
C8
CC
C4
C6
02
06
0C
ENDCHAR
STARTCHAR 03D5
ENCODING 981
SWIDTH 576 0
DWIDTH 8 0
BBX 7 13 1 -3
BITMAP
10
10
7C
94
96
92
92
96
D4
7C
10
10
10
ENDCHAR
STARTCHAR 03D6
ENCODING 982
SWIDTH 576 0
DWIDTH 8 0
BBX 8 8 0 0
BITMAP
FF
42
43
4B
4B
4B
5B
76
ENDCHAR
STARTCHAR 03D7
ENCODING 983
SWIDTH 576 0
DWIDTH 8 0
BBX 7 11 1 -3
BITMAP
8C
8C
94
94
B4
A4
E4
C6
06
04
0C
ENDCHAR
STARTCHAR 0401
ENCODING 1025
SWIDTH 576 0
DWIDTH 8 0
BBX 6 14 1 0
BITMAP
6C
6C
00
00
FC
C0
C0
C0
FC
C0
C0
C0
C0
FC
ENDCHAR
STARTCHAR 0402
ENCODING 1026
SWIDTH 576 0
DWIDTH 8 0
BBX 7 13 0 -3
BITMAP
F0
20
20
2E
32
22
22
22
22
22
02
02
0C
ENDCHAR
STARTCHAR 0403
ENCODING 1027
SWIDTH 576 0
DWIDTH 8 0
BBX 6 14 2 0
BITMAP
18
20
00
00
FC
80
80
80
80
80
80
80
80
80
ENDCHAR
STARTCHAR 0404
ENCODING 1028
SWIDTH 576 0
DWIDTH 8 0
BBX 6 10 1 0
BITMAP
78
44
C4
C0
F8
C0
C0
C4
4C
78
ENDCHAR
STARTCHAR 0405
ENCODING 1029
SWIDTH 576 0
DWIDTH 8 0
BBX 6 10 1 0
BITMAP
78
CC
84
C0
70
0C
04
84
CC
78
ENDCHAR
STARTCHAR 0406
ENCODING 1030
SWIDTH 576 0
DWIDTH 8 0
BBX 6 10 1 0
BITMAP
FC
10
10
10
10
10
10
10
10
FC
ENDCHAR
STARTCHAR 0407
ENCODING 1031
SWIDTH 576 0
DWIDTH 8 0
BBX 6 14 1 0
BITMAP
48
6C
00
00
FC
10
10
10
10
10
10
10
10
FC
ENDCHAR
STARTCHAR 0408
ENCODING 1032
SWIDTH 576 0
DWIDTH 8 0
BBX 6 10 1 0
BITMAP
04
04
04
04
04
04
04
84
CC
78
ENDCHAR
STARTCHAR 0409
ENCODING 1033
SWIDTH 576 0
DWIDTH 8 0
BBX 8 10 0 0
BITMAP
78
48
48
48
4E
49
49
49
49
CE
ENDCHAR
STARTCHAR 040A
ENCODING 1034
SWIDTH 576 0
DWIDTH 8 0
BBX 7 10 1 0
BITMAP
90
90
90
90
FC
92
92
92
92
9C
ENDCHAR
STARTCHAR 040B
ENCODING 1035
SWIDTH 576 0
DWIDTH 8 0
BBX 7 10 0 0
BITMAP
F0
20
20
2E
32
22
22
22
22
22
ENDCHAR
STARTCHAR 040C
ENCODING 1036
SWIDTH 576 0
DWIDTH 8 0
BBX 7 14 1 0
BITMAP
08
30
00
00
C6
CC
C8
D8
F0
D8
C8
CC
C4
C6
ENDCHAR
STARTCHAR 040E
ENCODING 1038
SWIDTH 576 0
DWIDTH 8 0
BBX 7 14 1 0
BITMAP
48
78
00
00
86
C4
44
48
28
28
30
10
30
20
ENDCHAR
STARTCHAR 040F
ENCODING 1039
SWIDTH 576 0
DWIDTH 8 0
BBX 6 12 1 -2
BITMAP
C4
C4
C4
C4
C4
C4
C4
C4
C4
FC
10
10
ENDCHAR
STARTCHAR 0410
ENCODING 1040
SWIDTH 576 0
DWIDTH 8 0
BBX 7 10 1 0
BITMAP
30
30
28
68
48
4C
7C
C4
84
86
ENDCHAR
STARTCHAR 0411
ENCODING 1041
SWIDTH 576 0
DWIDTH 8 0
BBX 6 10 1 0
BITMAP
FC
C0
C0
C0
F8
CC
C4
C4
CC
F8
ENDCHAR
STARTCHAR 0412
ENCODING 1042
SWIDTH 576 0
DWIDTH 8 0
BBX 6 10 1 0
BITMAP
F8
CC
C4
C4
F8
CC
C4
C4
C4
F8
ENDCHAR
STARTCHAR 0413
ENCODING 1043
SWIDTH 576 0
DWIDTH 8 0
BBX 6 10 2 0
BITMAP
FC
80
80
80
80
80
80
80
80
80
ENDCHAR
STARTCHAR 0414
ENCODING 1044
SWIDTH 576 0
DWIDTH 8 0
BBX 8 12 0 -2
BITMAP
3E
22
22
22
22
22
22
22
42
FF
81
81
ENDCHAR
STARTCHAR 0415
ENCODING 1045
SWIDTH 576 0
DWIDTH 8 0
BBX 6 10 1 0
BITMAP
FC
C0
C0
C0
FC
C0
C0
C0
C0
FC
ENDCHAR
STARTCHAR 0416
ENCODING 1046
SWIDTH 576 0
DWIDTH 8 0
BBX 8 10 0 0
BITMAP
C9
4B
4A
2A
3C
2E
6A
4A
49
C9
ENDCHAR
STARTCHAR 0417
ENCODING 1047
SWIDTH 576 0
DWIDTH 8 0
BBX 6 10 1 0
BITMAP
78
CC
84
04
38
0C
04
84
CC
78
ENDCHAR
STARTCHAR 0418
ENCODING 1048
SWIDTH 576 0
DWIDTH 8 0
BBX 6 10 1 0
BITMAP
8C
8C
8C
94
94
B4
A4
A4
C4
C4
ENDCHAR
STARTCHAR 0419
ENCODING 1049
SWIDTH 576 0
DWIDTH 8 0
BBX 6 14 1 0
BITMAP
48
78
00
00
8C
8C
8C
94
94
B4
A4
A4
C4
C4
ENDCHAR
STARTCHAR 041A
ENCODING 1050
SWIDTH 576 0
DWIDTH 8 0
BBX 7 10 1 0
BITMAP
C6
CC
C8
D8
F0
D8
C8
CC
C4
C6
ENDCHAR
STARTCHAR 041B
ENCODING 1051
SWIDTH 576 0
DWIDTH 8 0
BBX 7 10 0 0
BITMAP
3E
22
22
22
22
22
22
22
62
C2
ENDCHAR
STARTCHAR 041C
ENCODING 1052
SWIDTH 576 0
DWIDTH 8 0
BBX 6 10 1 0
BITMAP
CC
CC
AC
B4
B4
94
84
84
84
84
ENDCHAR
STARTCHAR 041D
ENCODING 1053
SWIDTH 576 0
DWIDTH 8 0
BBX 6 10 1 0
BITMAP
C4
C4
C4
C4
FC
C4
C4
C4
C4
C4
ENDCHAR
STARTCHAR 041E
ENCODING 1054
SWIDTH 576 0
DWIDTH 8 0
BBX 6 10 1 0
BITMAP
78
4C
C4
84
84
84
84
C4
4C
78
ENDCHAR
STARTCHAR 041F
ENCODING 1055
SWIDTH 576 0
DWIDTH 8 0
BBX 6 10 1 0
BITMAP
FC
C4
C4
C4
C4
C4
C4
C4
C4
C4
ENDCHAR
STARTCHAR 0420
ENCODING 1056
SWIDTH 576 0
DWIDTH 8 0
BBX 7 10 1 0
BITMAP
F8
C4
C6
C6
C4
FC
C0
C0
C0
C0
ENDCHAR
STARTCHAR 0421
ENCODING 1057
SWIDTH 576 0
DWIDTH 8 0
BBX 6 10 1 0
BITMAP
78
44
C4
C0
C0
C0
C0
C4
44
78
ENDCHAR
STARTCHAR 0422
ENCODING 1058
SWIDTH 576 0
DWIDTH 8 0
BBX 7 10 1 0
BITMAP
FE
10
10
10
10
10
10
10
10
10
ENDCHAR
STARTCHAR 0423
ENCODING 1059
SWIDTH 576 0
DWIDTH 8 0
BBX 7 10 1 0
BITMAP
86
C4
44
48
28
28
30
10
30
20
ENDCHAR
STARTCHAR 0424
ENCODING 1060
SWIDTH 576 0
DWIDTH 8 0
BBX 7 11 1 0
BITMAP
10
7C
D4
92
92
92
92
92
94
7C
10
ENDCHAR
STARTCHAR 0425
ENCODING 1061
SWIDTH 576 0
DWIDTH 8 0
BBX 7 10 1 0
BITMAP
86
4C
48
38
30
30
38
48
C4
86
ENDCHAR
STARTCHAR 0426
ENCODING 1062
SWIDTH 576 0
DWIDTH 8 0
BBX 7 12 1 -2
BITMAP
C4
C4
C4
C4
C4
C4
C4
C4
C4
FE
02
02
ENDCHAR
STARTCHAR 0427
ENCODING 1063
SWIDTH 576 0
DWIDTH 8 0
BBX 6 10 1 0
BITMAP
84
84
84
84
C4
7C
04
04
04
04
ENDCHAR
STARTCHAR 0428
ENCODING 1064
SWIDTH 576 0
DWIDTH 8 0
BBX 7 10 1 0
BITMAP
96
96
96
96
96
96
96
96
96
FE
ENDCHAR
STARTCHAR 0429
ENCODING 1065
SWIDTH 576 0
DWIDTH 8 0
BBX 7 12 1 -2
BITMAP
94
94
94
94
94
94
94
94
94
FE
02
02
ENDCHAR
STARTCHAR 042A
ENCODING 1066
SWIDTH 576 0
DWIDTH 8 0
BBX 8 10 0 0
BITMAP
E0
20
20
20
3C
22
23
23
22
3C
ENDCHAR
STARTCHAR 042B
ENCODING 1067
SWIDTH 576 0
DWIDTH 8 0
BBX 7 10 1 0
BITMAP
86
86
86
86
E6
96
96
96
96
E6
ENDCHAR
STARTCHAR 042C
ENCODING 1068
SWIDTH 576 0
DWIDTH 8 0
BBX 7 10 1 0
BITMAP
C0
C0
C0
C0
F8
C4
C6
C6
C4
F8
ENDCHAR
STARTCHAR 042D
ENCODING 1069
SWIDTH 576 0
DWIDTH 8 0
BBX 6 10 1 0
BITMAP
78
CC
84
04
3C
04
04
84
CC
78
ENDCHAR
STARTCHAR 042E
ENCODING 1070
SWIDTH 576 0
DWIDTH 8 0
BBX 7 10 1 0
BITMAP
9C
B6
A2
A2
E2
A2
A2
A2
B6
9C
ENDCHAR
STARTCHAR 042F
ENCODING 1071
SWIDTH 576 0
DWIDTH 8 0
BBX 6 10 1 0
BITMAP
7C
C4
84
C4
7C
24
64
44
C4
84
ENDCHAR
STARTCHAR 0430
ENCODING 1072
SWIDTH 576 0
DWIDTH 8 0
BBX 6 8 1 0
BITMAP
78
CC
04
7C
C4
84
CC
74
ENDCHAR
STARTCHAR 0431
ENCODING 1073
SWIDTH 576 0
DWIDTH 8 0
BBX 6 11 1 0
BITMAP
3C
60
C0
B8
CC
C4
84
84
C4
4C
78
ENDCHAR
STARTCHAR 0432
ENCODING 1074
SWIDTH 576 0
DWIDTH 8 0
BBX 6 8 1 0
BITMAP
FC
C4
C4
F8
C4
C4
C4
F8
ENDCHAR
STARTCHAR 0433
ENCODING 1075
SWIDTH 576 0
DWIDTH 8 0
BBX 5 8 2 0
BITMAP
F8
80
80
80
80
80
80
80
ENDCHAR
STARTCHAR 0434
ENCODING 1076
SWIDTH 576 0
DWIDTH 8 0
BBX 8 10 0 -2
BITMAP
3E
22
22
22
22
22
62
FF
C1
C1
ENDCHAR
STARTCHAR 0435
ENCODING 1077
SWIDTH 576 0
DWIDTH 8 0
BBX 6 8 1 0
BITMAP
78
4C
84
FC
80
80
4C
78
ENDCHAR
STARTCHAR 0436
ENCODING 1078
SWIDTH 576 0
DWIDTH 8 0
BBX 8 8 0 0
BITMAP
C9
4A
6A
3C
2A
4A
4B
C9
ENDCHAR
STARTCHAR 0437
ENCODING 1079
SWIDTH 576 0
DWIDTH 8 0
BBX 6 8 1 0
BITMAP
78
C4
04
38
04
04
C4
78
ENDCHAR
STARTCHAR 0438
ENCODING 1080
SWIDTH 576 0
DWIDTH 8 0
BBX 6 8 1 0
BITMAP
8C
8C
94
94
B4
A4
E4
C4
ENDCHAR
STARTCHAR 0439
ENCODING 1081
SWIDTH 576 0
DWIDTH 8 0
BBX 6 11 1 0
BITMAP
48
78
00
8C
8C
94
94
B4
A4
E4
C4
ENDCHAR
STARTCHAR 043A
ENCODING 1082
SWIDTH 576 0
DWIDTH 8 0
BBX 7 8 1 0
BITMAP
C6
CC
C8
F0
D8
C8
C4
C6
ENDCHAR
STARTCHAR 043B
ENCODING 1083
SWIDTH 576 0
DWIDTH 8 0
BBX 7 8 0 0
BITMAP
3E
22
22
22
22
22
62
C2
ENDCHAR
STARTCHAR 043C
ENCODING 1084
SWIDTH 576 0
DWIDTH 8 0
BBX 6 8 1 0
BITMAP
C4
CC
AC
B4
B4
84
84
84
ENDCHAR
STARTCHAR 043D
ENCODING 1085
SWIDTH 576 0
DWIDTH 8 0
BBX 6 8 1 0
BITMAP
C4
C4
C4
FC
C4
C4
C4
C4
ENDCHAR
STARTCHAR 043E
ENCODING 1086
SWIDTH 576 0
DWIDTH 8 0
BBX 6 8 1 0
BITMAP
78
CC
84
84
84
84
4C
78
ENDCHAR
STARTCHAR 043F
ENCODING 1087
SWIDTH 576 0
DWIDTH 8 0
BBX 6 8 1 0
BITMAP
FC
C4
C4
C4
C4
C4
C4
C4
ENDCHAR
STARTCHAR 0440
ENCODING 1088
SWIDTH 576 0
DWIDTH 8 0
BBX 6 11 1 -3
BITMAP
F8
CC
C4
C4
C4
C4
CC
F8
C0
C0
C0
ENDCHAR
STARTCHAR 0441
ENCODING 1089
SWIDTH 576 0
DWIDTH 8 0
BBX 6 8 1 0
BITMAP
78
44
C4
80
80
C4
4C
78
ENDCHAR
STARTCHAR 0442
ENCODING 1090
SWIDTH 576 0
DWIDTH 8 0
BBX 7 8 1 0
BITMAP
FE
10
10
10
10
10
10
10
ENDCHAR
STARTCHAR 0443
ENCODING 1091
SWIDTH 576 0
DWIDTH 8 0
BBX 7 11 1 -3
BITMAP
86
C4
4C
48
68
28
30
30
30
20
60
ENDCHAR
STARTCHAR 0444
ENCODING 1092
SWIDTH 576 0
DWIDTH 8 0
BBX 7 13 1 -3
BITMAP
10
10
7C
94
96
92
92
96
D4
7C
10
10
10
ENDCHAR
STARTCHAR 0445
ENCODING 1093
SWIDTH 576 0
DWIDTH 8 0
BBX 7 8 1 0
BITMAP
C6
4C
28
30
30
68
4C
C6
ENDCHAR
STARTCHAR 0446
ENCODING 1094
SWIDTH 576 0
DWIDTH 8 0
BBX 7 10 1 -2
BITMAP
C4
C4
C4
C4
C4
C4
C4
FE
02
02
ENDCHAR
STARTCHAR 0447
ENCODING 1095
SWIDTH 576 0
DWIDTH 8 0
BBX 6 8 1 0
BITMAP
84
84
84
C4
7C
04
04
04
ENDCHAR
STARTCHAR 0448
ENCODING 1096
SWIDTH 576 0
DWIDTH 8 0
BBX 7 8 1 0
BITMAP
96
96
96
96
96
96
96
FE
ENDCHAR
STARTCHAR 0449
ENCODING 1097
SWIDTH 576 0
DWIDTH 8 0
BBX 7 10 1 -2
BITMAP
94
94
94
94
94
94
94
FE
02
02
ENDCHAR
STARTCHAR 044A
ENCODING 1098
SWIDTH 576 0
DWIDTH 8 0
BBX 8 8 0 0
BITMAP
F0
30
30
3E
33
31
33
3E
ENDCHAR
STARTCHAR 044B
ENCODING 1099
SWIDTH 576 0
DWIDTH 8 0
BBX 7 8 1 0
BITMAP
86
86
86
E6
96
96
96
F6
ENDCHAR
STARTCHAR 044C
ENCODING 1100
SWIDTH 576 0
DWIDTH 8 0
BBX 7 8 1 0
BITMAP
C0
C0
C0
FC
C6
C6
C6
FC
ENDCHAR
STARTCHAR 044D
ENCODING 1101
SWIDTH 576 0
DWIDTH 8 0
BBX 6 8 1 0
BITMAP
78
CC
04
3C
04
84
CC
78
ENDCHAR
STARTCHAR 044E
ENCODING 1102
SWIDTH 576 0
DWIDTH 8 0
BBX 7 8 1 0
BITMAP
9C
B6
A2
E2
A2
A2
96
9C
ENDCHAR
STARTCHAR 044F
ENCODING 1103
SWIDTH 576 0
DWIDTH 8 0
BBX 6 8 1 0
BITMAP
7C
C4
84
C4
7C
24
44
C4
ENDCHAR
STARTCHAR 0451
ENCODING 1105
SWIDTH 576 0
DWIDTH 8 0
BBX 6 11 1 0
BITMAP
48
6C
00
78
4C
84
FC
80
80
4C
78
ENDCHAR
STARTCHAR 0452
ENCODING 1106
SWIDTH 576 0
DWIDTH 8 0
BBX 7 13 0 -3
BITMAP
60
F8
60
7C
66
62
62
62
62
62
02
06
1C
ENDCHAR
STARTCHAR 0453
ENCODING 1107
SWIDTH 576 0
DWIDTH 8 0
BBX 5 11 2 0
BITMAP
18
20
00
F8
80
80
80
80
80
80
80
ENDCHAR
STARTCHAR 0454
ENCODING 1108
SWIDTH 576 0
DWIDTH 8 0
BBX 6 8 1 0
BITMAP
78
44
80
F0
80
C4
4C
78
ENDCHAR
STARTCHAR 0455
ENCODING 1109
SWIDTH 576 0
DWIDTH 8 0
BBX 6 8 1 0
BITMAP
78
C4
C0
78
0C
04
C4
78
ENDCHAR
STARTCHAR 0456
ENCODING 1110
SWIDTH 576 0
DWIDTH 8 0
BBX 7 11 1 0
BITMAP
10
30
00
F0
10
10
10
10
10
10
FE
ENDCHAR
STARTCHAR 0457
ENCODING 1111
SWIDTH 576 0
DWIDTH 8 0
BBX 7 11 1 0
BITMAP
6C
6C
00
F0
10
10
10
10
10
10
FE
ENDCHAR
STARTCHAR 0458
ENCODING 1112
SWIDTH 576 0
DWIDTH 8 0
BBX 5 14 1 -3
BITMAP
08
18
00
F8
08
08
08
08
08
08
08
08
18
F0
ENDCHAR
STARTCHAR 0459
ENCODING 1113
SWIDTH 576 0
DWIDTH 8 0
BBX 8 8 0 0
BITMAP
78
48
48
4E
49
49
49
CE
ENDCHAR
STARTCHAR 045A
ENCODING 1114
SWIDTH 576 0
DWIDTH 8 0
BBX 7 8 1 0
BITMAP
90
90
90
FC
92
92
92
9C
ENDCHAR
STARTCHAR 045B
ENCODING 1115
SWIDTH 576 0
DWIDTH 8 0
BBX 7 10 0 0
BITMAP
60
F8
60
7C
66
62
62
62
62
62
ENDCHAR
STARTCHAR 045C
ENCODING 1116
SWIDTH 576 0
DWIDTH 8 0
BBX 7 11 1 0
BITMAP
08
30
00
C6
CC
C8
F0
D8
C8
C4
C6
ENDCHAR
STARTCHAR 045E
ENCODING 1118
SWIDTH 576 0
DWIDTH 8 0
BBX 7 14 1 -3
BITMAP
48
78
00
86
C4
4C
48
68
28
30
30
30
20
60
ENDCHAR
STARTCHAR 045F
ENCODING 1119
SWIDTH 576 0
DWIDTH 8 0
BBX 6 10 1 -2
BITMAP
C4
C4
C4
C4
C4
C4
C4
FC
10
10
ENDCHAR
STARTCHAR 0490
ENCODING 1168
SWIDTH 576 0
DWIDTH 8 0
BBX 6 12 2 0
BITMAP
04
04
FC
80
80
80
80
80
80
80
80
80
ENDCHAR
STARTCHAR 0491
ENCODING 1169
SWIDTH 576 0
DWIDTH 8 0
BBX 5 10 2 0
BITMAP
08
08
F8
80
80
80
80
80
80
80
ENDCHAR
STARTCHAR 0492
ENCODING 1170
SWIDTH 576 0
DWIDTH 8 0
BBX 8 10 0 0
BITMAP
3F
20
20
20
F8
20
20
20
20
20
ENDCHAR
STARTCHAR 0493
ENCODING 1171
SWIDTH 576 0
DWIDTH 8 0
BBX 7 8 1 0
BITMAP
7E
40
40
F8
40
40
40
40
ENDCHAR
STARTCHAR 049A
ENCODING 1178
SWIDTH 576 0
DWIDTH 8 0
BBX 7 12 1 -2
BITMAP
86
8C
88
98
F0
90
88
88
84
86
02
02
ENDCHAR
STARTCHAR 049B
ENCODING 1179
SWIDTH 576 0
DWIDTH 8 0
BBX 7 10 1 -2
BITMAP
C6
CC
D8
F0
D8
C8
CC
C6
02
02
ENDCHAR
STARTCHAR 04A2
ENCODING 1186
SWIDTH 576 0
DWIDTH 8 0
BBX 7 12 1 -2
BITMAP
C4
C4
C4
C4
FC
C4
C4
C4
C4
C6
02
02
ENDCHAR
STARTCHAR 04A3
ENCODING 1187
SWIDTH 576 0
DWIDTH 8 0
BBX 7 10 1 -2
BITMAP
C4
C4
C4
FC
C4
C4
C4
C6
02
02
ENDCHAR
STARTCHAR 04AE
ENCODING 1198
SWIDTH 576 0
DWIDTH 8 0
BBX 8 10 0 0
BITMAP
C3
62
26
34
1C
18
08
08
08
08
ENDCHAR
STARTCHAR 04AF
ENCODING 1199
SWIDTH 576 0
DWIDTH 8 0
BBX 7 11 1 -3
BITMAP
86
C4
44
48
68
28
30
30
10
10
10
ENDCHAR
STARTCHAR 04B0
ENCODING 1200
SWIDTH 576 0
DWIDTH 8 0
BBX 8 10 0 0
BITMAP
C3
62
26
34
1C
18
3E
08
08
08
ENDCHAR
STARTCHAR 04B1
ENCODING 1201
SWIDTH 576 0
DWIDTH 8 0
BBX 7 11 1 -3
BITMAP
86
C4
4C
48
68
28
30
30
7C
10
10
ENDCHAR
STARTCHAR 04B6
ENCODING 1206
SWIDTH 576 0
DWIDTH 8 0
BBX 7 12 1 -2
BITMAP
84
84
84
84
84
7C
04
04
04
06
06
06
ENDCHAR
STARTCHAR 04B7
ENCODING 1207
SWIDTH 576 0
DWIDTH 8 0
BBX 7 10 1 -2
BITMAP
84
84
84
84
7C
04
04
06
06
06
ENDCHAR
STARTCHAR 04BA
ENCODING 1210
SWIDTH 576 0
DWIDTH 8 0
BBX 6 10 1 0
BITMAP
C0
C0
C0
F8
C4
C4
C4
C4
C4
C4
ENDCHAR
STARTCHAR 04BB
ENCODING 1211
SWIDTH 576 0
DWIDTH 8 0
BBX 6 8 1 0
BITMAP
C0
C0
C0
F8
C4
C4
C4
C4
ENDCHAR
STARTCHAR 04D8
ENCODING 1240
SWIDTH 576 0
DWIDTH 8 0
BBX 6 10 1 0
BITMAP
78
CC
84
04
FC
84
84
84
CC
78
ENDCHAR
STARTCHAR 04D9
ENCODING 1241
SWIDTH 576 0
DWIDTH 8 0
BBX 6 8 1 0
BITMAP
78
CC
04
04
FC
84
C4
78
ENDCHAR
STARTCHAR 04DC
ENCODING 1244
SWIDTH 576 0
DWIDTH 8 0
BBX 8 14 0 0
BITMAP
24
36
00
00
C9
4B
4A
2A
3C
2E
6A
4A
49
C9
ENDCHAR
STARTCHAR 04DD
ENCODING 1245
SWIDTH 576 0
DWIDTH 8 0
BBX 8 11 0 0
BITMAP
24
36
00
C9
4A
6A
3C
2A
4A
4B
C9
ENDCHAR
STARTCHAR 04DE
ENCODING 1246
SWIDTH 576 0
DWIDTH 8 0
BBX 6 14 1 0
BITMAP
48
6C
00
00
78
CC
84
04
38
0C
04
84
CC
78
ENDCHAR
STARTCHAR 04DF
ENCODING 1247
SWIDTH 576 0
DWIDTH 8 0
BBX 6 11 1 0
BITMAP
48
6C
00
78
C4
04
38
04
04
C4
78
ENDCHAR
STARTCHAR 04E4
ENCODING 1252
SWIDTH 576 0
DWIDTH 8 0
BBX 6 14 1 0
BITMAP
48
6C
00
00
8C
8C
8C
94
94
B4
A4
A4
C4
C4
ENDCHAR
STARTCHAR 04E5
ENCODING 1253
SWIDTH 576 0
DWIDTH 8 0
BBX 6 11 1 0
BITMAP
48
6C
00
8C
8C
94
94
B4
A4
E4
C4
ENDCHAR
STARTCHAR 04E6
ENCODING 1254
SWIDTH 576 0
DWIDTH 8 0
BBX 6 14 1 0
BITMAP
48
6C
00
00
78
4C
C4
84
84
84
84
C4
4C
78
ENDCHAR
STARTCHAR 04E7
ENCODING 1255
SWIDTH 576 0
DWIDTH 8 0
BBX 6 11 1 0
BITMAP
48
6C
00
78
CC
84
84
84
84
4C
78
ENDCHAR
STARTCHAR 04E8
ENCODING 1256
SWIDTH 576 0
DWIDTH 8 0
BBX 6 10 1 0
BITMAP
78
4C
C4
C4
FC
C4
C4
C4
4C
78
ENDCHAR
STARTCHAR 04E9
ENCODING 1257
SWIDTH 576 0
DWIDTH 8 0
BBX 6 8 1 0
BITMAP
78
4C
84
FC
84
C4
4C
78
ENDCHAR
STARTCHAR 04F4
ENCODING 1268
SWIDTH 576 0
DWIDTH 8 0
BBX 6 14 1 0
BITMAP
48
6C
00
00
84
84
84
84
C4
7C
04
04
04
04
ENDCHAR
STARTCHAR 04F5
ENCODING 1269
SWIDTH 576 0
DWIDTH 8 0
BBX 6 11 1 0
BITMAP
48
6C
00
84
84
84
C4
7C
04
04
04
ENDCHAR
STARTCHAR 0AEA
ENCODING 2794
SWIDTH 576 0
DWIDTH 8 0
BBX 6 9 1 0
BITMAP
C4
68
30
30
48
C4
84
C4
78
ENDCHAR
STARTCHAR 1E80
ENCODING 7808
SWIDTH 576 0
DWIDTH 8 0
BBX 8 14 0 0
BITMAP
30
18
00
00
99
D9
59
59
55
56
56
66
66
66
ENDCHAR
STARTCHAR 1E81
ENCODING 7809
SWIDTH 576 0
DWIDTH 8 0
BBX 8 11 0 0
BITMAP
30
18
00
D9
59
59
5A
56
56
66
26
ENDCHAR
STARTCHAR 1E82
ENCODING 7810
SWIDTH 576 0
DWIDTH 8 0
BBX 8 14 0 0
BITMAP
04
18
00
00
99
D9
59
59
55
56
56
66
66
66
ENDCHAR
STARTCHAR 1E83
ENCODING 7811
SWIDTH 576 0
DWIDTH 8 0
BBX 8 11 0 0
BITMAP
04
18
00
D9
59
59
5A
56
56
66
26
ENDCHAR
STARTCHAR 1E84
ENCODING 7812
SWIDTH 576 0
DWIDTH 8 0
BBX 8 14 0 0
BITMAP
24
36
00
00
99
D9
59
59
55
56
56
66
66
66
ENDCHAR
STARTCHAR 1E85
ENCODING 7813
SWIDTH 576 0
DWIDTH 8 0
BBX 8 11 0 0
BITMAP
24
36
00
D9
59
59
5A
56
56
66
26
ENDCHAR
STARTCHAR 1E9E
ENCODING 7838
SWIDTH 576 0
DWIDTH 8 0
BBX 7 10 1 0
BITMAP
7C
44
C8
D8
DC
C4
C6
C6
C4
D8
ENDCHAR
STARTCHAR 1EA0
ENCODING 7840
SWIDTH 576 0
DWIDTH 8 0
BBX 7 13 1 -3
BITMAP
30
30
28
68
48
4C
7C
C4
84
86
00
30
30
ENDCHAR
STARTCHAR 1EA1
ENCODING 7841
SWIDTH 576 0
DWIDTH 8 0
BBX 6 11 1 -3
BITMAP
78
CC
04
7C
C4
84
CC
74
00
30
30
ENDCHAR
STARTCHAR 1EA2
ENCODING 7842
SWIDTH 576 0
DWIDTH 8 0
BBX 7 14 1 0
BITMAP
30
18
10
00
30
30
28
68
48
4C
7C
C4
84
86
ENDCHAR
STARTCHAR 1EA3
ENCODING 7843
SWIDTH 576 0
DWIDTH 8 0
BBX 6 12 1 0
BITMAP
38
08
10
00
78
CC
04
7C
C4
84
CC
74
ENDCHAR
STARTCHAR 1EA4
ENCODING 7844
SWIDTH 576 0
DWIDTH 8 0
BBX 8 15 1 0
BITMAP
03
06
34
6C
00
30
30
28
68
48
4C
7C
C4
84
86
ENDCHAR
STARTCHAR 1EA5
ENCODING 7845
SWIDTH 576 0
DWIDTH 8 0
BBX 8 13 1 0
BITMAP
03
02
34
6C
00
78
CC
04
7C
C4
84
CC
74
ENDCHAR
STARTCHAR 1EA6
ENCODING 7846
SWIDTH 576 0
DWIDTH 8 0
BBX 7 14 1 0
BITMAP
08
36
6C
00
30
30
28
68
48
4C
7C
C4
84
86
ENDCHAR
STARTCHAR 1EA7
ENCODING 7847
SWIDTH 576 0
DWIDTH 8 0
BBX 7 13 1 0
BITMAP
08
04
32
6C
00
78
CC
04
7C
C4
84
CC
74
ENDCHAR
STARTCHAR 1EA8
ENCODING 7848
SWIDTH 576 0
DWIDTH 8 0
BBX 7 15 1 0
BITMAP
06
02
3C
4C
00
30
30
28
68
48
4C
7C
C4
84
86
ENDCHAR
STARTCHAR 1EA9
ENCODING 7849
SWIDTH 576 0
DWIDTH 8 0
BBX 7 13 1 0
BITMAP
06
02
34
68
04
78
CC
04
7C
C4
84
CC
74
ENDCHAR
STARTCHAR 1EAA
ENCODING 7850
SWIDTH 576 0
DWIDTH 8 0
BBX 7 14 1 0
BITMAP
7C
10
68
04
30
30
28
68
48
4C
7C
C4
84
86
ENDCHAR
STARTCHAR 1EAB
ENCODING 7851
SWIDTH 576 0
DWIDTH 8 0
BBX 6 13 1 0
BITMAP
64
58
30
68
04
78
CC
04
7C
C4
84
CC
74
ENDCHAR
STARTCHAR 1EAC
ENCODING 7852
SWIDTH 576 0
DWIDTH 8 0
BBX 7 17 1 -3
BITMAP
30
6C
00
00
30
30
28
68
48
4C
7C
C4
84
86
00
30
30
ENDCHAR
STARTCHAR 1EAD
ENCODING 7853
SWIDTH 576 0
DWIDTH 8 0
BBX 6 14 1 -3
BITMAP
30
6C
00
78
CC
04
7C
C4
84
CC
74
00
30
30
ENDCHAR
STARTCHAR 1EAE
ENCODING 7854
SWIDTH 576 0
DWIDTH 8 0
BBX 7 15 1 0
BITMAP
08
10
6C
38
00
30
30
28
68
48
4C
7C
C4
84
86
ENDCHAR
STARTCHAR 1EAF
ENCODING 7855
SWIDTH 576 0
DWIDTH 8 0
BBX 6 13 1 0
BITMAP
08
10
64
38
00
78
CC
04
7C
C4
84
CC
74
ENDCHAR
STARTCHAR 1EB0
ENCODING 7856
SWIDTH 576 0
DWIDTH 8 0
BBX 7 15 1 0
BITMAP
60
30
4C
38
00
30
30
28
68
48
4C
7C
C4
84
86
ENDCHAR
STARTCHAR 1EB1
ENCODING 7857
SWIDTH 576 0
DWIDTH 8 0
BBX 6 13 1 0
BITMAP
60
20
54
38
00
78
CC
04
7C
C4
84
CC
74
ENDCHAR
STARTCHAR 1EB2
ENCODING 7858
SWIDTH 576 0
DWIDTH 8 0
BBX 7 14 1 0
BITMAP
30
14
78
00
30
30
28
68
48
4C
7C
C4
84
86
ENDCHAR
STARTCHAR 1EB3
ENCODING 7859
SWIDTH 576 0
DWIDTH 8 0
BBX 6 13 1 0
BITMAP
30
10
44
78
00
78
CC
04
7C
C4
84
CC
74
ENDCHAR
STARTCHAR 1EB4
ENCODING 7860
SWIDTH 576 0
DWIDTH 8 0
BBX 7 14 1 0
BITMAP
7C
44
78
00
30
30
28
68
48
4C
7C
C4
84
86
ENDCHAR
STARTCHAR 1EB5
ENCODING 7861
SWIDTH 576 0
DWIDTH 8 0
BBX 6 13 1 0
BITMAP
64
58
44
38
00
78
CC
04
7C
C4
84
CC
74
ENDCHAR
STARTCHAR 1EB6
ENCODING 7862
SWIDTH 576 0
DWIDTH 8 0
BBX 7 17 1 -3
BITMAP
48
78
00
00
30
30
28
68
48
4C
7C
C4
84
86
00
30
30
ENDCHAR
STARTCHAR 1EB7
ENCODING 7863
SWIDTH 576 0
DWIDTH 8 0
BBX 6 14 1 -3
BITMAP
4C
38
00
78
CC
04
7C
C4
84
CC
74
00
30
30
ENDCHAR
STARTCHAR 1EB8
ENCODING 7864
SWIDTH 576 0
DWIDTH 8 0
BBX 6 13 1 -3
BITMAP
FC
C0
C0
C0
FC
C0
C0
C0
C0
FC
00
10
30
ENDCHAR
STARTCHAR 1EB9
ENCODING 7865
SWIDTH 576 0
DWIDTH 8 0
BBX 6 11 1 -3
BITMAP
78
4C
84
FC
80
80
4C
78
00
30
30
ENDCHAR
STARTCHAR 1EBA
ENCODING 7866
SWIDTH 576 0
DWIDTH 8 0
BBX 6 14 1 0
BITMAP
30
08
10
00
FC
C0
C0
C0
FC
C0
C0
C0
C0
FC
ENDCHAR
STARTCHAR 1EBB
ENCODING 7867
SWIDTH 576 0
DWIDTH 8 0
BBX 6 12 1 0
BITMAP
30
08
10
00
78
4C
84
FC
80
80
4C
78
ENDCHAR
STARTCHAR 1EBC
ENCODING 7868
SWIDTH 576 0
DWIDTH 8 0
BBX 6 14 1 0
BITMAP
64
58
00
00
FC
C0
C0
C0
FC
C0
C0
C0
C0
FC
ENDCHAR
STARTCHAR 1EBD
ENCODING 7869
SWIDTH 576 0
DWIDTH 8 0
BBX 6 11 1 0
BITMAP
68
58
00
78
4C
84
FC
80
80
4C
78
ENDCHAR
STARTCHAR 1EBE
ENCODING 7870
SWIDTH 576 0
DWIDTH 8 0
BBX 8 15 1 0
BITMAP
03
02
34
6C
00
FC
C0
C0
C0
FC
C0
C0
C0
C0
FC
ENDCHAR
STARTCHAR 1EBF
ENCODING 7871
SWIDTH 576 0
DWIDTH 8 0
BBX 8 13 1 0
BITMAP
03
02
34
6C
00
78
4C
84
FC
80
80
4C
78
ENDCHAR
STARTCHAR 1EC0
ENCODING 7872
SWIDTH 576 0
DWIDTH 8 0
BBX 7 14 1 0
BITMAP
0C
36
6C
00
FC
C0
C0
C0
FC
C0
C0
C0
C0
FC
ENDCHAR
STARTCHAR 1EC1
ENCODING 7873
SWIDTH 576 0
DWIDTH 8 0
BBX 7 13 1 0
BITMAP
18
04
32
6C
00
78
4C
84
FC
80
80
4C
78
ENDCHAR
STARTCHAR 1EC2
ENCODING 7874
SWIDTH 576 0
DWIDTH 8 0
BBX 7 15 1 0
BITMAP
06
02
3C
4C
00
FC
C0
C0
C0
FC
C0
C0
C0
C0
FC
ENDCHAR
STARTCHAR 1EC3
ENCODING 7875
SWIDTH 576 0
DWIDTH 8 0
BBX 7 13 1 0
BITMAP
06
02
34
68
04
78
4C
84
FC
80
80
4C
78
ENDCHAR
STARTCHAR 1EC4
ENCODING 7876
SWIDTH 576 0
DWIDTH 8 0
BBX 6 14 1 0
BITMAP
7C
10
6C
00
FC
C0
C0
C0
FC
C0
C0
C0
C0
FC
ENDCHAR
STARTCHAR 1EC5
ENCODING 7877
SWIDTH 576 0
DWIDTH 8 0
BBX 6 13 1 0
BITMAP
68
58
30
78
04
78
4C
84
FC
80
80
4C
78
ENDCHAR
STARTCHAR 1EC6
ENCODING 7878
SWIDTH 576 0
DWIDTH 8 0
BBX 6 17 1 -3
BITMAP
30
6C
00
00
FC
C0
C0
C0
FC
C0
C0
C0
C0
FC
00
10
30
ENDCHAR
STARTCHAR 1EC7
ENCODING 7879
SWIDTH 576 0
DWIDTH 8 0
BBX 6 14 1 -3
BITMAP
30
6C
00
78
4C
84
FC
80
80
4C
78
00
30
30
ENDCHAR
STARTCHAR 1EC8
ENCODING 7880
SWIDTH 576 0
DWIDTH 8 0
BBX 6 14 1 0
BITMAP
30
18
10
00
FC
10
10
10
10
10
10
10
10
FC
ENDCHAR
STARTCHAR 1EC9
ENCODING 7881
SWIDTH 576 0
DWIDTH 8 0
BBX 7 12 1 0
BITMAP
38
08
10
00
F0
10
10
10
10
10
10
FE
ENDCHAR
STARTCHAR 1ECA
ENCODING 7882
SWIDTH 576 0
DWIDTH 8 0
BBX 6 13 1 -3
BITMAP
FC
10
10
10
10
10
10
10
10
FC
00
30
30
ENDCHAR
STARTCHAR 1ECB
ENCODING 7883
SWIDTH 576 0
DWIDTH 8 0
BBX 7 14 1 -3
BITMAP
10
30
00
F0
10
10
10
10
10
10
FE
00
10
30
ENDCHAR
STARTCHAR 1ECC
ENCODING 7884
SWIDTH 576 0
DWIDTH 8 0
BBX 6 13 1 -3
BITMAP
78
4C
C4
84
84
84
84
C4
4C
78
00
30
30
ENDCHAR
STARTCHAR 1ECD
ENCODING 7885
SWIDTH 576 0
DWIDTH 8 0
BBX 6 11 1 -3
BITMAP
78
CC
84
84
84
84
4C
78
00
30
30
ENDCHAR
STARTCHAR 1ECE
ENCODING 7886
SWIDTH 576 0
DWIDTH 8 0
BBX 6 14 1 0
BITMAP
30
18
10
00
78
4C
C4
84
84
84
84
C4
4C
78
ENDCHAR
STARTCHAR 1ECF
ENCODING 7887
SWIDTH 576 0
DWIDTH 8 0
BBX 6 12 1 0
BITMAP
30
08
10
00
78
CC
84
84
84
84
4C
78
ENDCHAR
STARTCHAR 1ED0
ENCODING 7888
SWIDTH 576 0
DWIDTH 8 0
BBX 8 15 1 0
BITMAP
03
06
34
6C
00
78
4C
C4
84
84
84
84
C4
4C
78
ENDCHAR
STARTCHAR 1ED1
ENCODING 7889
SWIDTH 576 0
DWIDTH 8 0
BBX 8 13 1 0
BITMAP
03
02
34
6C
00
78
CC
84
84
84
84
4C
78
ENDCHAR
STARTCHAR 1ED2
ENCODING 7890
SWIDTH 576 0
DWIDTH 8 0
BBX 7 14 1 0
BITMAP
08
36
6C
00
78
4C
C4
84
84
84
84
C4
4C
78
ENDCHAR
STARTCHAR 1ED3
ENCODING 7891
SWIDTH 576 0
DWIDTH 8 0
BBX 7 13 1 0
BITMAP
18
04
32
6C
00
78
CC
84
84
84
84
4C
78
ENDCHAR
STARTCHAR 1ED4
ENCODING 7892
SWIDTH 576 0
DWIDTH 8 0
BBX 7 15 1 0
BITMAP
06
02
3C
4C
00
78
4C
C4
84
84
84
84
C4
4C
78
ENDCHAR
STARTCHAR 1ED5
ENCODING 7893
SWIDTH 576 0
DWIDTH 8 0
BBX 7 13 1 0
BITMAP
06
02
34
68
04
78
CC
84
84
84
84
4C
78
ENDCHAR
STARTCHAR 1ED6
ENCODING 7894
SWIDTH 576 0
DWIDTH 8 0
BBX 6 14 1 0
BITMAP
7C
10
68
04
78
4C
C4
84
84
84
84
C4
4C
78
ENDCHAR
STARTCHAR 1ED7
ENCODING 7895
SWIDTH 576 0
DWIDTH 8 0
BBX 6 13 1 0
BITMAP
68
58
30
78
04
78
CC
84
84
84
84
4C
78
ENDCHAR
STARTCHAR 1ED8
ENCODING 7896
SWIDTH 576 0
DWIDTH 8 0
BBX 6 17 1 -3
BITMAP
30
6C
00
00
78
4C
C4
84
84
84
84
C4
4C
78
00
30
30
ENDCHAR
STARTCHAR 1ED9
ENCODING 7897
SWIDTH 576 0
DWIDTH 8 0
BBX 6 14 1 -3
BITMAP
30
6C
00
78
CC
84
84
84
84
4C
78
00
30
30
ENDCHAR
STARTCHAR 1EDA
ENCODING 7898
SWIDTH 576 0
DWIDTH 8 0
BBX 6 14 1 0
BITMAP
18
30
04
04
7C
4C
C4
84
84
84
84
C4
4C
78
ENDCHAR
STARTCHAR 1EDB
ENCODING 7899
SWIDTH 576 0
DWIDTH 8 0
BBX 7 11 1 0
BITMAP
18
30
02
7C
CC
84
84
84
84
4C
78
ENDCHAR
STARTCHAR 1EDC
ENCODING 7900
SWIDTH 576 0
DWIDTH 8 0
BBX 6 14 1 0
BITMAP
60
30
04
04
7C
4C
C4
84
84
84
84
C4
4C
78
ENDCHAR
STARTCHAR 1EDD
ENCODING 7901
SWIDTH 576 0
DWIDTH 8 0
BBX 7 11 1 0
BITMAP
60
30
02
7C
CC
84
84
84
84
4C
78
ENDCHAR
STARTCHAR 1EDE
ENCODING 7902
SWIDTH 576 0
DWIDTH 8 0
BBX 6 14 1 0
BITMAP
30
10
34
04
7C
4C
C4
84
84
84
84
C4
4C
78
ENDCHAR
STARTCHAR 1EDF
ENCODING 7903
SWIDTH 576 0
DWIDTH 8 0
BBX 7 12 1 0
BITMAP
30
10
30
02
7C
CC
84
84
84
84
4C
78
ENDCHAR
STARTCHAR 1EE0
ENCODING 7904
SWIDTH 576 0
DWIDTH 8 0
BBX 6 14 1 0
BITMAP
68
58
04
04
7C
4C
C4
84
84
84
84
C4
4C
78
ENDCHAR
STARTCHAR 1EE1
ENCODING 7905
SWIDTH 576 0
DWIDTH 8 0
BBX 7 11 1 0
BITMAP
68
58
02
7C
CC
84
84
84
84
4C
78
ENDCHAR
STARTCHAR 1EE2
ENCODING 7906
SWIDTH 576 0
DWIDTH 8 0
BBX 6 15 1 -3
BITMAP
04
04
7C
4C
C4
84
84
84
84
C4
4C
78
00
30
30
ENDCHAR
STARTCHAR 1EE3
ENCODING 7907
SWIDTH 576 0
DWIDTH 8 0
BBX 7 12 1 -3
BITMAP
02
7C
CC
84
84
84
84
4C
78
00
30
30
ENDCHAR
STARTCHAR 1EE4
ENCODING 7908
SWIDTH 576 0
DWIDTH 8 0
BBX 6 13 1 -3
BITMAP
C4
C4
C4
C4
C4
C4
C4
C4
4C
78
00
30
30
ENDCHAR
STARTCHAR 1EE5
ENCODING 7909
SWIDTH 576 0
DWIDTH 8 0
BBX 6 11 1 -3
BITMAP
C4
C4
C4
C4
C4
C4
4C
78
00
30
30
ENDCHAR
STARTCHAR 1EE6
ENCODING 7910
SWIDTH 576 0
DWIDTH 8 0
BBX 6 14 1 0
BITMAP
30
18
10
00
C4
C4
C4
C4
C4
C4
C4
C4
4C
78
ENDCHAR
STARTCHAR 1EE7
ENCODING 7911
SWIDTH 576 0
DWIDTH 8 0
BBX 6 12 1 0
BITMAP
30
08
10
00
C4
C4
C4
C4
C4
C4
4C
78
ENDCHAR
STARTCHAR 1EE8
ENCODING 7912
SWIDTH 576 0
DWIDTH 8 0
BBX 7 14 1 0
BITMAP
08
30
02
02
C6
C4
C4
C4
C4
C4
C4
C4
4C
78
ENDCHAR
STARTCHAR 1EE9
ENCODING 7913
SWIDTH 576 0
DWIDTH 8 0
BBX 7 11 1 0
BITMAP
08
32
02
C6
C4
C4
C4
C4
C4
4C
78
ENDCHAR
STARTCHAR 1EEA
ENCODING 7914
SWIDTH 576 0
DWIDTH 8 0
BBX 7 14 1 0
BITMAP
60
30
02
02
C6
C4
C4
C4
C4
C4
C4
C4
4C
78
ENDCHAR
STARTCHAR 1EEB
ENCODING 7915
SWIDTH 576 0
DWIDTH 8 0
BBX 7 11 1 0
BITMAP
60
32
02
C6
C4
C4
C4
C4
C4
4C
78
ENDCHAR
STARTCHAR 1EEC
ENCODING 7916
SWIDTH 576 0
DWIDTH 8 0
BBX 7 14 1 0
BITMAP
30
18
12
02
C6
C4
C4
C4
C4
C4
C4
C4
4C
78
ENDCHAR
STARTCHAR 1EED
ENCODING 7917
SWIDTH 576 0
DWIDTH 8 0
BBX 7 12 1 0
BITMAP
30
08
12
02
C6
C4
C4
C4
C4
C4
4C
78
ENDCHAR
STARTCHAR 1EEE
ENCODING 7918
SWIDTH 576 0
DWIDTH 8 0
BBX 7 14 1 0
BITMAP
68
58
02
02
C6
C4
C4
C4
C4
C4
C4
C4
4C
78
ENDCHAR
STARTCHAR 1EEF
ENCODING 7919
SWIDTH 576 0
DWIDTH 8 0
BBX 7 11 1 0
BITMAP
68
5A
02
C6
C4
C4
C4
C4
C4
4C
78
ENDCHAR
STARTCHAR 1EF0
ENCODING 7920
SWIDTH 576 0
DWIDTH 8 0
BBX 7 15 1 -3
BITMAP
02
02
C6
C4
C4
C4
C4
C4
C4
C4
4C
78
00
30
30
ENDCHAR
STARTCHAR 1EF1
ENCODING 7921
SWIDTH 576 0
DWIDTH 8 0
BBX 7 13 1 -3
BITMAP
02
02
C6
C4
C4
C4
C4
C4
4C
78
00
30
30
ENDCHAR
STARTCHAR 1EF2
ENCODING 7922
SWIDTH 576 0
DWIDTH 8 0
BBX 8 14 0 0
BITMAP
30
18
00
00
C3
62
26
34
1C
18
08
08
08
08
ENDCHAR
STARTCHAR 1EF3
ENCODING 7923
SWIDTH 576 0
DWIDTH 8 0
BBX 7 14 1 -3
BITMAP
60
30
00
86
C4
4C
48
68
28
30
30
30
20
60
ENDCHAR
STARTCHAR 1EF4
ENCODING 7924
SWIDTH 576 0
DWIDTH 8 0
BBX 8 13 0 -3
BITMAP
C3
62
26
34
1C
18
08
08
08
08
00
18
18
ENDCHAR
STARTCHAR 1EF5
ENCODING 7925
SWIDTH 576 0
DWIDTH 8 0
BBX 7 11 1 -3
BITMAP
86
C4
4C
48
68
28
30
30
30
24
6C
ENDCHAR
STARTCHAR 1EF6
ENCODING 7926
SWIDTH 576 0
DWIDTH 8 0
BBX 8 14 0 0
BITMAP
18
0C
08
00
C3
62
26
34
1C
18
08
08
08
08
ENDCHAR
STARTCHAR 1EF7
ENCODING 7927
SWIDTH 576 0
DWIDTH 8 0
BBX 7 15 1 -3
BITMAP
30
08
10
00
86
C4
4C
48
68
28
30
30
30
20
60
ENDCHAR
STARTCHAR 1EF8
ENCODING 7928
SWIDTH 576 0
DWIDTH 8 0
BBX 8 14 0 0
BITMAP
34
2C
00
00
C3
62
26
34
1C
18
08
08
08
08
ENDCHAR
STARTCHAR 1EF9
ENCODING 7929
SWIDTH 576 0
DWIDTH 8 0
BBX 7 14 1 -3
BITMAP
68
58
00
86
C4
4C
48
68
28
30
30
30
20
60
ENDCHAR
STARTCHAR 2001
ENCODING 8193
SWIDTH 576 0
DWIDTH 8 0
BBX 0 0 0 0
BITMAP
ENDCHAR
STARTCHAR 200B
ENCODING 8203
SWIDTH 576 0
DWIDTH 8 0
BBX 0 0 0 0
BITMAP
ENDCHAR
STARTCHAR 2010
ENCODING 8208
SWIDTH 576 0
DWIDTH 8 0
BBX 4 1 2 4
BITMAP
F0
ENDCHAR
STARTCHAR 2013
ENCODING 8211
SWIDTH 576 0
DWIDTH 8 0
BBX 6 1 1 4
BITMAP
FC
ENDCHAR
STARTCHAR 2014
ENCODING 8212
SWIDTH 576 0
DWIDTH 8 0
BBX 8 1 0 4
BITMAP
FF
ENDCHAR
STARTCHAR 2016
ENCODING 8214
SWIDTH 576 0
DWIDTH 8 0
BBX 5 14 2 -2
BITMAP
98
98
98
98
98
98
98
98
98
98
98
98
98
98
ENDCHAR
STARTCHAR 2018
ENCODING 8216
SWIDTH 576 0
DWIDTH 8 0
BBX 2 4 3 6
BITMAP
40
C0
80
C0
ENDCHAR
STARTCHAR 2019
ENCODING 8217
SWIDTH 576 0
DWIDTH 8 0
BBX 2 4 3 5
BITMAP
C0
40
40
C0
ENDCHAR
STARTCHAR 201A
ENCODING 8218
SWIDTH 576 0
DWIDTH 8 0
BBX 2 4 3 -3
BITMAP
C0
40
40
C0
ENDCHAR
STARTCHAR 201B
ENCODING 8219
SWIDTH 576 0
DWIDTH 8 0
BBX 2 4 3 6
BITMAP
C0
80
C0
40
ENDCHAR
STARTCHAR 201C
ENCODING 8220
SWIDTH 576 0
DWIDTH 8 0
BBX 6 4 1 6
BITMAP
6C
48
C8
6C
ENDCHAR
STARTCHAR 201D
ENCODING 8221
SWIDTH 576 0
DWIDTH 8 0
BBX 6 4 1 5
BITMAP
6C
24
6C
C8
ENDCHAR
STARTCHAR 201E
ENCODING 8222
SWIDTH 576 0
DWIDTH 8 0
BBX 6 4 1 -3
BITMAP
6C
24
64
CC
ENDCHAR
STARTCHAR 201F
ENCODING 8223
SWIDTH 576 0
DWIDTH 8 0
BBX 6 4 1 6
BITMAP
6C
C8
48
6C
ENDCHAR
STARTCHAR 2020
ENCODING 8224
SWIDTH 576 0
DWIDTH 8 0
BBX 6 13 1 -1
BITMAP
10
10
10
FC
10
10
10
10
10
10
10
10
10
ENDCHAR
STARTCHAR 2021
ENCODING 8225
SWIDTH 576 0
DWIDTH 8 0
BBX 6 14 1 -2
BITMAP
10
10
10
10
FC
10
10
10
10
FC
10
10
10
10
ENDCHAR
STARTCHAR 2022
ENCODING 8226
SWIDTH 576 0
DWIDTH 8 0
BBX 3 3 3 4
BITMAP
C0
E0
C0
ENDCHAR
STARTCHAR 2024
ENCODING 8228
SWIDTH 576 0
DWIDTH 8 0
BBX 2 2 3 0
BITMAP
C0
C0
ENDCHAR
STARTCHAR 2026
ENCODING 8230
SWIDTH 576 0
DWIDTH 8 0
BBX 7 3 1 0
BITMAP
94
B6
96
ENDCHAR
STARTCHAR 2030
ENCODING 8240
SWIDTH 576 0
DWIDTH 8 0
BBX 9 10 0 0
BITMAP
E200
A400
A800
E800
1000
1000
2F00
5280
5280
8F00
ENDCHAR
STARTCHAR 2032
ENCODING 8242
SWIDTH 576 0
DWIDTH 8 0
BBX 2 4 3 5
BITMAP
40
C0
C0
80
ENDCHAR
STARTCHAR 2033
ENCODING 8243
SWIDTH 576 0
DWIDTH 8 0
BBX 6 4 1 5
BITMAP
6C
4C
48
C8
ENDCHAR
STARTCHAR 2034
ENCODING 8244
SWIDTH 576 0
DWIDTH 8 0
BBX 8 4 0 5
BITMAP
6B
4B
5A
D2
ENDCHAR
STARTCHAR 2039
ENCODING 8249
SWIDTH 576 0
DWIDTH 8 0
BBX 4 7 2 1
BITMAP
30
20
40
80
40
20
30
ENDCHAR
STARTCHAR 203A
ENCODING 8250
SWIDTH 576 0
DWIDTH 8 0
BBX 4 7 2 1
BITMAP
C0
60
30
10
30
60
C0
ENDCHAR
STARTCHAR 203C
ENCODING 8252
SWIDTH 576 0
DWIDTH 8 0
BBX 6 10 1 0
BITMAP
4C
4C
4C
4C
4C
4C
48
00
00
EC
ENDCHAR
STARTCHAR 203D
ENCODING 8253
SWIDTH 576 0
DWIDTH 8 0
BBX 5 10 2 0
BITMAP
F0
18
48
58
70
40
40
00
00
60
ENDCHAR
STARTCHAR 203E
ENCODING 8254
SWIDTH 576 0
DWIDTH 8 0
BBX 9 1 0 11
BITMAP
FF80
ENDCHAR
STARTCHAR 203F
ENCODING 8255
SWIDTH 576 0
DWIDTH 8 0
BBX 8 3 0 -3
BITMAP
81
C1
7E
ENDCHAR
STARTCHAR 2044
ENCODING 8260
SWIDTH 576 0
DWIDTH 8 0
BBX 8 10 0 0
BITMAP
01
02
06
04
08
10
10
20
40
C0
ENDCHAR
STARTCHAR 2045
ENCODING 8261
SWIDTH 576 0
DWIDTH 8 0
BBX 3 13 3 -1
BITMAP
E0
80
80
80
80
80
E0
80
80
80
80
80
E0
ENDCHAR
STARTCHAR 2046
ENCODING 8262
SWIDTH 576 0
DWIDTH 8 0
BBX 4 13 2 -1
BITMAP
F0
30
30
30
30
30
F0
30
30
30
30
30
F0
ENDCHAR
STARTCHAR 2070
ENCODING 8304
SWIDTH 576 0
DWIDTH 8 0
BBX 4 7 2 5
BITMAP
70
90
90
90
90
90
70
ENDCHAR
STARTCHAR 2074
ENCODING 8308
SWIDTH 576 0
DWIDTH 8 0
BBX 4 7 2 5
BITMAP
30
20
40
50
90
F0
10
ENDCHAR
STARTCHAR 2075
ENCODING 8309
SWIDTH 576 0
DWIDTH 8 0
BBX 4 7 2 5
BITMAP
F0
80
80
F0
10
90
70
ENDCHAR
STARTCHAR 2076
ENCODING 8310
SWIDTH 576 0
DWIDTH 8 0
BBX 5 7 2 5
BITMAP
20
40
40
F0
98
90
70
ENDCHAR
STARTCHAR 2077
ENCODING 8311
SWIDTH 576 0
DWIDTH 8 0
BBX 4 7 2 5
BITMAP
F0
90
10
20
20
20
40
ENDCHAR
STARTCHAR 2078
ENCODING 8312
SWIDTH 576 0
DWIDTH 8 0
BBX 5 7 2 5
BITMAP
70
90
90
60
90
98
70
ENDCHAR
STARTCHAR 2079
ENCODING 8313
SWIDTH 576 0
DWIDTH 8 0
BBX 4 7 2 5
BITMAP
70
90
90
90
70
20
60
ENDCHAR
STARTCHAR 207A
ENCODING 8314
SWIDTH 576 0
DWIDTH 8 0
BBX 4 4 2 4
BITMAP
20
20
F0
20
ENDCHAR
STARTCHAR 207C
ENCODING 8316
SWIDTH 576 0
DWIDTH 8 0
BBX 4 3 2 6
BITMAP
F0
00
F0
ENDCHAR
STARTCHAR 2080
ENCODING 8320
SWIDTH 576 0
DWIDTH 8 0
BBX 4 7 2 -2
BITMAP
70
90
90
90
90
90
70
ENDCHAR
STARTCHAR 2081
ENCODING 8321
SWIDTH 576 0
DWIDTH 8 0
BBX 5 7 2 -2
BITMAP
60
A0
20
20
20
20
F8
ENDCHAR
STARTCHAR 2082
ENCODING 8322
SWIDTH 576 0
DWIDTH 8 0
BBX 4 7 2 -2
BITMAP
70
90
10
10
20
40
F0
ENDCHAR
STARTCHAR 2083
ENCODING 8323
SWIDTH 576 0
DWIDTH 8 0
BBX 4 7 2 -2
BITMAP
F0
10
20
10
10
90
70
ENDCHAR
STARTCHAR 2084
ENCODING 8324
SWIDTH 576 0
DWIDTH 8 0
BBX 4 7 2 -2
BITMAP
30
20
40
50
90
F0
10
ENDCHAR
STARTCHAR 2085
ENCODING 8325
SWIDTH 576 0
DWIDTH 8 0
BBX 4 7 2 -2
BITMAP
F0
80
80
F0
10
90
70
ENDCHAR
STARTCHAR 2086
ENCODING 8326
SWIDTH 576 0
DWIDTH 8 0
BBX 5 7 2 -2
BITMAP
20
40
40
F0
98
90
70
ENDCHAR
STARTCHAR 2087
ENCODING 8327
SWIDTH 576 0
DWIDTH 8 0
BBX 4 7 2 -2
BITMAP
F0
90
10
20
20
20
40
ENDCHAR
STARTCHAR 2088
ENCODING 8328
SWIDTH 576 0
DWIDTH 8 0
BBX 5 7 2 -2
BITMAP
70
90
90
60
90
98
70
ENDCHAR
STARTCHAR 2089
ENCODING 8329
SWIDTH 576 0
DWIDTH 8 0
BBX 4 7 2 -2
BITMAP
70
90
90
90
70
20
60
ENDCHAR
STARTCHAR 20AB
ENCODING 8363
SWIDTH 576 0
DWIDTH 8 0
BBX 7 11 1 -1
BITMAP
04
1E
04
74
CC
C4
C4
CC
74
00
FC
ENDCHAR
STARTCHAR 20AC
ENCODING 8364
SWIDTH 576 0
DWIDTH 8 0
BBX 7 10 0 0
BITMAP
3C
62
60
F8
60
F8
60
62
26
3C
ENDCHAR
STARTCHAR 20AE
ENCODING 8366
SWIDTH 576 0
DWIDTH 8 0
BBX 7 10 1 0
BITMAP
FE
10
10
14
78
90
1C
F0
10
10
ENDCHAR
STARTCHAR 20B4
ENCODING 8372
SWIDTH 576 0
DWIDTH 8 0
BBX 7 10 1 0
BITMAP
78
C4
0C
FE
00
FE
40
C4
CC
78
ENDCHAR
STARTCHAR 20BD
ENCODING 8381
SWIDTH 576 0
DWIDTH 8 0
BBX 8 10 0 0
BITMAP
3E
22
23
23
FE
20
20
FC
20
20
ENDCHAR
STARTCHAR 20BF
ENCODING 8383
SWIDTH 576 0
DWIDTH 8 0
BBX 6 15 1 -2
BITMAP
50
50
50
F8
CC
C4
C4
F8
CC
C4
C4
C4
F8
50
50
ENDCHAR
STARTCHAR 2102
ENCODING 8450
SWIDTH 576 0
DWIDTH 8 0
BBX 6 11 1 0
BITMAP
38
44
C4
C0
C0
C0
C0
C0
C4
44
38
ENDCHAR
STARTCHAR 210D
ENCODING 8461
SWIDTH 576 0
DWIDTH 8 0
BBX 6 11 1 0
BITMAP
CC
CC
CC
CC
CC
FC
CC
CC
CC
CC
CC
ENDCHAR
STARTCHAR 2113
ENCODING 8467
SWIDTH 576 0
DWIDTH 8 0
BBX 6 10 1 0
BITMAP
38
6C
64
64
6C
78
E0
60
64
38
ENDCHAR
STARTCHAR 2115
ENCODING 8469
SWIDTH 576 0
DWIDTH 8 0
BBX 6 11 1 0
BITMAP
C4
A4
A4
D4
D4
B4
AC
9C
94
8C
8C
ENDCHAR
STARTCHAR 2116
ENCODING 8470
SWIDTH 576 0
DWIDTH 8 0
BBX 8 10 0 0
BITMAP
CB
CB
CB
AB
AB
AB
A8
98
98
98
ENDCHAR
STARTCHAR 2119
ENCODING 8473
SWIDTH 576 0
DWIDTH 8 0
BBX 7 11 1 0
BITMAP
F8
CC
CA
CA
CC
F8
C0
C0
C0
C0
C0
ENDCHAR
STARTCHAR 211A
ENCODING 8474
SWIDTH 576 0
DWIDTH 8 0
BBX 6 13 1 -2
BITMAP
38
4C
CC
CC
CC
CC
CC
CC
CC
4C
38
08
04
ENDCHAR
STARTCHAR 211D
ENCODING 8477
SWIDTH 576 0
DWIDTH 8 0
BBX 7 11 1 0
BITMAP
F8
CC
CA
CA
CC
F8
D8
D4
D4
CA
C6
ENDCHAR
STARTCHAR 2122
ENCODING 8482
SWIDTH 576 0
DWIDTH 8 0
BBX 8 5 0 5
BITMAP
FD
2F
2B
29
29
ENDCHAR
STARTCHAR 2124
ENCODING 8484
SWIDTH 576 0
DWIDTH 8 0
BBX 6 11 1 0
BITMAP
FC
0C
14
18
28
30
50
50
60
A0
FC
ENDCHAR
STARTCHAR 212E
ENCODING 8494
SWIDTH 576 0
DWIDTH 8 0
BBX 7 11 1 0
BITMAP
38
44
84
86
86
FE
80
80
80
C4
38
ENDCHAR
STARTCHAR 2140
ENCODING 8512
SWIDTH 576 0
DWIDTH 8 0
BBX 7 13 1 -3
BITMAP
FE
A0
60
50
30
28
14
28
30
50
60
A0
FE
ENDCHAR
STARTCHAR 218A
ENCODING 8586
SWIDTH 576 0
DWIDTH 8 0
BBX 6 10 1 0
BITMAP
FC
0C
18
30
60
40
C0
84
CC
78
ENDCHAR
STARTCHAR 218B
ENCODING 8587
SWIDTH 576 0
DWIDTH 8 0
BBX 6 10 1 0
BITMAP
78
44
C4
C0
C0
70
10
20
40
7C
ENDCHAR
STARTCHAR 2190
ENCODING 8592
SWIDTH 576 0
DWIDTH 8 0
BBX 8 8 0 0
BITMAP
18
20
40
FF
40
20
30
18
ENDCHAR
STARTCHAR 2191
ENCODING 8593
SWIDTH 576 0
DWIDTH 8 0
BBX 7 10 1 0
BITMAP
30
78
D6
92
10
10
10
10
10
10
ENDCHAR
STARTCHAR 2192
ENCODING 8594
SWIDTH 576 0
DWIDTH 8 0
BBX 8 8 0 1
BITMAP
08
04
06
03
FF
02
06
0C
ENDCHAR
STARTCHAR 2193
ENCODING 8595
SWIDTH 576 0
DWIDTH 8 0
BBX 7 10 1 0
BITMAP
10
10
10
10
10
10
92
D4
78
30
ENDCHAR
STARTCHAR 2194
ENCODING 8596
SWIDTH 576 0
DWIDTH 8 0
BBX 11 8 -1 0
BITMAP
3300
2180
40C0
FFE0
40C0
6080
3100
1300
ENDCHAR
STARTCHAR 2195
ENCODING 8597
SWIDTH 576 0
DWIDTH 8 0
BBX 7 15 1 -2
BITMAP
10
30
5C
96
92
10
10
10
10
10
10
92
D6
78
30
ENDCHAR
STARTCHAR 2196
ENCODING 8598
SWIDTH 576 0
DWIDTH 8 0
BBX 7 7 1 3
BITMAP
FC
C0
E0
B0
98
8C
86
ENDCHAR
STARTCHAR 2197
ENCODING 8599
SWIDTH 576 0
DWIDTH 8 0
BBX 7 7 1 3
BITMAP
FE
0E
1E
36
66
C6
84
ENDCHAR
STARTCHAR 2198
ENCODING 8600
SWIDTH 576 0
DWIDTH 8 0
BBX 7 7 1 0
BITMAP
80
C4
66
36
1E
0E
FE
ENDCHAR
STARTCHAR 2199
ENCODING 8601
SWIDTH 576 0
DWIDTH 8 0
BBX 7 7 1 0
BITMAP
04
86
88
90
A0
C0
FC
ENDCHAR
STARTCHAR 219D
ENCODING 8605
SWIDTH 576 0
DWIDTH 8 0
BBX 8 4 0 2
BITMAP
0F
63
95
9D
ENDCHAR
STARTCHAR 219E
ENCODING 8606
SWIDTH 576 0
DWIDTH 8 0
BBX 8 5 0 1
BITMAP
24
48
FF
48
64
ENDCHAR
STARTCHAR 21A0
ENCODING 8608
SWIDTH 576 0
DWIDTH 8 0
BBX 8 5 0 1
BITMAP
36
1B
FF
09
36
ENDCHAR
STARTCHAR 21A2
ENCODING 8610
SWIDTH 576 0
DWIDTH 8 0
BBX 8 5 0 1
BITMAP
23
42
FC
46
63
ENDCHAR
STARTCHAR 21A3
ENCODING 8611
SWIDTH 576 0
DWIDTH 8 0
BBX 8 5 0 1
BITMAP
C6
63
3F
21
C6
ENDCHAR
STARTCHAR 21A5
ENCODING 8613
SWIDTH 576 0
DWIDTH 8 0
BBX 5 7 2 0
BITMAP
70
B8
A8
20
20
20
F8
ENDCHAR
STARTCHAR 21A6
ENCODING 8614
SWIDTH 576 0
DWIDTH 8 0
BBX 8 5 0 1
BITMAP
86
83
FF
81
86
ENDCHAR
STARTCHAR 21A7
ENCODING 8615
SWIDTH 576 0
DWIDTH 8 0
BBX 5 8 2 0
BITMAP
F8
20
20
20
A8
A8
F0
20
ENDCHAR
STARTCHAR 21A9
ENCODING 8617
SWIDTH 576 0
DWIDTH 8 0
BBX 8 8 0 2
BITMAP
0E
03
01
31
43
FE
40
30
ENDCHAR
STARTCHAR 21AA
ENCODING 8618
SWIDTH 576 0
DWIDTH 8 0
BBX 8 8 0 2
BITMAP
30
40
80
84
C2
7F
02
06
ENDCHAR
STARTCHAR 21AD
ENCODING 8621
SWIDTH 576 0
DWIDTH 8 0
BBX 8 5 0 1
BITMAP
66
59
E7
43
26
ENDCHAR
STARTCHAR 21BE
ENCODING 8638
SWIDTH 576 0
DWIDTH 8 0
BBX 3 14 4 -2
BITMAP
80
80
C0
A0
80
80
80
80
80
80
80
80
80
80
ENDCHAR
STARTCHAR 21C9
ENCODING 8649
SWIDTH 576 0
DWIDTH 8 0
BBX 8 9 0 -1
BITMAP
02
01
FF
01
02
03
FF
01
02
ENDCHAR
STARTCHAR 21D0
ENCODING 8656
SWIDTH 576 0
DWIDTH 8 0
BBX 8 8 0 1
BITMAP
18
30
7F
C0
C0
7F
20
18
ENDCHAR
STARTCHAR 21D1
ENCODING 8657
SWIDTH 576 0
DWIDTH 8 0
BBX 9 14 0 -2
BITMAP
2400
6600
A500
A480
2400
2400
2400
2400
2400
2400
2400
2400
2400
2400
ENDCHAR
STARTCHAR 21D2
ENCODING 8658
SWIDTH 576 0
DWIDTH 8 0
BBX 8 8 0 1
BITMAP
0C
06
FE
03
01
FE
04
0C
ENDCHAR
STARTCHAR 21D3
ENCODING 8659
SWIDTH 576 0
DWIDTH 8 0
BBX 9 14 0 -2
BITMAP
2400
2400
2400
2400
2400
2400
2400
2400
2400
2400
A480
A500
6600
2400
ENDCHAR
STARTCHAR 21D4
ENCODING 8660
SWIDTH 576 0
DWIDTH 8 0
BBX 11 8 -1 1
BITMAP
1B00
2180
7F80
C0C0
C060
7F80
2180
1B00
ENDCHAR
STARTCHAR 21DB
ENCODING 8667
SWIDTH 576 0
DWIDTH 8 0
BBX 8 8 0 1
BITMAP
0C
FC
FE
FF
FF
FE
FE
0C
ENDCHAR
STARTCHAR 21DE
ENCODING 8670
SWIDTH 576 0
DWIDTH 8 0
BBX 6 11 1 0
BITMAP
10
30
78
FC
10
10
7C
10
7C
10
10
ENDCHAR
STARTCHAR 21DF
ENCODING 8671
SWIDTH 576 0
DWIDTH 8 0
BBX 6 10 1 0
BITMAP
10
10
7C
10
7C
10
10
FC
38
10
ENDCHAR
STARTCHAR 21E5
ENCODING 8677
SWIDTH 576 0
DWIDTH 8 0
BBX 8 5 0 2
BITMAP
19
0D
FD
0D
19
ENDCHAR
STARTCHAR 21E7
ENCODING 8679
SWIDTH 576 0
DWIDTH 8 0
BBX 8 12 0 0
BITMAP
08
18
24
42
E7
24
24
24
24
24
24
1C
ENDCHAR
STARTCHAR 21E8
ENCODING 8680
SWIDTH 576 0
DWIDTH 8 0
BBX 8 8 0 1
BITMAP
08
0C
FA
81
81
FA
0C
08
ENDCHAR
STARTCHAR 21EA
ENCODING 8682
SWIDTH 576 0
DWIDTH 8 0
BBX 8 12 0 0
BITMAP
08
18
24
42
E7
24
24
3C
00
3C
24
1C
ENDCHAR
STARTCHAR 2200
ENCODING 8704
SWIDTH 576 0
DWIDTH 8 0
BBX 7 11 1 -1
BITMAP
86
84
C4
7C
4C
48
68
28
38
30
30
ENDCHAR
STARTCHAR 2201
ENCODING 8705
SWIDTH 576 0
DWIDTH 8 0
BBX 4 8 2 0
BITMAP
70
D0
90
80
80
90
90
70
ENDCHAR
STARTCHAR 2202
ENCODING 8706
SWIDTH 576 0
DWIDTH 8 0
BBX 6 11 1 0
BITMAP
60
10
08
0C
74
4C
C4
C4
C4
4C
78
ENDCHAR
STARTCHAR 2203
ENCODING 8707
SWIDTH 576 0
DWIDTH 8 0
BBX 6 10 1 0
BITMAP
FC
04
04
04
7C
04
04
04
04
FC
ENDCHAR
STARTCHAR 2204
ENCODING 8708
SWIDTH 576 0
DWIDTH 8 0
BBX 6 13 1 -2
BITMAP
0C
FC
0C
14
14
7C
24
24
44
44
FC
80
80
ENDCHAR
STARTCHAR 2205
ENCODING 8709
SWIDTH 576 0
DWIDTH 8 0
BBX 9 10 0 1
BITMAP
0100
3E00
6300
C500
8900
8980
9100
E100
6200
FC00
ENDCHAR
STARTCHAR 2206
ENCODING 8710
SWIDTH 576 0
DWIDTH 8 0
BBX 7 10 1 0
BITMAP
30
30
28
68
48
4C
44
C4
84
FE
ENDCHAR
STARTCHAR 2207
ENCODING 8711
SWIDTH 576 0
DWIDTH 8 0
BBX 7 10 1 0
BITMAP
FE
84
C4
44
4C
48
68
28
30
30
ENDCHAR
STARTCHAR 2208
ENCODING 8712
SWIDTH 576 0
DWIDTH 8 0
BBX 8 8 0 1
BITMAP
3F
40
40
FF
C0
40
60
3F
ENDCHAR
STARTCHAR 2209
ENCODING 8713
SWIDTH 576 0
DWIDTH 8 0
BBX 8 12 0 -1
BITMAP
02
04
3F
44
48
FF
D0
50
50
3F
20
20
ENDCHAR
STARTCHAR 220A
ENCODING 8714
SWIDTH 576 0
DWIDTH 8 0
BBX 4 4 2 2
BITMAP
70
F0
80
70
ENDCHAR
STARTCHAR 220B
ENCODING 8715
SWIDTH 576 0
DWIDTH 8 0
BBX 8 8 0 1
BITMAP
FE
03
01
FF
01
01
03
FE
ENDCHAR
STARTCHAR 220C
ENCODING 8716
SWIDTH 576 0
DWIDTH 8 0
BBX 8 12 0 -1
BITMAP
02
04
FE
07
09
FF
11
11
13
FE
20
20
ENDCHAR
STARTCHAR 220E
ENCODING 8718
SWIDTH 576 0
DWIDTH 8 0
BBX 5 7 2 0
BITMAP
F8
F8
F8
F8
F8
F8
F8
ENDCHAR
STARTCHAR 220F
ENCODING 8719
SWIDTH 576 0
DWIDTH 8 0
BBX 7 13 1 -3
BITMAP
FE
44
44
44
44
44
44
44
44
44
44
44
44
ENDCHAR
STARTCHAR 2210
ENCODING 8720
SWIDTH 576 0
DWIDTH 8 0
BBX 7 12 1 -2
BITMAP
C4
C4
C4
C4
C4
C4
C4
C4
C4
C4
C4
FE
ENDCHAR
STARTCHAR 2211
ENCODING 8721
SWIDTH 576 0
DWIDTH 8 0
BBX 7 13 1 -2
BITMAP
FE
C0
40
60
30
10
08
18
30
20
40
C0
FE
ENDCHAR
STARTCHAR 2212
ENCODING 8722
SWIDTH 576 0
DWIDTH 8 0
BBX 4 1 2 4
BITMAP
F0
ENDCHAR
STARTCHAR 2213
ENCODING 8723
SWIDTH 576 0
DWIDTH 8 0
BBX 6 8 1 0
BITMAP
FC
10
10
10
FC
10
10
10
ENDCHAR
STARTCHAR 2215
ENCODING 8725
SWIDTH 576 0
DWIDTH 8 0
BBX 8 10 0 0
BITMAP
01
02
06
04
08
10
10
20
40
C0
ENDCHAR
STARTCHAR 2218
ENCODING 8728
SWIDTH 576 0
DWIDTH 8 0
BBX 3 4 3 3
BITMAP
C0
A0
A0
C0
ENDCHAR
STARTCHAR 2219
ENCODING 8729
SWIDTH 576 0
DWIDTH 8 0
BBX 2 2 3 4
BITMAP
C0
C0
ENDCHAR
STARTCHAR 221A
ENCODING 8730
SWIDTH 576 0
DWIDTH 8 0
BBX 8 10 0 0
BITMAP
01
01
E2
22
22
16
14
14
14
08
ENDCHAR
STARTCHAR 221E
ENCODING 8734
SWIDTH 576 0
DWIDTH 8 0
BBX 8 5 0 2
BITMAP
76
59
89
59
76
ENDCHAR
STARTCHAR 2223
ENCODING 8739
SWIDTH 576 0
DWIDTH 8 0
BBX 1 10 4 0
BITMAP
80
80
80
80
80
80
80
80
80
80
ENDCHAR
STARTCHAR 2224
ENCODING 8740
SWIDTH 576 0
DWIDTH 8 0
BBX 5 10 2 0
BITMAP
20
28
30
20
20
60
60
A0
20
20
ENDCHAR
STARTCHAR 2225
ENCODING 8741
SWIDTH 576 0
DWIDTH 8 0
BBX 4 10 2 0
BITMAP
90
90
90
90
90
90
90
90
90
90
ENDCHAR
STARTCHAR 2227
ENCODING 8743
SWIDTH 576 0
DWIDTH 8 0
BBX 7 7 1 1
BITMAP
30
38
68
48
4C
C4
86
ENDCHAR
STARTCHAR 2228
ENCODING 8744
SWIDTH 576 0
DWIDTH 8 0
BBX 7 7 1 1
BITMAP
86
C4
4C
48
68
38
30
ENDCHAR
STARTCHAR 2229
ENCODING 8745
SWIDTH 576 0
DWIDTH 8 0
BBX 7 10 1 0
BITMAP
7C
C4
86
82
82
82
82
82
82
82
ENDCHAR
STARTCHAR 222A
ENCODING 8746
SWIDTH 576 0
DWIDTH 8 0
BBX 7 10 1 0
BITMAP
82
82
82
82
82
82
82
82
86
7C
ENDCHAR
STARTCHAR 222B
ENCODING 8747
SWIDTH 576 0
DWIDTH 8 0
BBX 7 13 0 -2
BITMAP
0E
10
10
10
10
10
10
10
10
10
10
10
E0
ENDCHAR
STARTCHAR 2234
ENCODING 8756
SWIDTH 576 0
DWIDTH 8 0
BBX 8 8 0 0
BITMAP
18
18
00
00
00
00
43
C3
ENDCHAR
STARTCHAR 2235
ENCODING 8757
SWIDTH 576 0
DWIDTH 8 0
BBX 8 8 0 0
BITMAP
C3
43
00
00
00
00
18
18
ENDCHAR
STARTCHAR 2236
ENCODING 8758
SWIDTH 576 0
DWIDTH 8 0
BBX 2 8 3 0
BITMAP
C0
C0
00
00
00
00
C0
C0
ENDCHAR
STARTCHAR 2237
ENCODING 8759
SWIDTH 576 0
DWIDTH 8 0
BBX 7 7 1 0
BITMAP
CE
CC
00
00
00
CE
CC
ENDCHAR
STARTCHAR 2238
ENCODING 8760
SWIDTH 576 0
DWIDTH 8 0
BBX 4 4 2 3
BITMAP
60
60
00
F0
ENDCHAR
STARTCHAR 2239
ENCODING 8761
SWIDTH 576 0
DWIDTH 8 0
BBX 8 6 0 1
BITMAP
03
03
F8
00
03
03
ENDCHAR
STARTCHAR 223C
ENCODING 8764
SWIDTH 576 0
DWIDTH 8 0
BBX 6 3 1 4
BITMAP
64
B4
9C
ENDCHAR
STARTCHAR 223E
ENCODING 8766
SWIDTH 576 0
DWIDTH 8 0
BBX 8 4 0 3
BITMAP
72
59
C9
4E
ENDCHAR
STARTCHAR 2243
ENCODING 8771
SWIDTH 576 0
DWIDTH 8 0
BBX 6 6 1 3
BITMAP
64
B4
9C
00
00
FC
ENDCHAR
STARTCHAR 2245
ENCODING 8773
SWIDTH 576 0
DWIDTH 8 0
BBX 6 8 1 1
BITMAP
64
B4
9C
00
FC
00
00
FC
ENDCHAR
STARTCHAR 2247
ENCODING 8775
SWIDTH 576 0
DWIDTH 8 0
BBX 6 13 1 -2
BITMAP
04
08
6C
BC
9C
10
FC
20
20
FC
40
40
40
ENDCHAR
STARTCHAR 2248
ENCODING 8776
SWIDTH 576 0
DWIDTH 8 0
BBX 6 6 1 2
BITMAP
64
B4
9C
64
B4
9C
ENDCHAR
STARTCHAR 2249
ENCODING 8777
SWIDTH 576 0
DWIDTH 8 0
BBX 6 12 1 -1
BITMAP
0C
08
08
6C
B4
9C
64
B4
BC
40
40
40
ENDCHAR
STARTCHAR 224B
ENCODING 8779
SWIDTH 576 0
DWIDTH 8 0
BBX 6 8 1 1
BITMAP
E4
9C
00
E4
9C
00
E4
9C
ENDCHAR
STARTCHAR 224D
ENCODING 8781
SWIDTH 576 0
DWIDTH 8 0
BBX 7 6 1 2
BITMAP
86
FC
7C
38
FC
86
ENDCHAR
STARTCHAR 2254
ENCODING 8788
SWIDTH 576 0
DWIDTH 8 0
BBX 8 6 0 1
BITMAP
C0
DF
00
00
DF
C0
ENDCHAR
STARTCHAR 2257
ENCODING 8791
SWIDTH 576 0
DWIDTH 8 0
BBX 6 9 1 1
BITMAP
30
48
38
00
00
FC
00
00
FC
ENDCHAR
STARTCHAR 225F
ENCODING 8799
SWIDTH 576 0
DWIDTH 8 0
BBX 6 10 1 1
BITMAP
38
08
18
20
30
00
FC
00
00
FC
ENDCHAR
STARTCHAR 2260
ENCODING 8800
SWIDTH 576 0
DWIDTH 8 0
BBX 6 11 1 0
BITMAP
0C
08
08
08
FC
10
20
FC
20
40
40
ENDCHAR
STARTCHAR 2261
ENCODING 8801
SWIDTH 576 0
DWIDTH 8 0
BBX 6 7 1 1
BITMAP
FC
00
00
FC
00
00
FC
ENDCHAR
STARTCHAR 2262
ENCODING 8802
SWIDTH 576 0
DWIDTH 8 0
BBX 6 11 1 -1
BITMAP
08
08
FC
10
10
FC
20
20
FC
40
40
ENDCHAR
STARTCHAR 2263
ENCODING 8803
SWIDTH 576 0
DWIDTH 8 0
BBX 6 7 1 1
BITMAP
FC
00
FC
00
FC
00
FC
ENDCHAR
STARTCHAR 2264
ENCODING 8804
SWIDTH 576 0
DWIDTH 8 0
BBX 6 10 1 0
BITMAP
04
1C
70
C0
E0
38
0C
04
00
FC
ENDCHAR
STARTCHAR 2265
ENCODING 8805
SWIDTH 576 0
DWIDTH 8 0
BBX 6 10 1 0
BITMAP
80
60
18
04
0C
30
C0
80
00
FC
ENDCHAR
STARTCHAR 226A
ENCODING 8810
SWIDTH 576 0
DWIDTH 8 0
BBX 8 7 0 1
BITMAP
19
32
CC
88
64
33
09
ENDCHAR
STARTCHAR 226B
ENCODING 8811
SWIDTH 576 0
DWIDTH 8 0
BBX 8 7 0 1
BITMAP
88
64
33
19
33
4C
88
ENDCHAR
STARTCHAR 226C
ENCODING 8812
SWIDTH 576 0
DWIDTH 8 0
BBX 4 9 2 -1
BITMAP
F0
50
90
90
90
90
50
60
90
ENDCHAR
STARTCHAR 226D
ENCODING 8813
SWIDTH 576 0
DWIDTH 8 0
BBX 7 10 1 0
BITMAP
08
08
8E
FC
7C
38
FC
A6
20
40
ENDCHAR
STARTCHAR 226E
ENCODING 8814
SWIDTH 576 0
DWIDTH 8 0
BBX 6 11 1 -1
BITMAP
08
08
0C
1C
70
90
60
38
24
40
40
ENDCHAR
STARTCHAR 226F
ENCODING 8815
SWIDTH 576 0
DWIDTH 8 0
BBX 6 11 1 -1
BITMAP
08
08
88
70
18
14
3C
70
C0
40
40
ENDCHAR
STARTCHAR 2270
ENCODING 8816
SWIDTH 576 0
DWIDTH 8 0
BBX 6 13 1 -2
BITMAP
04
0C
1C
78
D0
F0
38
2C
24
20
FC
40
40
ENDCHAR
STARTCHAR 2271
ENCODING 8817
SWIDTH 576 0
DWIDTH 8 0
BBX 6 13 1 -2
BITMAP
04
88
68
18
14
1C
30
E0
20
20
FC
40
40
ENDCHAR
STARTCHAR 2272
ENCODING 8818
SWIDTH 576 0
DWIDTH 8 0
BBX 6 10 1 0
BITMAP
04
1C
70
C0
E0
38
0C
00
E4
9C
ENDCHAR
STARTCHAR 2273
ENCODING 8819
SWIDTH 576 0
DWIDTH 8 0
BBX 6 10 1 0
BITMAP
80
E0
18
04
0C
30
C0
80
64
9C
ENDCHAR
STARTCHAR 227A
ENCODING 8826
SWIDTH 576 0
DWIDTH 8 0
BBX 6 7 1 1
BITMAP
04
0C
18
E0
38
0C
04
ENDCHAR
STARTCHAR 227B
ENCODING 8827
SWIDTH 576 0
DWIDTH 8 0
BBX 7 7 1 1
BITMAP
C0
40
30
0E
30
40
C0
ENDCHAR
STARTCHAR 227C
ENCODING 8828
SWIDTH 576 0
DWIDTH 8 0
BBX 6 10 1 0
BITMAP
04
0C
38
C0
38
0C
04
04
00
FC
ENDCHAR
STARTCHAR 2282
ENCODING 8834
SWIDTH 576 0
DWIDTH 8 0
BBX 8 7 0 2
BITMAP
3F
7F
40
C0
40
7F
3F
ENDCHAR
STARTCHAR 2283
ENCODING 8835
SWIDTH 576 0
DWIDTH 8 0
BBX 8 7 0 2
BITMAP
FE
FF
03
01
03
FE
FE
ENDCHAR
STARTCHAR 2284
ENCODING 8836
SWIDTH 576 0
DWIDTH 8 0
BBX 8 12 0 -1
BITMAP
02
04
3F
48
48
C8
50
50
3F
20
20
20
ENDCHAR
STARTCHAR 2285
ENCODING 8837
SWIDTH 576 0
DWIDTH 8 0
BBX 8 11 0 0
BITMAP
02
04
FC
FE
0B
09
13
FF
FE
20
20
ENDCHAR
STARTCHAR 2286
ENCODING 8838
SWIDTH 576 0
DWIDTH 8 0
BBX 8 9 0 0
BITMAP
3F
40
C0
C0
40
3F
00
00
7F
ENDCHAR
STARTCHAR 2287
ENCODING 8839
SWIDTH 576 0
DWIDTH 8 0
BBX 8 9 0 0
BITMAP
FE
03
01
01
03
FE
00
00
FF
ENDCHAR
STARTCHAR 2288
ENCODING 8840
SWIDTH 576 0
DWIDTH 8 0
BBX 8 13 0 -2
BITMAP
02
02
3F
44
C8
C8
48
3F
10
10
7F
20
40
ENDCHAR
STARTCHAR 2289
ENCODING 8841
SWIDTH 576 0
DWIDTH 8 0
BBX 8 13 0 -2
BITMAP
02
02
FE
07
0D
09
0B
FE
10
10
FF
20
40
ENDCHAR
STARTCHAR 228E
ENCODING 8846
SWIDTH 576 0
DWIDTH 8 0
BBX 6 10 1 0
BITMAP
84
84
84
84
84
94
FC
94
94
7C
ENDCHAR
STARTCHAR 228F
ENCODING 8847
SWIDTH 576 0
DWIDTH 8 0
BBX 8 7 0 1
BITMAP
FF
C0
C0
C0
C0
C0
FF
ENDCHAR
STARTCHAR 2290
ENCODING 8848
SWIDTH 576 0
DWIDTH 8 0
BBX 8 7 0 1
BITMAP
FF
01
01
01
01
01
FF
ENDCHAR
STARTCHAR 2291
ENCODING 8849
SWIDTH 576 0
DWIDTH 8 0
BBX 8 9 0 0
BITMAP
FF
C0
C0
C0
C0
FF
00
00
FF
ENDCHAR
STARTCHAR 2292
ENCODING 8850
SWIDTH 576 0
DWIDTH 8 0
BBX 8 9 0 0
BITMAP
FF
01
01
01
01
FF
00
00
FF
ENDCHAR
STARTCHAR 2293
ENCODING 8851
SWIDTH 576 0
DWIDTH 8 0
BBX 7 8 1 0
BITMAP
FE
86
86
86
86
86
86
86
ENDCHAR
STARTCHAR 2294
ENCODING 8852
SWIDTH 576 0
DWIDTH 8 0
BBX 7 7 1 0
BITMAP
86
86
86
86
86
86
FE
ENDCHAR
STARTCHAR 2295
ENCODING 8853
SWIDTH 576 0
DWIDTH 8 0
BBX 9 9 0 0
BITMAP
3C00
4A00
8900
8880
FF80
8880
8900
4900
3E00
ENDCHAR
STARTCHAR 2296
ENCODING 8854
SWIDTH 576 0
DWIDTH 8 0
BBX 9 9 0 0
BITMAP
3C00
4300
8100
8080
BC80
8080
8100
4300
3C00
ENDCHAR
STARTCHAR 2297
ENCODING 8855
SWIDTH 576 0
DWIDTH 8 0
BBX 9 9 0 0
BITMAP
3C00
4300
E300
B480
9880
BC80
E300
4200
3C00
ENDCHAR
STARTCHAR 2298
ENCODING 8856
SWIDTH 576 0
DWIDTH 8 0
BBX 9 9 0 0
BITMAP
3C00
4300
8500
8880
8880
9080
A100
6200
3C00
ENDCHAR
STARTCHAR 2299
ENCODING 8857
SWIDTH 576 0
DWIDTH 8 0
BBX 9 9 0 0
BITMAP
3C00
4300
8100
8080
9880
8880
8100
4300
3C00
ENDCHAR
STARTCHAR 229B
ENCODING 8859
SWIDTH 576 0
DWIDTH 8 0
BBX 9 9 0 0
BITMAP
1800
6E00
8900
EB00
BC80
9C80
A500
6300
3C00
ENDCHAR
STARTCHAR 229C
ENCODING 8860
SWIDTH 576 0
DWIDTH 8 0
BBX 9 9 0 0
BITMAP
3C00
4300
8100
FF00
8080
FF00
8100
4200
3C00
ENDCHAR
STARTCHAR 229D
ENCODING 8861
SWIDTH 576 0
DWIDTH 8 0
BBX 9 9 0 0
BITMAP
3C00
4300
8100
8080
FF80
8080
8100
4200
3C00
ENDCHAR
STARTCHAR 229E
ENCODING 8862
SWIDTH 576 0
DWIDTH 8 0
BBX 8 9 0 0
BITMAP
FF
C3
A7
9D
99
BD
E7
C3
FF
ENDCHAR
STARTCHAR 229F
ENCODING 8863
SWIDTH 576 0
DWIDTH 8 0
BBX 8 9 0 0
BITMAP
FF
81
81
81
BD
81
81
81
FF
ENDCHAR
STARTCHAR 22A0
ENCODING 8864
SWIDTH 576 0
DWIDTH 8 0
BBX 8 8 0 0
BITMAP
FF
89
89
FF
89
89
89
FF
ENDCHAR
STARTCHAR 22A1
ENCODING 8865
SWIDTH 576 0
DWIDTH 8 0
BBX 8 9 0 0
BITMAP
FF
81
81
81
99
89
81
81
FF
ENDCHAR
STARTCHAR 22A2
ENCODING 8866
SWIDTH 576 0
DWIDTH 8 0
BBX 8 8 0 0
BITMAP
80
80
80
FF
80
80
80
80
ENDCHAR
STARTCHAR 22A3
ENCODING 8867
SWIDTH 576 0
DWIDTH 8 0
BBX 8 8 0 0
BITMAP
01
01
01
FF
01
01
01
01
ENDCHAR
STARTCHAR 22A4
ENCODING 8868
SWIDTH 576 0
DWIDTH 8 0
BBX 8 9 0 -1
BITMAP
FF
08
08
08
08
08
08
08
08
ENDCHAR
STARTCHAR 22A5
ENCODING 8869
SWIDTH 576 0
DWIDTH 8 0
BBX 8 8 0 0
BITMAP
08
08
08
08
08
08
08
FF
ENDCHAR
STARTCHAR 22B4
ENCODING 8884
SWIDTH 576 0
DWIDTH 8 0
BBX 6 10 1 0
BITMAP
04
1C
74
C4
E4
3C
0C
04
00
FC
ENDCHAR
STARTCHAR 22B8
ENCODING 8888
SWIDTH 576 0
DWIDTH 8 0
BBX 8 3 0 3
BITMAP
03
FD
03
ENDCHAR
STARTCHAR 22BB
ENCODING 8891
SWIDTH 576 0
DWIDTH 8 0
BBX 7 10 1 0
BITMAP
86
C4
4C
48
68
38
30
00
00
FC
ENDCHAR
STARTCHAR 22BC
ENCODING 8892
SWIDTH 576 0
DWIDTH 8 0
BBX 7 10 1 1
BITMAP
FE
00
00
30
38
68
48
4C
C4
86
ENDCHAR
STARTCHAR 22BD
ENCODING 8893
SWIDTH 576 0
DWIDTH 8 0
BBX 7 10 1 1
BITMAP
FE
00
02
84
44
4C
68
28
30
30
ENDCHAR
STARTCHAR 22C2
ENCODING 8898
SWIDTH 576 0
DWIDTH 8 0
BBX 7 10 1 0
BITMAP
7C
C4
86
82
82
82
82
82
82
82
ENDCHAR
STARTCHAR 22C3
ENCODING 8899
SWIDTH 576 0
DWIDTH 8 0
BBX 7 10 1 0
BITMAP
82
82
82
82
82
82
82
82
86
7C
ENDCHAR
STARTCHAR 22C4
ENCODING 8900
SWIDTH 576 0
DWIDTH 8 0
BBX 4 4 2 3
BITMAP
20
60
90
60
ENDCHAR
STARTCHAR 22C6
ENCODING 8902
SWIDTH 576 0
DWIDTH 8 0
BBX 3 3 3 3
BITMAP
40
E0
C0
ENDCHAR
STARTCHAR 22C8
ENCODING 8904
SWIDTH 576 0
DWIDTH 8 0
BBX 8 8 0 1
BITMAP
81
C3
A5
99
99
A5
C3
81
ENDCHAR
STARTCHAR 22C9
ENCODING 8905
SWIDTH 576 0
DWIDTH 8 0
BBX 8 8 0 1
BITMAP
81
C2
A4
98
98
A4
C2
81
ENDCHAR
STARTCHAR 22CA
ENCODING 8906
SWIDTH 576 0
DWIDTH 8 0
BBX 8 8 0 1
BITMAP
81
43
25
19
19
25
43
81
ENDCHAR
STARTCHAR 22CE
ENCODING 8910
SWIDTH 576 0
DWIDTH 8 0
BBX 8 8 0 0
BITMAP
81
E7
34
18
18
18
18
18
ENDCHAR
STARTCHAR 22D0
ENCODING 8912
SWIDTH 576 0
DWIDTH 8 0
BBX 8 8 0 1
BITMAP
3F
40
5F
D0
D0
5F
40
3F
ENDCHAR
STARTCHAR 22E2
ENCODING 8930
SWIDTH 576 0
DWIDTH 8 0
BBX 8 13 0 -2
BITMAP
02
02
FF
C4
C8
C8
C8
FF
10
10
FF
20
40
ENDCHAR
STARTCHAR 22EE
ENCODING 8942
SWIDTH 576 0
DWIDTH 8 0
BBX 2 9 3 0
BITMAP
C0
C0
00
00
C0
C0
00
C0
C0
ENDCHAR
STARTCHAR 22EF
ENCODING 8943
SWIDTH 576 0
DWIDTH 8 0
BBX 9 2 0 4
BITMAP
D900
D980
ENDCHAR
STARTCHAR 22F0
ENCODING 8944
SWIDTH 576 0
DWIDTH 8 0
BBX 9 9 0 0
BITMAP
0100
0180
0000
0000
1800
1800
0000
C000
C000
ENDCHAR
STARTCHAR 22F1
ENCODING 8945
SWIDTH 576 0
DWIDTH 8 0
BBX 9 9 0 0
BITMAP
C000
C000
0000
0000
1800
1800
0000
0100
0180
ENDCHAR
STARTCHAR 2302
ENCODING 8962
SWIDTH 576 0
DWIDTH 8 0
BBX 6 8 1 0
BITMAP
10
28
44
84
84
84
84
FC
ENDCHAR
STARTCHAR 2303
ENCODING 8963
SWIDTH 576 0
DWIDTH 8 0
BBX 8 4 0 7
BITMAP
08
18
24
C3
ENDCHAR
STARTCHAR 2304
ENCODING 8964
SWIDTH 576 0
DWIDTH 8 0
BBX 8 5 0 0
BITMAP
81
C1
62
34
18
ENDCHAR
STARTCHAR 2305
ENCODING 8965
SWIDTH 576 0
DWIDTH 8 0
BBX 8 6 0 4
BITMAP
7F
00
08
1C
26
C3
ENDCHAR
STARTCHAR 2308
ENCODING 8968
SWIDTH 576 0
DWIDTH 8 0
BBX 3 13 3 -1
BITMAP
E0
80
80
80
80
80
80
80
80
80
80
80
80
ENDCHAR
STARTCHAR 2309
ENCODING 8969
SWIDTH 576 0
DWIDTH 8 0
BBX 4 13 2 -1
BITMAP
F0
30
30
30
30
30
30
30
30
30
30
30
30
ENDCHAR
STARTCHAR 230A
ENCODING 8970
SWIDTH 576 0
DWIDTH 8 0
BBX 3 13 3 -1
BITMAP
80
80
80
80
80
80
80
80
80
80
80
80
E0
ENDCHAR
STARTCHAR 230B
ENCODING 8971
SWIDTH 576 0
DWIDTH 8 0
BBX 4 13 2 -1
BITMAP
30
30
30
30
30
30
30
30
30
30
30
30
F0
ENDCHAR
STARTCHAR 2318
ENCODING 8984
SWIDTH 576 0
DWIDTH 8 0
BBX 8 8 0 1
BITMAP
67
95
FF
14
14
7F
95
E7
ENDCHAR
STARTCHAR 231C
ENCODING 8988
SWIDTH 576 0
DWIDTH 8 0
BBX 4 4 3 8
BITMAP
F0
80
80
80
ENDCHAR
STARTCHAR 231D
ENCODING 8989
SWIDTH 576 0
DWIDTH 8 0
BBX 5 4 1 8
BITMAP
F8
18
18
18
ENDCHAR
STARTCHAR 231E
ENCODING 8990
SWIDTH 576 0
DWIDTH 8 0
BBX 4 4 3 -1
BITMAP
80
80
80
F0
ENDCHAR
STARTCHAR 231F
ENCODING 8991
SWIDTH 576 0
DWIDTH 8 0
BBX 5 4 1 -1
BITMAP
18
18
18
F8
ENDCHAR
STARTCHAR 2324
ENCODING 8996
SWIDTH 576 0
DWIDTH 8 0
BBX 9 4 0 6
BITMAP
CB80
1800
2400
6300
ENDCHAR
STARTCHAR 2325
ENCODING 8997
SWIDTH 576 0
DWIDTH 8 0
BBX 8 10 0 0
BITMAP
E7
10
10
10
18
08
08
0C
04
07
ENDCHAR
STARTCHAR 2326
ENCODING 8998
SWIDTH 576 0
DWIDTH 8 0
BBX 12 9 -1 1
BITMAP
3E00
FF00
9D80
C9C0
F7F0
E3E0
C9C0
DD80
7F00
ENDCHAR
STARTCHAR 2328
ENCODING 9000
SWIDTH 576 0
DWIDTH 8 0
BBX 11 9 -1 1
BITMAP
FFC0
AA20
AA20
FF20
D520
FFE0
80E0
80E0
FFC0
ENDCHAR
STARTCHAR 232B
ENCODING 9003
SWIDTH 576 0
DWIDTH 8 0
BBX 11 9 -2 1
BITMAP
0FC0
1FE0
3320
7A60
FCE0
F860
7320
37A0
1FE0
ENDCHAR
STARTCHAR 2336
ENCODING 9014
SWIDTH 576 0
DWIDTH 8 0
BBX 8 11 0 0
BITMAP
FF
08
08
08
08
08
08
08
08
08
FF
ENDCHAR
STARTCHAR 2337
ENCODING 9015
SWIDTH 576 0
DWIDTH 8 0
BBX 4 14 2 -2
BITMAP
F0
90
90
90
90
90
90
90
90
90
90
90
90
F0
ENDCHAR
STARTCHAR 2338
ENCODING 9016
SWIDTH 576 0
DWIDTH 8 0
BBX 8 13 0 -2
BITMAP
FF
81
81
81
FF
81
81
FF
81
81
81
81
FF
ENDCHAR
STARTCHAR 2339
ENCODING 9017
SWIDTH 576 0
DWIDTH 8 0
BBX 8 13 0 -2
BITMAP
FF
81
81
99
99
81
FF
81
99
99
81
81
FF
ENDCHAR
STARTCHAR 233A
ENCODING 9018
SWIDTH 576 0
DWIDTH 8 0
BBX 8 14 0 -2
BITMAP
FF
81
81
99
A5
C3
81
81
C3
A5
99
89
81
FF
ENDCHAR
STARTCHAR 233B
ENCODING 9019
SWIDTH 576 0
DWIDTH 8 0
BBX 8 14 0 -2
BITMAP
FF
81
81
81
99
A5
A5
99
81
81
81
81
81
FF
ENDCHAR
STARTCHAR 233C
ENCODING 9020
SWIDTH 576 0
DWIDTH 8 0
BBX 8 13 0 -2
BITMAP
FF
81
BD
FF
C1
81
81
81
C1
FF
BD
81
FF
ENDCHAR
STARTCHAR 233D
ENCODING 9021
SWIDTH 576 0
DWIDTH 8 0
BBX 9 13 0 -2
BITMAP
0800
0800
3C00
4A00
8900
8880
8880
8880
8900
4A00
3C00
0800
0800
ENDCHAR
STARTCHAR 233E
ENCODING 9022
SWIDTH 576 0
DWIDTH 8 0
BBX 9 9 0 1
BITMAP
3C00
4300
8100
9880
A480
A480
9900
4300
3C00
ENDCHAR
STARTCHAR 233F
ENCODING 9023
SWIDTH 576 0
DWIDTH 8 0
BBX 7 13 1 -2
BITMAP
04
0C
08
08
10
10
FE
20
20
60
40
C0
80
ENDCHAR
STARTCHAR 2340
ENCODING 9024
SWIDTH 576 0
DWIDTH 8 0
BBX 7 13 1 -2
BITMAP
C0
40
40
20
20
30
FE
10
18
08
0C
04
04
ENDCHAR
STARTCHAR 2341
ENCODING 9025
SWIDTH 576 0
DWIDTH 8 0
BBX 8 14 0 -2
BITMAP
FF
81
83
83
85
85
89
91
91
A1
A1
C1
81
FF
ENDCHAR
STARTCHAR 2342
ENCODING 9026
SWIDTH 576 0
DWIDTH 8 0
BBX 8 14 0 -2
BITMAP
FF
C1
C1
A1
A1
91
91
89
85
85
83
83
81
FF
ENDCHAR
STARTCHAR 2343
ENCODING 9027
SWIDTH 576 0
DWIDTH 8 0
BBX 8 13 0 -2
BITMAP
FF
81
81
83
8D
B1
C1
F1
9D
83
81
81
FF
ENDCHAR
STARTCHAR 2344
ENCODING 9028
SWIDTH 576 0
DWIDTH 8 0
BBX 8 13 0 -2
BITMAP
FF
81
81
C1
B9
8F
81
87
B9
E1
81
81
FF
ENDCHAR
STARTCHAR 2345
ENCODING 9029
SWIDTH 576 0
DWIDTH 8 0
BBX 8 10 0 0
BITMAP
08
08
48
48
FF
C8
48
08
08
08
ENDCHAR
STARTCHAR 2346
ENCODING 9030
SWIDTH 576 0
DWIDTH 8 0
BBX 9 10 0 0
BITMAP
0800
0800
0A00
0B00
FF80
0B00
0A00
0800
0800
0800
ENDCHAR
STARTCHAR 2347
ENCODING 9031
SWIDTH 576 0
DWIDTH 8 0
BBX 8 14 0 -2
BITMAP
FF
81
81
81
89
91
B1
FF
B1
99
81
81
81
FF
ENDCHAR
STARTCHAR 2348
ENCODING 9032
SWIDTH 576 0
DWIDTH 8 0
BBX 8 14 0 -2
BITMAP
FF
81
81
81
99
89
85
FF
85
89
91
81
81
FF
ENDCHAR
STARTCHAR 2349
ENCODING 9033
SWIDTH 576 0
DWIDTH 8 0
BBX 9 14 0 -2
BITMAP
4000
6000
3C00
6300
9100
9080
9880
8880
8900
4F00
3E00
0400
0600
0200
ENDCHAR
STARTCHAR 234A
ENCODING 9034
SWIDTH 576 0
DWIDTH 8 0
BBX 8 10 0 -2
BITMAP
08
08
08
08
08
08
08
FF
00
FF
ENDCHAR
STARTCHAR 234B
ENCODING 9035
SWIDTH 576 0
DWIDTH 8 0
BBX 7 13 1 -2
BITMAP
10
30
30
38
78
58
58
5C
D4
94
FE
10
10
ENDCHAR
STARTCHAR 234C
ENCODING 9036
SWIDTH 576 0
DWIDTH 8 0
BBX 8 14 0 -2
BITMAP
FF
81
81
81
C1
C3
A3
A3
A5
95
99
99
81
FF
ENDCHAR
STARTCHAR 234D
ENCODING 9037
SWIDTH 576 0
DWIDTH 8 0
BBX 8 13 0 -2
BITMAP
FF
99
99
9D
B5
A5
A7
A3
E3
C3
FF
81
FF
ENDCHAR
STARTCHAR 234E
ENCODING 9038
SWIDTH 576 0
DWIDTH 8 0
BBX 8 8 0 0
BITMAP
08
08
3C
2A
3C
08
08
FF
ENDCHAR
STARTCHAR 234F
ENCODING 9039
SWIDTH 576 0
DWIDTH 8 0
BBX 8 11 0 0
BITMAP
08
1C
7E
08
08
FF
08
08
08
08
08
ENDCHAR
STARTCHAR 2350
ENCODING 9040
SWIDTH 576 0
DWIDTH 8 0
BBX 8 14 0 -2
BITMAP
FF
81
99
BD
EB
CB
89
89
89
89
89
89
89
FF
ENDCHAR
STARTCHAR 2351
ENCODING 9041
SWIDTH 576 0
DWIDTH 8 0
BBX 8 11 0 -1
BITMAP
FF
00
FF
08
08
08
08
08
08
08
08
ENDCHAR
STARTCHAR 2352
ENCODING 9042
SWIDTH 576 0
DWIDTH 8 0
BBX 7 13 1 -2
BITMAP
10
FE
94
D4
54
5C
58
78
38
30
30
10
10
ENDCHAR
STARTCHAR 2353
ENCODING 9043
SWIDTH 576 0
DWIDTH 8 0
BBX 8 13 0 -2
BITMAP
FF
89
99
95
A5
A5
A3
C3
C3
81
81
81
FF
ENDCHAR
STARTCHAR 2354
ENCODING 9044
SWIDTH 576 0
DWIDTH 8 0
BBX 8 13 0 -2
BITMAP
FF
FF
C3
E3
A3
A7
A5
B5
95
9D
99
81
FF
ENDCHAR
STARTCHAR 2355
ENCODING 9045
SWIDTH 576 0
DWIDTH 8 0
BBX 8 8 0 0
BITMAP
FF
08
3C
2A
2A
3C
08
08
ENDCHAR
STARTCHAR 2356
ENCODING 9046
SWIDTH 576 0
DWIDTH 8 0
BBX 8 10 0 0
BITMAP
08
08
08
08
FF
08
08
4A
3C
08
ENDCHAR
STARTCHAR 2357
ENCODING 9047
SWIDTH 576 0
DWIDTH 8 0
BBX 8 14 0 -2
BITMAP
FF
89
89
89
89
89
89
89
CB
EB
BD
99
81
FF
ENDCHAR
STARTCHAR 2358
ENCODING 9048
SWIDTH 576 0
DWIDTH 8 0
BBX 4 12 2 -2
BITMAP
20
20
20
20
00
00
00
00
00
00
00
F0
ENDCHAR
STARTCHAR 2359
ENCODING 9049
SWIDTH 576 0
DWIDTH 8 0
BBX 7 12 1 -2
BITMAP
30
38
28
68
48
4C
44
C4
84
FE
00
FE
ENDCHAR
STARTCHAR 235A
ENCODING 9050
SWIDTH 576 0
DWIDTH 8 0
BBX 9 12 0 -2
BITMAP
0800
1800
2400
4200
8180
4100
2200
1400
0800
0000
0000
FF00
ENDCHAR
STARTCHAR 235B
ENCODING 9051
SWIDTH 576 0
DWIDTH 8 0
BBX 4 9 2 -2
BITMAP
60
90
90
60
00
00
00
00
F0
ENDCHAR
STARTCHAR 235C
ENCODING 9052
SWIDTH 576 0
DWIDTH 8 0
BBX 9 12 0 -2
BITMAP
3C00
4200
8100
8080
8080
8080
8100
4200
3C00
0000
0000
FF00
ENDCHAR
STARTCHAR 235D
ENCODING 9053
SWIDTH 576 0
DWIDTH 8 0
BBX 6 8 1 0
BITMAP
78
F4
CC
CC
B4
84
84
84
ENDCHAR
STARTCHAR 235E
ENCODING 9054
SWIDTH 576 0
DWIDTH 8 0
BBX 8 13 0 -2
BITMAP
FF
89
89
89
89
81
81
81
81
81
81
81
FF
ENDCHAR
STARTCHAR 235F
ENCODING 9055
SWIDTH 576 0
DWIDTH 8 0
BBX 9 9 0 1
BITMAP
3C00
6300
8100
8880
9C80
9880
8100
4300
3E00
ENDCHAR
STARTCHAR 2360
ENCODING 9056
SWIDTH 576 0
DWIDTH 8 0
BBX 8 13 0 -2
BITMAP
FF
81
81
99
99
81
81
81
99
99
81
81
FF
ENDCHAR
STARTCHAR 2361
ENCODING 9057
SWIDTH 576 0
DWIDTH 8 0
BBX 8 12 0 -1
BITMAP
24
36
00
FF
08
08
08
08
08
08
08
08
ENDCHAR
STARTCHAR 2362
ENCODING 9058
SWIDTH 576 0
DWIDTH 8 0
BBX 7 13 1 0
BITMAP
6C
48
00
FE
84
C4
44
4C
48
68
28
30
30
ENDCHAR
STARTCHAR 2363
ENCODING 9059
SWIDTH 576 0
DWIDTH 8 0
BBX 5 7 2 3
BITMAP
90
D8
00
20
70
20
50
ENDCHAR
STARTCHAR 2364
ENCODING 9060
SWIDTH 576 0
DWIDTH 8 0
BBX 5 7 2 3
BITMAP
90
D8
00
60
90
90
60
ENDCHAR
STARTCHAR 2365
ENCODING 9061
SWIDTH 576 0
DWIDTH 8 0
BBX 9 12 0 1
BITMAP
3600
0000
0000
3C00
6300
8100
8080
8080
8080
8100
4300
3E00
ENDCHAR
STARTCHAR 2366
ENCODING 9062
SWIDTH 576 0
DWIDTH 8 0
BBX 6 13 1 -2
BITMAP
10
10
94
94
94
94
94
94
94
78
10
10
10
ENDCHAR
STARTCHAR 2367
ENCODING 9063
SWIDTH 576 0
DWIDTH 8 0
BBX 8 13 0 -1
BITMAP
08
08
08
08
3F
48
88
88
48
3F
08
08
08
ENDCHAR
STARTCHAR 2368
ENCODING 9064
SWIDTH 576 0
DWIDTH 8 0
BBX 6 6 1 4
BITMAP
48
6C
00
64
B4
9C
ENDCHAR
STARTCHAR 2369
ENCODING 9065
SWIDTH 576 0
DWIDTH 8 0
BBX 6 10 1 1
BITMAP
48
6C
00
C0
70
1C
04
18
60
80
ENDCHAR
STARTCHAR 236A
ENCODING 9066
SWIDTH 576 0
DWIDTH 8 0
BBX 4 6 2 2
BITMAP
F0
00
60
60
40
C0
ENDCHAR
STARTCHAR 236B
ENCODING 9067
SWIDTH 576 0
DWIDTH 8 0
BBX 7 13 1 0
BITMAP
68
58
00
FE
84
C4
44
4C
48
68
28
30
30
ENDCHAR
STARTCHAR 236C
ENCODING 9068
SWIDTH 576 0
DWIDTH 8 0
BBX 6 10 1 0
BITMAP
78
44
C4
84
A4
DC
84
84
44
78
ENDCHAR
STARTCHAR 236D
ENCODING 9069
SWIDTH 576 0
DWIDTH 8 0
BBX 6 13 1 -1
BITMAP
10
10
10
10
10
10
F4
9C
10
10
10
10
10
ENDCHAR
STARTCHAR 236E
ENCODING 9070
SWIDTH 576 0
DWIDTH 8 0
BBX 4 13 2 -2
BITMAP
60
60
00
00
00
00
60
60
40
40
80
00
F0
ENDCHAR
STARTCHAR 236F
ENCODING 9071
SWIDTH 576 0
DWIDTH 8 0
BBX 8 13 0 -2
BITMAP
FF
81
85
85
FF
89
89
FF
91
A1
A1
81
FF
ENDCHAR
STARTCHAR 2370
ENCODING 9072
SWIDTH 576 0
DWIDTH 8 0
BBX 8 14 0 -2
BITMAP
FF
81
B9
85
87
87
85
9D
91
91
81
B1
91
FF
ENDCHAR
STARTCHAR 2371
ENCODING 9073
SWIDTH 576 0
DWIDTH 8 0
BBX 7 10 1 1
BITMAP
68
58
00
86
C4
4C
48
68
38
30
ENDCHAR
STARTCHAR 2372
ENCODING 9074
SWIDTH 576 0
DWIDTH 8 0
BBX 7 10 1 1
BITMAP
68
58
00
30
38
68
48
4C
C4
86
ENDCHAR
STARTCHAR 2373
ENCODING 9075
SWIDTH 576 0
DWIDTH 8 0
BBX 7 8 1 0
BITMAP
F0
30
30
30
30
30
10
1E
ENDCHAR
STARTCHAR 2374
ENCODING 9076
SWIDTH 576 0
DWIDTH 8 0
BBX 6 10 1 -2
BITMAP
78
4C
C4
C4
C4
C4
CC
F8
C0
C0
ENDCHAR
STARTCHAR 2375
ENCODING 9077
SWIDTH 576 0
DWIDTH 8 0
BBX 7 8 1 0
BITMAP
44
C4
86
96
96
96
96
EC
ENDCHAR
STARTCHAR 2376
ENCODING 9078
SWIDTH 576 0
DWIDTH 8 0
BBX 7 10 1 -2
BITMAP
76
CC
8C
88
88
8C
8C
76
00
FE
ENDCHAR
STARTCHAR 2377
ENCODING 9079
SWIDTH 576 0
DWIDTH 8 0
BBX 6 10 1 -2
BITMAP
7C
C4
C0
38
C0
80
C4
7C
00
FC
ENDCHAR
STARTCHAR 2378
ENCODING 9080
SWIDTH 576 0
DWIDTH 8 0
BBX 7 10 1 -2
BITMAP
F0
10
10
10
10
10
10
1E
00
FE
ENDCHAR
STARTCHAR 2379
ENCODING 9081
SWIDTH 576 0
DWIDTH 8 0
BBX 7 10 1 -2
BITMAP
44
C4
86
96
96
96
96
EC
00
FE
ENDCHAR
STARTCHAR 237A
ENCODING 9082
SWIDTH 576 0
DWIDTH 8 0
BBX 7 8 1 0
BITMAP
76
CC
8C
88
8C
8C
CC
76
ENDCHAR
STARTCHAR 2389
ENCODING 9097
SWIDTH 576 0
DWIDTH 8 0
BBX 9 9 0 1
BITMAP
3C00
4300
8100
8080
C380
A480
9500
5A00
3C00
ENDCHAR
STARTCHAR 238A
ENCODING 9098
SWIDTH 576 0
DWIDTH 8 0
BBX 9 9 0 0
BITMAP
3C00
4300
FF00
C280
A280
A480
9500
5A00
3C00
ENDCHAR
STARTCHAR 238B
ENCODING 9099
SWIDTH 576 0
DWIDTH 8 0
BBX 8 8 0 1
BITMAP
FC
E2
B1
99
4D
41
63
3E
ENDCHAR
STARTCHAR 2395
ENCODING 9109
SWIDTH 576 0
DWIDTH 8 0
BBX 8 14 0 -2
BITMAP
FF
81
81
81
81
81
81
81
81
81
81
81
81
FF
ENDCHAR
STARTCHAR 239B
ENCODING 9115
SWIDTH 576 0
DWIDTH 8 0
BBX 4 16 4 -4
BITMAP
10
60
C0
80
80
80
80
80
80
80
80
80
80
80
80
80
ENDCHAR
STARTCHAR 239C
ENCODING 9116
SWIDTH 576 0
DWIDTH 8 0
BBX 1 19 4 -4
BITMAP
80
80
80
80
80
80
80
80
80
80
80
80
80
80
80
80
80
80
80
ENDCHAR
STARTCHAR 239D
ENCODING 9117
SWIDTH 576 0
DWIDTH 8 0
BBX 4 16 4 -2
BITMAP
80
80
80
80
80
80
80
80
80
80
80
80
80
C0
60
30
ENDCHAR
STARTCHAR 239E
ENCODING 9118
SWIDTH 576 0
DWIDTH 8 0
BBX 4 16 1 -4
BITMAP
80
C0
20
30
30
10
10
10
10
10
10
10
10
10
10
10
ENDCHAR
STARTCHAR 239F
ENCODING 9119
SWIDTH 576 0
DWIDTH 8 0
BBX 1 19 4 -4
BITMAP
80
80
80
80
80
80
80
80
80
80
80
80
80
80
80
80
80
80
80
ENDCHAR
STARTCHAR 23A0
ENCODING 9120
SWIDTH 576 0
DWIDTH 8 0
BBX 4 16 1 -2
BITMAP
10
10
10
10
10
10
10
10
10
10
10
30
30
20
C0
80
ENDCHAR
STARTCHAR 23A1
ENCODING 9121
SWIDTH 576 0
DWIDTH 8 0
BBX 3 16 4 -4
BITMAP
E0
80
80
80
80
80
80
80
80
80
80
80
80
80
80
80
ENDCHAR
STARTCHAR 23A2
ENCODING 9122
SWIDTH 576 0
DWIDTH 8 0
BBX 1 19 4 -4
BITMAP
80
80
80
80
80
80
80
80
80
80
80
80
80
80
80
80
80
80
80
ENDCHAR
STARTCHAR 23A3
ENCODING 9123
SWIDTH 576 0
DWIDTH 8 0
BBX 3 16 4 -1
BITMAP
80
80
80
80
80
80
80
80
80
80
80
80
80
80
80
E0
ENDCHAR
STARTCHAR 23A4
ENCODING 9124
SWIDTH 576 0
DWIDTH 8 0
BBX 4 16 1 -4
BITMAP
F0
10
10
10
10
10
10
10
10
10
10
10
10
10
10
10
ENDCHAR
STARTCHAR 23A5
ENCODING 9125
SWIDTH 576 0
DWIDTH 8 0
BBX 1 19 4 -4
BITMAP
80
80
80
80
80
80
80
80
80
80
80
80
80
80
80
80
80
80
80
ENDCHAR
STARTCHAR 23A6
ENCODING 9126
SWIDTH 576 0
DWIDTH 8 0
BBX 4 16 1 -1
BITMAP
10
10
10
10
10
10
10
10
10
10
10
10
10
10
10
F0
ENDCHAR
STARTCHAR 23A7
ENCODING 9127
SWIDTH 576 0
DWIDTH 8 0
BBX 3 16 4 -4
BITMAP
E0
80
80
80
80
80
80
80
80
80
80
80
80
80
80
80
ENDCHAR
STARTCHAR 23A8
ENCODING 9128
SWIDTH 576 0
DWIDTH 8 0
BBX 4 19 1 -4
BITMAP
10
10
10
10
10
10
10
10
30
E0
30
10
10
10
10
10
10
10
10
ENDCHAR
STARTCHAR 23A9
ENCODING 9129
SWIDTH 576 0
DWIDTH 8 0
BBX 3 16 4 -1
BITMAP
80
80
80
80
80
80
80
80
80
80
80
80
80
80
80
E0
ENDCHAR
STARTCHAR 23AA
ENCODING 9130
SWIDTH 576 0
DWIDTH 8 0
BBX 1 19 4 -4
BITMAP
80
80
80
80
80
80
80
80
80
80
80
80
80
80
80
80
80
80
80
ENDCHAR
STARTCHAR 23AB
ENCODING 9131
SWIDTH 576 0
DWIDTH 8 0
BBX 3 15 2 -3
BITMAP
C0
60
20
20
20
20
20
20
20
20
20
20
20
20
20
ENDCHAR
STARTCHAR 23AC
ENCODING 9132
SWIDTH 576 0
DWIDTH 8 0
BBX 4 19 4 -4
BITMAP
80
80
80
80
80
80
80
80
80
70
80
80
80
80
80
80
80
80
80
ENDCHAR
STARTCHAR 23AD
ENCODING 9133
SWIDTH 576 0
DWIDTH 8 0
BBX 3 16 2 -1
BITMAP
20
20
20
20
20
20
20
20
20
20
20
20
20
20
60
C0
ENDCHAR
STARTCHAR 23CE
ENCODING 9166
SWIDTH 576 0
DWIDTH 8 0
BBX 9 9 0 1
BITMAP
0780
0480
1480
7C80
8080
8080
5F80
3000
1000
ENDCHAR
STARTCHAR 23FB
ENCODING 9211
SWIDTH 576 0
DWIDTH 8 0
BBX 9 10 0 0
BITMAP
1800
1800
5A00
DB00
D900
9980
8980
C100
6300
3E00
ENDCHAR
STARTCHAR 23FC
ENCODING 9212
SWIDTH 576 0
DWIDTH 8 0
BBX 9 9 0 0
BITMAP
3C00
6300
C900
9980
9980
9980
C900
6300
3E00
ENDCHAR
STARTCHAR 23FD
ENCODING 9213
SWIDTH 576 0
DWIDTH 8 0
BBX 2 9 3 0
BITMAP
40
C0
C0
C0
C0
C0
C0
C0
C0
ENDCHAR
STARTCHAR 23FE
ENCODING 9214
SWIDTH 576 0
DWIDTH 8 0
BBX 9 8 0 0
BITMAP
6000
4000
C000
E000
E000
7880
7F00
1E00
ENDCHAR
STARTCHAR 2400
ENCODING 9216
SWIDTH 576 0
DWIDTH 8 0
BBX 7 11 1 0
BITMAP
90
90
D0
B0
B0
00
22
22
22
12
1C
ENDCHAR
STARTCHAR 2401
ENCODING 9217
SWIDTH 576 0
DWIDTH 8 0
BBX 7 10 1 0
BITMAP
E0
90
F0
90
F0
00
22
3E
22
22
ENDCHAR
STARTCHAR 2402
ENCODING 9218
SWIDTH 576 0
DWIDTH 8 0
BBX 7 10 1 0
BITMAP
E0
90
F0
90
E0
20
16
0C
0C
36
ENDCHAR
STARTCHAR 2403
ENCODING 9219
SWIDTH 576 0
DWIDTH 8 0
BBX 7 10 1 0
BITMAP
F0
80
E0
80
F0
20
16
0C
0C
36
ENDCHAR
STARTCHAR 2404
ENCODING 9220
SWIDTH 576 0
DWIDTH 8 0
BBX 7 11 1 0
BITMAP
F0
80
E0
80
F0
00
3E
08
08
08
08
ENDCHAR
STARTCHAR 2405
ENCODING 9221
SWIDTH 576 0
DWIDTH 8 0
BBX 7 10 1 0
BITMAP
F0
E0
80
F0
00
1C
22
22
2E
1E
ENDCHAR
STARTCHAR 2406
ENCODING 9222
SWIDTH 576 0
DWIDTH 8 0
BBX 8 10 0 0
BITMAP
30
30
50
78
88
11
12
1C
12
11
ENDCHAR
STARTCHAR 2407
ENCODING 9223
SWIDTH 576 0
DWIDTH 8 0
BBX 7 10 1 0
BITMAP
F0
90
F0
F0
00
10
10
10
10
1E
ENDCHAR
STARTCHAR 2408
ENCODING 9224
SWIDTH 576 0
DWIDTH 8 0
BBX 7 10 1 0
BITMAP
F0
E0
90
F0
00
1C
22
1C
22
1C
ENDCHAR
STARTCHAR 2409
ENCODING 9225
SWIDTH 576 0
DWIDTH 8 0
BBX 7 11 1 0
BITMAP
90
90
F0
90
90
00
3E
08
08
08
08
ENDCHAR
STARTCHAR 240A
ENCODING 9226
SWIDTH 576 0
DWIDTH 8 0
BBX 7 11 1 0
BITMAP
80
80
80
80
F0
00
1E
10
1C
10
10
ENDCHAR
STARTCHAR 240B
ENCODING 9227
SWIDTH 576 0
DWIDTH 8 0
BBX 8 11 0 0
BITMAP
88
48
48
50
30
00
1F
04
04
04
04
ENDCHAR
STARTCHAR 240C
ENCODING 9228
SWIDTH 576 0
DWIDTH 8 0
BBX 7 11 1 0
BITMAP
F0
80
F0
80
80
00
1E
10
1C
10
10
ENDCHAR
STARTCHAR 240D
ENCODING 9229
SWIDTH 576 0
DWIDTH 8 0
BBX 8 11 0 0
BITMAP
70
48
80
48
70
00
1E
11
1E
12
11
ENDCHAR
STARTCHAR 240E
ENCODING 9230
SWIDTH 576 0
DWIDTH 8 0
BBX 7 11 1 0
BITMAP
E0
90
F0
90
E0
00
1C
22
22
22
1C
ENDCHAR
STARTCHAR 240F
ENCODING 9231
SWIDTH 576 0
DWIDTH 8 0
BBX 7 10 1 0
BITMAP
E0
90
F0
90
F0
3E
08
08
08
3E
ENDCHAR
STARTCHAR 2410
ENCODING 9232
SWIDTH 576 0
DWIDTH 8 0
BBX 7 10 1 0
BITMAP
E0
90
90
E0
00
1E
20
1C
20
1E
ENDCHAR
STARTCHAR 2411
ENCODING 9233
SWIDTH 576 0
DWIDTH 8 0
BBX 7 10 1 0
BITMAP
E0
90
90
E0
00
18
18
08
08
1E
ENDCHAR
STARTCHAR 2412
ENCODING 9234
SWIDTH 576 0
DWIDTH 8 0
BBX 7 10 1 0
BITMAP
E0
90
90
E0
00
1C
12
04
08
1E
ENDCHAR
STARTCHAR 2413
ENCODING 9235
SWIDTH 576 0
DWIDTH 8 0
BBX 6 10 1 0
BITMAP
E0
90
90
E0
00
1C
08
0C
24
1C
ENDCHAR
STARTCHAR 2414
ENCODING 9236
SWIDTH 576 0
DWIDTH 8 0
BBX 6 10 1 0
BITMAP
E0
90
90
90
E0
04
08
14
1C
04
ENDCHAR
STARTCHAR 2415
ENCODING 9237
SWIDTH 576 0
DWIDTH 8 0
BBX 7 10 1 0
BITMAP
90
D0
B0
B0
00
22
24
38
24
22
ENDCHAR
STARTCHAR 2416
ENCODING 9238
SWIDTH 576 0
DWIDTH 8 0
BBX 7 10 1 0
BITMAP
E0
90
F0
90
E0
00
32
2A
2A
26
ENDCHAR
STARTCHAR 2417
ENCODING 9239
SWIDTH 576 0
DWIDTH 8 0
BBX 7 10 1 0
BITMAP
F0
80
E0
F0
00
3C
22
3C
22
3E
ENDCHAR
STARTCHAR 2418
ENCODING 9240
SWIDTH 576 0
DWIDTH 8 0
BBX 8 10 0 0
BITMAP
70
48
80
48
70
00
19
15
15
13
ENDCHAR
STARTCHAR 2419
ENCODING 9241
SWIDTH 576 0
DWIDTH 8 0
BBX 7 10 1 0
BITMAP
F0
80
E0
80
F0
00
36
36
2A
22
ENDCHAR
STARTCHAR 241A
ENCODING 9242
SWIDTH 576 0
DWIDTH 8 0
BBX 7 10 1 0
BITMAP
E0
90
F0
90
E0
3C
22
3C
22
3E
ENDCHAR
STARTCHAR 241B
ENCODING 9243
SWIDTH 576 0
DWIDTH 8 0
BBX 7 10 1 0
BITMAP
F0
E0
80
F0
00
1C
22
20
22
1C
ENDCHAR
STARTCHAR 241C
ENCODING 9244
SWIDTH 576 0
DWIDTH 8 0
BBX 7 10 1 0
BITMAP
F0
80
F0
80
00
1C
22
1C
22
1C
ENDCHAR
STARTCHAR 241D
ENCODING 9245
SWIDTH 576 0
DWIDTH 8 0
BBX 8 11 0 0
BITMAP
70
48
80
58
30
00
0E
11
0E
11
0E
ENDCHAR
STARTCHAR 241E
ENCODING 9246
SWIDTH 576 0
DWIDTH 8 0
BBX 7 10 1 0
BITMAP
F0
90
F0
A0
10
1C
22
1C
22
1C
ENDCHAR
STARTCHAR 241F
ENCODING 9247
SWIDTH 576 0
DWIDTH 8 0
BBX 7 11 1 0
BITMAP
90
90
90
90
90
60
1C
22
1C
22
1C
ENDCHAR
STARTCHAR 2420
ENCODING 9248
SWIDTH 576 0
DWIDTH 8 0
BBX 7 10 1 1
BITMAP
E0
90
F0
90
E0
00
1E
12
1E
10
ENDCHAR
STARTCHAR 2421
ENCODING 9249
SWIDTH 576 0
DWIDTH 8 0
BBX 7 10 1 0
BITMAP
E0
90
90
E0
00
10
10
10
10
1E
ENDCHAR
STARTCHAR 2423
ENCODING 9251
SWIDTH 576 0
DWIDTH 8 0
BBX 7 2 1 -2
BITMAP
82
FE
ENDCHAR
STARTCHAR 2424
ENCODING 9252
SWIDTH 576 0
DWIDTH 8 0
BBX 7 10 1 0
BITMAP
90
D0
F0
B0
00
10
10
10
10
1E
ENDCHAR
STARTCHAR 2500
ENCODING 9472
SWIDTH 576 0
DWIDTH 8 0
BBX 9 1 0 5
BITMAP
FF80
ENDCHAR
STARTCHAR 2501
ENCODING 9473
SWIDTH 576 0
DWIDTH 8 0
BBX 9 3 0 4
BITMAP
FF80
FF80
FF80
ENDCHAR
STARTCHAR 2502
ENCODING 9474
SWIDTH 576 0
DWIDTH 8 0
BBX 2 22 3 -6
BITMAP
C0
C0
C0
C0
C0
C0
C0
C0
C0
C0
C0
C0
C0
C0
C0
C0
C0
C0
C0
C0
C0
C0
ENDCHAR
STARTCHAR 2503
ENCODING 9475
SWIDTH 576 0
DWIDTH 8 0
BBX 3 22 3 -6
BITMAP
E0
E0
E0
E0
E0
E0
E0
E0
E0
E0
E0
E0
E0
E0
E0
E0
E0
E0
E0
E0
E0
E0
ENDCHAR
STARTCHAR 2504
ENCODING 9476
SWIDTH 576 0
DWIDTH 8 0
BBX 7 1 1 5
BITMAP
B6
ENDCHAR
STARTCHAR 2505
ENCODING 9477
SWIDTH 576 0
DWIDTH 8 0
BBX 7 3 1 4
BITMAP
B6
B6
B6
ENDCHAR
STARTCHAR 2506
ENCODING 9478
SWIDTH 576 0
DWIDTH 8 0
BBX 2 16 3 -3
BITMAP
C0
C0
C0
C0
C0
C0
C0
C0
C0
C0
00
C0
C0
C0
C0
C0
ENDCHAR
STARTCHAR 2507
ENCODING 9479
SWIDTH 576 0
DWIDTH 8 0
BBX 3 16 3 -3
BITMAP
E0
E0
E0
E0
E0
E0
E0
E0
E0
E0
E0
E0
E0
E0
E0
E0
ENDCHAR
STARTCHAR 2508
ENCODING 9480
SWIDTH 576 0
DWIDTH 8 0
BBX 8 1 0 5
BITMAP
F5
ENDCHAR
STARTCHAR 2509
ENCODING 9481
SWIDTH 576 0
DWIDTH 8 0
BBX 8 3 0 4
BITMAP
F5
F5
F5
ENDCHAR
STARTCHAR 250A
ENCODING 9482
SWIDTH 576 0
DWIDTH 8 0
BBX 2 16 3 -3
BITMAP
C0
C0
C0
00
C0
C0
C0
00
00
C0
C0
C0
00
C0
C0
C0
ENDCHAR
STARTCHAR 250B
ENCODING 9483
SWIDTH 576 0
DWIDTH 8 0
BBX 3 16 3 -3
BITMAP
E0
E0
E0
00
E0
E0
E0
00
00
E0
E0
E0
00
E0
E0
E0
ENDCHAR
STARTCHAR 250C
ENCODING 9484
SWIDTH 576 0
DWIDTH 8 0
BBX 6 11 3 -5
BITMAP
FC
C0
C0
C0
C0
C0
C0
C0
C0
C0
C0
ENDCHAR
STARTCHAR 250D
ENCODING 9485
SWIDTH 576 0
DWIDTH 8 0
BBX 6 12 3 -5
BITMAP
FC
FC
FC
C0
C0
C0
C0
C0
C0
C0
C0
C0
ENDCHAR
STARTCHAR 250E
ENCODING 9486
SWIDTH 576 0
DWIDTH 8 0
BBX 6 11 3 -5
BITMAP
FC
E0
E0
E0
E0
E0
E0
E0
E0
E0
E0
ENDCHAR
STARTCHAR 250F
ENCODING 9487
SWIDTH 576 0
DWIDTH 8 0
BBX 6 12 3 -5
BITMAP
FC
FC
FC
E0
E0
E0
E0
E0
E0
E0
E0
E0
ENDCHAR
STARTCHAR 2510
ENCODING 9488
SWIDTH 576 0
DWIDTH 8 0
BBX 5 11 0 -5
BITMAP
F8
18
18
18
18
18
18
18
18
18
18
ENDCHAR
STARTCHAR 2511
ENCODING 9489
SWIDTH 576 0
DWIDTH 8 0
BBX 5 12 0 -5
BITMAP
F8
F8
F8
18
18
18
18
18
18
18
18
18
ENDCHAR
STARTCHAR 2512
ENCODING 9490
SWIDTH 576 0
DWIDTH 8 0
BBX 6 11 0 -5
BITMAP
FC
1C
1C
1C
1C
1C
1C
1C
1C
1C
1C
ENDCHAR
STARTCHAR 2513
ENCODING 9491
SWIDTH 576 0
DWIDTH 8 0
BBX 6 12 0 -5
BITMAP
FC
FC
FC
1C
1C
1C
1C
1C
1C
1C
1C
1C
ENDCHAR
STARTCHAR 2514
ENCODING 9492
SWIDTH 576 0
DWIDTH 8 0
BBX 6 11 3 5
BITMAP
C0
C0
C0
C0
C0
C0
C0
C0
C0
C0
FC
ENDCHAR
STARTCHAR 2515
ENCODING 9493
SWIDTH 576 0
DWIDTH 8 0
BBX 6 12 3 4
BITMAP
C0
C0
C0
C0
C0
C0
C0
C0
C0
FC
FC
FC
ENDCHAR
STARTCHAR 2516
ENCODING 9494
SWIDTH 576 0
DWIDTH 8 0
BBX 6 11 3 5
BITMAP
E0
E0
E0
E0
E0
E0
E0
E0
E0
E0
FC
ENDCHAR
STARTCHAR 2517
ENCODING 9495
SWIDTH 576 0
DWIDTH 8 0
BBX 6 12 3 4
BITMAP
E0
E0
E0
E0
E0
E0
E0
E0
E0
FC
FC
FC
ENDCHAR
STARTCHAR 2518
ENCODING 9496
SWIDTH 576 0
DWIDTH 8 0
BBX 5 11 0 5
BITMAP
18
18
18
18
18
18
18
18
18
18
F8
ENDCHAR
STARTCHAR 2519
ENCODING 9497
SWIDTH 576 0
DWIDTH 8 0
BBX 5 12 0 4
BITMAP
18
18
18
18
18
18
18
18
18
F8
F8
F8
ENDCHAR
STARTCHAR 251A
ENCODING 9498
SWIDTH 576 0
DWIDTH 8 0
BBX 6 11 0 5
BITMAP
1C
1C
1C
1C
1C
1C
1C
1C
1C
1C
FC
ENDCHAR
STARTCHAR 251B
ENCODING 9499
SWIDTH 576 0
DWIDTH 8 0
BBX 6 12 0 4
BITMAP
1C
1C
1C
1C
1C
1C
1C
1C
1C
FC
FC
FC
ENDCHAR
STARTCHAR 251C
ENCODING 9500
SWIDTH 576 0
DWIDTH 8 0
BBX 6 21 3 -5
BITMAP
C0
C0
C0
C0
C0
C0
C0
C0
C0
C0
FC
C0
C0
C0
C0
C0
C0
C0
C0
C0
C0
ENDCHAR
STARTCHAR 251D
ENCODING 9501
SWIDTH 576 0
DWIDTH 8 0
BBX 6 21 3 -5
BITMAP
C0
C0
C0
C0
C0
C0
C0
C0
C0
FC
FC
FC
C0
C0
C0
C0
C0
C0
C0
C0
C0
ENDCHAR
STARTCHAR 251E
ENCODING 9502
SWIDTH 576 0
DWIDTH 8 0
BBX 6 21 3 -5
BITMAP
E0
E0
E0
E0
E0
E0
E0
E0
E0
E0
FC
C0
C0
C0
C0
C0
C0
C0
C0
C0
C0
ENDCHAR
STARTCHAR 251F
ENCODING 9503
SWIDTH 576 0
DWIDTH 8 0
BBX 6 21 3 -5
BITMAP
C0
C0
C0
C0
C0
C0
C0
C0
C0
C0
FC
E0
E0
E0
E0
E0
E0
E0
E0
E0
E0
ENDCHAR
STARTCHAR 2520
ENCODING 9504
SWIDTH 576 0
DWIDTH 8 0
BBX 6 21 3 -5
BITMAP
E0
E0
E0
E0
E0
E0
E0
E0
E0
E0
FC
E0
E0
E0
E0
E0
E0
E0
E0
E0
E0
ENDCHAR
STARTCHAR 2521
ENCODING 9505
SWIDTH 576 0
DWIDTH 8 0
BBX 6 21 3 -5
BITMAP
E0
E0
E0
E0
E0
E0
E0
E0
E0
FC
FC
FC
C0
C0
C0
C0
C0
C0
C0
C0
C0
ENDCHAR
STARTCHAR 2522
ENCODING 9506
SWIDTH 576 0
DWIDTH 8 0
BBX 6 21 3 -5
BITMAP
C0
C0
C0
C0
C0
C0
C0
C0
C0
FC
FC
FC
E0
E0
E0
E0
E0
E0
E0
E0
E0
ENDCHAR
STARTCHAR 2523
ENCODING 9507
SWIDTH 576 0
DWIDTH 8 0
BBX 6 21 3 -5
BITMAP
E0
E0
E0
E0
E0
E0
E0
E0
E0
FC
FC
FC
E0
E0
E0
E0
E0
E0
E0
E0
E0
ENDCHAR
STARTCHAR 2524
ENCODING 9508
SWIDTH 576 0
DWIDTH 8 0
BBX 5 21 0 -5
BITMAP
18
18
18
18
18
18
18
18
18
18
F8
18
18
18
18
18
18
18
18
18
18
ENDCHAR
STARTCHAR 2525
ENCODING 9509
SWIDTH 576 0
DWIDTH 8 0
BBX 5 21 0 -5
BITMAP
18
18
18
18
18
18
18
18
18
F8
F8
F8
18
18
18
18
18
18
18
18
18
ENDCHAR
STARTCHAR 2526
ENCODING 9510
SWIDTH 576 0
DWIDTH 8 0
BBX 6 21 0 -5
BITMAP
1C
1C
1C
1C
1C
1C
1C
1C
1C
1C
FC
18
18
18
18
18
18
18
18
18
18
ENDCHAR
STARTCHAR 2527
ENCODING 9511
SWIDTH 576 0
DWIDTH 8 0
BBX 6 20 0 -5
BITMAP
18
18
18
18
18
18
18
18
18
FC
1C
1C
1C
1C
1C
1C
1C
1C
1C
1C
ENDCHAR
STARTCHAR 2528
ENCODING 9512
SWIDTH 576 0
DWIDTH 8 0
BBX 6 21 0 -5
BITMAP
1C
1C
1C
1C
1C
1C
1C
1C
1C
1C
FC
1C
1C
1C
1C
1C
1C
1C
1C
1C
1C
ENDCHAR
STARTCHAR 2529
ENCODING 9513
SWIDTH 576 0
DWIDTH 8 0
BBX 6 21 0 -5
BITMAP
1C
1C
1C
1C
1C
1C
1C
1C
1C
FC
FC
FC
18
18
18
18
18
18
18
18
18
ENDCHAR
STARTCHAR 252A
ENCODING 9514
SWIDTH 576 0
DWIDTH 8 0
BBX 6 21 0 -5
BITMAP
18
18
18
18
18
18
18
18
18
FC
FC
FC
1C
1C
1C
1C
1C
1C
1C
1C
1C
ENDCHAR
STARTCHAR 252B
ENCODING 9515
SWIDTH 576 0
DWIDTH 8 0
BBX 6 21 0 -5
BITMAP
1C
1C
1C
1C
1C
1C
1C
1C
1C
FC
FC
FC
1C
1C
1C
1C
1C
1C
1C
1C
1C
ENDCHAR
STARTCHAR 252C
ENCODING 9516
SWIDTH 576 0
DWIDTH 8 0
BBX 9 11 0 -5
BITMAP
FF80
1800
1800
1800
1800
1800
1800
1800
1800
1800
1800
ENDCHAR
STARTCHAR 252D
ENCODING 9517
SWIDTH 576 0
DWIDTH 8 0
BBX 9 12 0 -5
BITMAP
F800
FF80
F800
1800
1800
1800
1800
1800
1800
1800
1800
1800
ENDCHAR
STARTCHAR 252E
ENCODING 9518
SWIDTH 576 0
DWIDTH 8 0
BBX 9 12 0 -5
BITMAP
1F80
FF80
1F80
1800
1800
1800
1800
1800
1800
1800
1800
1800
ENDCHAR
STARTCHAR 252F
ENCODING 9519
SWIDTH 576 0
DWIDTH 8 0
BBX 9 12 0 -5
BITMAP
FF80
FF80
FF80
1800
1800
1800
1800
1800
1800
1800
1800
1800
ENDCHAR
STARTCHAR 2530
ENCODING 9520
SWIDTH 576 0
DWIDTH 8 0
BBX 9 11 0 -5
BITMAP
FF80
1C00
1C00
1C00
1C00
1C00
1C00
1C00
1C00
1C00
1C00
ENDCHAR
STARTCHAR 2531
ENCODING 9521
SWIDTH 576 0
DWIDTH 8 0
BBX 9 12 0 -5
BITMAP
FC00
FF80
FC00
1C00
1C00
1C00
1C00
1C00
1C00
1C00
1C00
1C00
ENDCHAR
STARTCHAR 2532
ENCODING 9522
SWIDTH 576 0
DWIDTH 8 0
BBX 9 12 0 -5
BITMAP
1F80
FF80
1F80
1C00
1C00
1C00
1C00
1C00
1C00
1C00
1C00
1C00
ENDCHAR
STARTCHAR 2533
ENCODING 9523
SWIDTH 576 0
DWIDTH 8 0
BBX 9 12 0 -5
BITMAP
FF80
FF80
FF80
1C00
1C00
1C00
1C00
1C00
1C00
1C00
1C00
1C00
ENDCHAR
STARTCHAR 2534
ENCODING 9524
SWIDTH 576 0
DWIDTH 8 0
BBX 9 11 0 5
BITMAP
1800
1800
1800
1800
1800
1800
1800
1800
1800
1800
FF80
ENDCHAR
STARTCHAR 2535
ENCODING 9525
SWIDTH 576 0
DWIDTH 8 0
BBX 9 12 0 4
BITMAP
1800
1800
1800
1800
1800
1800
1800
1800
1800
F800
FF80
F800
ENDCHAR
STARTCHAR 2536
ENCODING 9526
SWIDTH 576 0
DWIDTH 8 0
BBX 9 12 0 4
BITMAP
1800
1800
1800
1800
1800
1800
1800
1800
1800
1F80
FF80
1F80
ENDCHAR
STARTCHAR 2537
ENCODING 9527
SWIDTH 576 0
DWIDTH 8 0
BBX 9 12 0 4
BITMAP
1800
1800
1800
1800
1800
1800
1800
1800
1800
FF80
FF80
FF80
ENDCHAR
STARTCHAR 2538
ENCODING 9528
SWIDTH 576 0
DWIDTH 8 0
BBX 9 11 0 5
BITMAP
1C00
1C00
1C00
1C00
1C00
1C00
1C00
1C00
1C00
1C00
FF80
ENDCHAR
STARTCHAR 2539
ENCODING 9529
SWIDTH 576 0
DWIDTH 8 0
BBX 9 12 0 4
BITMAP
1C00
1C00
1C00
1C00
1C00
1C00
1C00
1C00
1C00
FC00
FF80
FC00
ENDCHAR
STARTCHAR 253A
ENCODING 9530
SWIDTH 576 0
DWIDTH 8 0
BBX 9 12 0 4
BITMAP
1C00
1C00
1C00
1C00
1C00
1C00
1C00
1C00
1C00
1F80
FF80
1F80
ENDCHAR
STARTCHAR 253B
ENCODING 9531
SWIDTH 576 0
DWIDTH 8 0
BBX 9 12 0 4
BITMAP
1C00
1C00
1C00
1C00
1C00
1C00
1C00
1C00
1C00
FF80
FF80
FF80
ENDCHAR
STARTCHAR 253C
ENCODING 9532
SWIDTH 576 0
DWIDTH 8 0
BBX 9 21 0 -5
BITMAP
1800
1800
1800
1800
1800
1800
1800
1800
1800
1800
FF80
1800
1800
1800
1800
1800
1800
1800
1800
1800
1800
ENDCHAR
STARTCHAR 253D
ENCODING 9533
SWIDTH 576 0
DWIDTH 8 0
BBX 9 21 0 -5
BITMAP
1800
1800
1800
1800
1800
1800
1800
1800
1800
F800
FF80
F800
1800
1800
1800
1800
1800
1800
1800
1800
1800
ENDCHAR
STARTCHAR 253E
ENCODING 9534
SWIDTH 576 0
DWIDTH 8 0
BBX 9 21 0 -5
BITMAP
1800
1800
1800
1800
1800
1800
1800
1800
1800
1F80
FF80
1F80
1800
1800
1800
1800
1800
1800
1800
1800
1800
ENDCHAR
STARTCHAR 253F
ENCODING 9535
SWIDTH 576 0
DWIDTH 8 0
BBX 9 21 0 -5
BITMAP
1800
1800
1800
1800
1800
1800
1800
1800
1800
FF80
FF80
FF80
1800
1800
1800
1800
1800
1800
1800
1800
1800
ENDCHAR
STARTCHAR 2540
ENCODING 9536
SWIDTH 576 0
DWIDTH 8 0
BBX 9 21 0 -5
BITMAP
1C00
1C00
1C00
1C00
1C00
1C00
1C00
1C00
1C00
1C00
FF80
1800
1800
1800
1800
1800
1800
1800
1800
1800
1800
ENDCHAR
STARTCHAR 2541
ENCODING 9537
SWIDTH 576 0
DWIDTH 8 0
BBX 9 21 0 -5
BITMAP
1800
1800
1800
1800
1800
1800
1800
1800
1800
1800
FF80
1C00
1C00
1C00
1C00
1C00
1C00
1C00
1C00
1C00
1C00
ENDCHAR
STARTCHAR 2542
ENCODING 9538
SWIDTH 576 0
DWIDTH 8 0
BBX 9 21 0 -5
BITMAP
1C00
1C00
1C00
1C00
1C00
1C00
1C00
1C00
1C00
1C00
FF80
1C00
1C00
1C00
1C00
1C00
1C00
1C00
1C00
1C00
1C00
ENDCHAR
STARTCHAR 2543
ENCODING 9539
SWIDTH 576 0
DWIDTH 8 0
BBX 9 21 0 -5
BITMAP
1C00
1C00
1C00
1C00
1C00
1C00
1C00
1C00
1C00
FC00
FF80
FC00
1800
1800
1800
1800
1800
1800
1800
1800
1800
ENDCHAR
STARTCHAR 2544
ENCODING 9540
SWIDTH 576 0
DWIDTH 8 0
BBX 9 21 0 -5
BITMAP
1C00
1C00
1C00
1C00
1C00
1C00
1C00
1C00
1C00
1F80
FF80
1F80
1800
1800
1800
1800
1800
1800
1800
1800
1800
ENDCHAR
STARTCHAR 2545
ENCODING 9541
SWIDTH 576 0
DWIDTH 8 0
BBX 9 21 0 -5
BITMAP
1800
1800
1800
1800
1800
1800
1800
1800
1800
FC00
FF80
FC00
1C00
1C00
1C00
1C00
1C00
1C00
1C00
1C00
1C00
ENDCHAR
STARTCHAR 2546
ENCODING 9542
SWIDTH 576 0
DWIDTH 8 0
BBX 9 21 0 -5
BITMAP
1800
1800
1800
1800
1800
1800
1800
1800
1800
1F80
FF80
1F80
1C00
1C00
1C00
1C00
1C00
1C00
1C00
1C00
1C00
ENDCHAR
STARTCHAR 2547
ENCODING 9543
SWIDTH 576 0
DWIDTH 8 0
BBX 9 21 0 -5
BITMAP
1C00
1C00
1C00
1C00
1C00
1C00
1C00
1C00
1C00
FF80
FF80
FF80
1800
1800
1800
1800
1800
1800
1800
1800
1800
ENDCHAR
STARTCHAR 2548
ENCODING 9544
SWIDTH 576 0
DWIDTH 8 0
BBX 9 21 0 -5
BITMAP
1800
1800
1800
1800
1800
1800
1800
1800
1800
FF80
FF80
FF80
1C00
1C00
1C00
1C00
1C00
1C00
1C00
1C00
1C00
ENDCHAR
STARTCHAR 2549
ENCODING 9545
SWIDTH 576 0
DWIDTH 8 0
BBX 9 21 0 -5
BITMAP
1C00
1C00
1C00
1C00
1C00
1C00
1C00
1C00
1C00
FC00
FF80
FC00
1C00
1C00
1C00
1C00
1C00
1C00
1C00
1C00
1C00
ENDCHAR
STARTCHAR 254A
ENCODING 9546
SWIDTH 576 0
DWIDTH 8 0
BBX 9 21 0 -5
BITMAP
1C00
1C00
1C00
1C00
1C00
1C00
1C00
1C00
1C00
1F80
FF80
1F80
1C00
1C00
1C00
1C00
1C00
1C00
1C00
1C00
1C00
ENDCHAR
STARTCHAR 254B
ENCODING 9547
SWIDTH 576 0
DWIDTH 8 0
BBX 9 21 0 -5
BITMAP
1C00
1C00
1C00
1C00
1C00
1C00
1C00
1C00
1C00
FF80
FF80
FF80
1C00
1C00
1C00
1C00
1C00
1C00
1C00
1C00
1C00
ENDCHAR
STARTCHAR 254C
ENCODING 9548
SWIDTH 576 0
DWIDTH 8 0
BBX 6 1 1 5
BITMAP
CC
ENDCHAR
STARTCHAR 254D
ENCODING 9549
SWIDTH 576 0
DWIDTH 8 0
BBX 6 3 1 4
BITMAP
CC
CC
CC
ENDCHAR
STARTCHAR 254E
ENCODING 9550
SWIDTH 576 0
DWIDTH 8 0
BBX 2 15 3 -2
BITMAP
C0
C0
C0
C0
C0
C0
C0
00
C0
C0
C0
C0
C0
C0
C0
ENDCHAR
STARTCHAR 254F
ENCODING 9551
SWIDTH 576 0
DWIDTH 8 0
BBX 3 14 3 -2
BITMAP
E0
E0
E0
E0
E0
E0
00
00
E0
E0
E0
E0
E0
E0
ENDCHAR
STARTCHAR 2550
ENCODING 9552
SWIDTH 576 0
DWIDTH 8 0
BBX 9 4 0 3
BITMAP
FF80
0000
0000
FF80
ENDCHAR
STARTCHAR 2551
ENCODING 9553
SWIDTH 576 0
DWIDTH 8 0
BBX 4 22 2 -6
BITMAP
D0
D0
D0
D0
D0
D0
D0
D0
D0
D0
D0
D0
D0
D0
D0
D0
D0
D0
D0
D0
D0
D0
ENDCHAR
STARTCHAR 2552
ENCODING 9554
SWIDTH 576 0
DWIDTH 8 0
BBX 6 13 3 -6
BITMAP
FC
C0
C0
FC
C0
C0
C0
C0
C0
C0
C0
C0
C0
ENDCHAR
STARTCHAR 2553
ENCODING 9555
SWIDTH 576 0
DWIDTH 8 0
BBX 7 11 2 -5
BITMAP
FE
D0
D0
D0
D0
D0
D0
D0
D0
D0
D0
ENDCHAR
STARTCHAR 2554
ENCODING 9556
SWIDTH 576 0
DWIDTH 8 0
BBX 7 13 2 -6
BITMAP
FE
C0
C0
DE
D0
D0
D0
D0
D0
D0
D0
D0
D0
ENDCHAR
STARTCHAR 2555
ENCODING 9557
SWIDTH 576 0
DWIDTH 8 0
BBX 5 13 0 -6
BITMAP
F8
18
18
F8
18
18
18
18
18
18
18
18
18
ENDCHAR
STARTCHAR 2556
ENCODING 9558
SWIDTH 576 0
DWIDTH 8 0
BBX 6 11 0 -5
BITMAP
FC
34
34
34
34
34
34
34
34
34
34
ENDCHAR
STARTCHAR 2557
ENCODING 9559
SWIDTH 576 0
DWIDTH 8 0
BBX 6 13 0 -6
BITMAP
FC
04
04
F4
34
34
34
34
34
34
34
34
34
ENDCHAR
STARTCHAR 2558
ENCODING 9560
SWIDTH 576 0
DWIDTH 8 0
BBX 6 12 3 3
BITMAP
C0
C0
C0
C0
C0
C0
C0
C0
FC
C0
C0
FC
ENDCHAR
STARTCHAR 2559
ENCODING 9561
SWIDTH 576 0
DWIDTH 8 0
BBX 7 11 2 5
BITMAP
D0
D0
D0
D0
D0
D0
D0
D0
D0
D0
FE
ENDCHAR
STARTCHAR 255A
ENCODING 9562
SWIDTH 576 0
DWIDTH 8 0
BBX 7 12 2 3
BITMAP
D0
D0
D0
D0
D0
D0
D0
D0
DE
C0
C0
FE
ENDCHAR
STARTCHAR 255B
ENCODING 9563
SWIDTH 576 0
DWIDTH 8 0
BBX 5 12 0 3
BITMAP
18
18
18
18
18
18
18
18
F8
18
18
F8
ENDCHAR
STARTCHAR 255C
ENCODING 9564
SWIDTH 576 0
DWIDTH 8 0
BBX 6 11 0 5
BITMAP
34
34
34
34
34
34
34
34
34
34
FC
ENDCHAR
STARTCHAR 255D
ENCODING 9565
SWIDTH 576 0
DWIDTH 8 0
BBX 6 12 0 3
BITMAP
34
34
34
34
34
34
34
34
F4
04
04
FC
ENDCHAR
STARTCHAR 255E
ENCODING 9566
SWIDTH 576 0
DWIDTH 8 0
BBX 6 21 3 -6
BITMAP
C0
C0
C0
C0
C0
C0
C0
C0
FC
C0
C0
FC
C0
C0
C0
C0
C0
C0
C0
C0
C0
ENDCHAR
STARTCHAR 255F
ENCODING 9567
SWIDTH 576 0
DWIDTH 8 0
BBX 7 21 2 -5
BITMAP
D0
D0
D0
D0
D0
D0
D0
D0
D0
D0
DE
D0
D0
D0
D0
D0
D0
D0
D0
D0
D0
ENDCHAR
STARTCHAR 2560
ENCODING 9568
SWIDTH 576 0
DWIDTH 8 0
BBX 7 21 2 -6
BITMAP
D0
D0
D0
D0
D0
D0
D0
D0
DE
C0
C0
DE
D0
D0
D0
D0
D0
D0
D0
D0
D0
ENDCHAR
STARTCHAR 2561
ENCODING 9569
SWIDTH 576 0
DWIDTH 8 0
BBX 5 21 0 -6
BITMAP
18
18
18
18
18
18
18
18
F8
18
18
F8
18
18
18
18
18
18
18
18
18
ENDCHAR
STARTCHAR 2562
ENCODING 9570
SWIDTH 576 0
DWIDTH 8 0
BBX 6 21 0 -5
BITMAP
34
34
34
34
34
34
34
34
34
34
F4
34
34
34
34
34
34
34
34
34
34
ENDCHAR
STARTCHAR 2563
ENCODING 9571
SWIDTH 576 0
DWIDTH 8 0
BBX 6 21 0 -6
BITMAP
34
34
34
34
34
34
34
34
F4
04
04
F4
34
34
34
34
34
34
34
34
34
ENDCHAR
STARTCHAR 2564
ENCODING 9572
SWIDTH 576 0
DWIDTH 8 0
BBX 9 13 0 -6
BITMAP
FF80
0000
0000
FF80
1800
1800
1800
1800
1800
1800
1800
1800
1800
ENDCHAR
STARTCHAR 2565
ENCODING 9573
SWIDTH 576 0
DWIDTH 8 0
BBX 9 11 0 -5
BITMAP
FF80
3400
3400
3400
3400
3400
3400
3400
3400
3400
3400
ENDCHAR
STARTCHAR 2566
ENCODING 9574
SWIDTH 576 0
DWIDTH 8 0
BBX 9 13 0 -6
BITMAP
FF80
0000
0000
F780
3400
3400
3400
3400
3400
3400
3400
3400
3400
ENDCHAR
STARTCHAR 2567
ENCODING 9575
SWIDTH 576 0
DWIDTH 8 0
BBX 9 12 0 3
BITMAP
1800
1800
1800
1800
1800
1800
1800
1800
FF80
0000
0000
FF80
ENDCHAR
STARTCHAR 2568
ENCODING 9576
SWIDTH 576 0
DWIDTH 8 0
BBX 9 11 0 5
BITMAP
3400
3400
3400
3400
3400
3400
3400
3400
3400
3400
FF80
ENDCHAR
STARTCHAR 2569
ENCODING 9577
SWIDTH 576 0
DWIDTH 8 0
BBX 9 12 0 3
BITMAP
3400
3400
3400
3400
3400
3400
3400
3400
F780
0000
0000
FF80
ENDCHAR
STARTCHAR 256A
ENCODING 9578
SWIDTH 576 0
DWIDTH 8 0
BBX 9 21 0 -6
BITMAP
1800
1800
1800
1800
1800
1800
1800
1800
FF80
1800
1800
FF80
1800
1800
1800
1800
1800
1800
1800
1800
1800
ENDCHAR
STARTCHAR 256B
ENCODING 9579
SWIDTH 576 0
DWIDTH 8 0
BBX 9 21 0 -5
BITMAP
3400
3400
3400
3400
3400
3400
3400
3400
3400
3400
FF80
3400
3400
3400
3400
3400
3400
3400
3400
3400
3400
ENDCHAR
STARTCHAR 256C
ENCODING 9580
SWIDTH 576 0
DWIDTH 8 0
BBX 9 21 0 -6
BITMAP
3400
3400
3400
3400
3400
3400
3400
3400
F780
0000
0000
F780
3400
3400
3400
3400
3400
3400
3400
3400
3400
ENDCHAR
STARTCHAR 256D
ENCODING 9581
SWIDTH 576 0
DWIDTH 8 0
BBX 6 11 3 -5
BITMAP
1C
70
60
40
40
C0
C0
C0
C0
C0
C0
ENDCHAR
STARTCHAR 256E
ENCODING 9582
SWIDTH 576 0
DWIDTH 8 0
BBX 5 11 0 -5
BITMAP
E0
30
18
18
18
18
18
18
18
18
18
ENDCHAR
STARTCHAR 256F
ENCODING 9583
SWIDTH 576 0
DWIDTH 8 0
BBX 5 11 0 5
BITMAP
18
18
18
18
18
18
18
18
18
30
E0
ENDCHAR
STARTCHAR 2570
ENCODING 9584
SWIDTH 576 0
DWIDTH 8 0
BBX 6 11 3 5
BITMAP
C0
C0
C0
C0
C0
C0
C0
40
40
60
1C
ENDCHAR
STARTCHAR 2571
ENCODING 9585
SWIDTH 576 0
DWIDTH 8 0
BBX 9 15 0 -2
BITMAP
0080
0180
0300
0200
0600
0400
0C00
0800
1800
1000
2000
6000
4000
C000
8000
ENDCHAR
STARTCHAR 2572
ENCODING 9586
SWIDTH 576 0
DWIDTH 8 0
BBX 9 15 0 -2
BITMAP
8000
8000
C000
6000
2000
3000
1000
1800
0800
0C00
0400
0200
0300
0100
0180
ENDCHAR
STARTCHAR 2573
ENCODING 9587
SWIDTH 576 0
DWIDTH 8 0
BBX 9 15 0 -2
BITMAP
8080
8180
C300
6200
2600
3400
1C00
1800
1800
1C00
2400
6200
4300
C100
8180
ENDCHAR
STARTCHAR 2574
ENCODING 9588
SWIDTH 576 0
DWIDTH 8 0
BBX 5 1 0 5
BITMAP
F8
ENDCHAR
STARTCHAR 2575
ENCODING 9589
SWIDTH 576 0
DWIDTH 8 0
BBX 2 11 3 4
BITMAP
C0
C0
C0
C0
C0
C0
C0
C0
C0
C0
C0
ENDCHAR
STARTCHAR 2576
ENCODING 9590
SWIDTH 576 0
DWIDTH 8 0
BBX 6 1 3 5
BITMAP
FC
ENDCHAR
STARTCHAR 2577
ENCODING 9591
SWIDTH 576 0
DWIDTH 8 0
BBX 2 12 3 -6
BITMAP
C0
C0
C0
C0
C0
C0
C0
C0
C0
C0
C0
C0
ENDCHAR
STARTCHAR 2578
ENCODING 9592
SWIDTH 576 0
DWIDTH 8 0
BBX 5 3 0 4
BITMAP
F8
F8
F8
ENDCHAR
STARTCHAR 2579
ENCODING 9593
SWIDTH 576 0
DWIDTH 8 0
BBX 3 11 3 4
BITMAP
E0
E0
E0
E0
E0
E0
E0
E0
E0
E0
E0
ENDCHAR
STARTCHAR 257A
ENCODING 9594
SWIDTH 576 0
DWIDTH 8 0
BBX 6 3 3 4
BITMAP
FC
FC
FC
ENDCHAR
STARTCHAR 257B
ENCODING 9595
SWIDTH 576 0
DWIDTH 8 0
BBX 3 12 3 -6
BITMAP
E0
E0
E0
E0
E0
E0
E0
E0
E0
E0
E0
E0
ENDCHAR
STARTCHAR 257C
ENCODING 9596
SWIDTH 576 0
DWIDTH 8 0
BBX 9 3 0 4
BITMAP
1F80
FF80
1F80
ENDCHAR
STARTCHAR 257D
ENCODING 9597
SWIDTH 576 0
DWIDTH 8 0
BBX 3 22 3 -6
BITMAP
C0
C0
C0
C0
C0
C0
C0
C0
C0
C0
E0
E0
E0
E0
E0
E0
E0
E0
E0
E0
E0
E0
ENDCHAR
STARTCHAR 257E
ENCODING 9598
SWIDTH 576 0
DWIDTH 8 0
BBX 9 3 0 4
BITMAP
F800
FF80
F800
ENDCHAR
STARTCHAR 257F
ENCODING 9599
SWIDTH 576 0
DWIDTH 8 0
BBX 3 22 3 -6
BITMAP
E0
E0
E0
E0
E0
E0
E0
E0
E0
E0
E0
E0
C0
C0
C0
C0
C0
C0
C0
C0
C0
C0
ENDCHAR
STARTCHAR 2580
ENCODING 9600
SWIDTH 576 0
DWIDTH 8 0
BBX 8 9 0 5
BITMAP
FF
FF
FF
FF
FF
FF
FF
FF
FF
ENDCHAR
STARTCHAR 2581
ENCODING 9601
SWIDTH 576 0
DWIDTH 8 0
BBX 8 2 0 -4
BITMAP
FF
FF
ENDCHAR
STARTCHAR 2582
ENCODING 9602
SWIDTH 576 0
DWIDTH 8 0
BBX 8 5 0 -4
BITMAP
FF
FF
FF
FF
FF
ENDCHAR
STARTCHAR 2583
ENCODING 9603
SWIDTH 576 0
DWIDTH 8 0
BBX 8 7 0 -4
BITMAP
FF
FF
FF
FF
FF
FF
FF
ENDCHAR
STARTCHAR 2584
ENCODING 9604
SWIDTH 576 0
DWIDTH 8 0
BBX 8 9 0 -4
BITMAP
FF
FF
FF
FF
FF
FF
FF
FF
FF
ENDCHAR
STARTCHAR 2585
ENCODING 9605
SWIDTH 576 0
DWIDTH 8 0
BBX 8 12 0 -4
BITMAP
FF
FF
FF
FF
FF
FF
FF
FF
FF
FF
FF
FF
ENDCHAR
STARTCHAR 2586
ENCODING 9606
SWIDTH 576 0
DWIDTH 8 0
BBX 8 14 0 -4
BITMAP
FF
FF
FF
FF
FF
FF
FF
FF
FF
FF
FF
FF
FF
FF
ENDCHAR
STARTCHAR 2587
ENCODING 9607
SWIDTH 576 0
DWIDTH 8 0
BBX 8 16 0 -4
BITMAP
FF
FF
FF
FF
FF
FF
FF
FF
FF
FF
FF
FF
FF
FF
FF
FF
ENDCHAR
STARTCHAR 2588
ENCODING 9608
SWIDTH 576 0
DWIDTH 8 0
BBX 8 19 0 -4
BITMAP
FF
FF
FF
FF
FF
FF
FF
FF
FF
FF
FF
FF
FF
FF
FF
FF
FF
FF
FF
ENDCHAR
STARTCHAR 2589
ENCODING 9609
SWIDTH 576 0
DWIDTH 8 0
BBX 7 19 0 -4
BITMAP
FE
FE
FE
FE
FE
FE
FE
FE
FE
FE
FE
FE
FE
FE
FE
FE
FE
FE
FE
ENDCHAR
STARTCHAR 258A
ENCODING 9610
SWIDTH 576 0
DWIDTH 8 0
BBX 6 19 0 -4
BITMAP
FC
FC
FC
FC
FC
FC
FC
FC
FC
FC
FC
FC
FC
FC
FC
FC
FC
FC
FC
ENDCHAR
STARTCHAR 258B
ENCODING 9611
SWIDTH 576 0
DWIDTH 8 0
BBX 5 19 0 -4
BITMAP
F8
F8
F8
F8
F8
F8
F8
F8
F8
F8
F8
F8
F8
F8
F8
F8
F8
F8
F8
ENDCHAR
STARTCHAR 258C
ENCODING 9612
SWIDTH 576 0
DWIDTH 8 0
BBX 4 19 0 -4
BITMAP
F0
F0
F0
F0
F0
F0
F0
F0
F0
F0
F0
F0
F0
F0
F0
F0
F0
F0
F0
ENDCHAR
STARTCHAR 258D
ENCODING 9613
SWIDTH 576 0
DWIDTH 8 0
BBX 3 19 0 -4
BITMAP
E0
E0
E0
E0
E0
E0
E0
E0
E0
E0
E0
E0
E0
E0
E0
E0
E0
E0
E0
ENDCHAR
STARTCHAR 258E
ENCODING 9614
SWIDTH 576 0
DWIDTH 8 0
BBX 2 19 0 -4
BITMAP
C0
C0
C0
C0
C0
C0
C0
C0
C0
C0
C0
C0
C0
C0
C0
C0
C0
C0
C0
ENDCHAR
STARTCHAR 258F
ENCODING 9615
SWIDTH 576 0
DWIDTH 8 0
BBX 1 19 0 -4
BITMAP
80
80
80
80
80
80
80
80
80
80
80
80
80
80
80
80
80
80
80
ENDCHAR
STARTCHAR 2590
ENCODING 9616
SWIDTH 576 0
DWIDTH 8 0
BBX 4 19 4 -4
BITMAP
F0
F0
F0
F0
F0
F0
F0
F0
F0
F0
F0
F0
F0
F0
F0
F0
F0
F0
F0
ENDCHAR
STARTCHAR 2591
ENCODING 9617
SWIDTH 576 0
DWIDTH 8 0
BBX 7 17 1 -3
BITMAP
D6
D6
00
D6
00
D6
D6
00
D6
00
D6
D6
00
D6
00
D6
94
ENDCHAR
STARTCHAR 2592
ENCODING 9618
SWIDTH 576 0
DWIDTH 8 0
BBX 8 18 0 -4
BITMAP
FF
6B
B5
6B
B5
6B
FF
B5
6B
B5
6B
FF
B5
6B
B5
6B
FF
B5
ENDCHAR
STARTCHAR 2593
ENCODING 9619
SWIDTH 576 0
DWIDTH 8 0
BBX 8 18 0 -4
BITMAP
FF
6B
FF
6B
FF
6B
FF
FF
6B
FF
6B
FF
FF
6B
FF
6B
FF
FF
ENDCHAR
STARTCHAR 2594
ENCODING 9620
SWIDTH 576 0
DWIDTH 8 0
BBX 8 2 0 12
BITMAP
FF
FF
ENDCHAR
STARTCHAR 2595
ENCODING 9621
SWIDTH 576 0
DWIDTH 8 0
BBX 1 19 7 -4
BITMAP
80
80
80
80
80
80
80
80
80
80
80
80
80
80
80
80
80
80
80
ENDCHAR
STARTCHAR 2596
ENCODING 9622
SWIDTH 576 0
DWIDTH 8 0
BBX 4 9 0 -4
BITMAP
F0
F0
F0
F0
F0
F0
F0
F0
F0
ENDCHAR
STARTCHAR 2597
ENCODING 9623
SWIDTH 576 0
DWIDTH 8 0
BBX 4 9 4 -4
BITMAP
F0
F0
F0
F0
F0
F0
F0
F0
F0
ENDCHAR
STARTCHAR 2598
ENCODING 9624
SWIDTH 576 0
DWIDTH 8 0
BBX 4 9 0 5
BITMAP
F0
F0
F0
F0
F0
F0
F0
F0
F0
ENDCHAR
STARTCHAR 2599
ENCODING 9625
SWIDTH 576 0
DWIDTH 8 0
BBX 8 19 0 -4
BITMAP
F0
F0
F0
F0
F0
F0
F0
F0
F0
F0
FF
FF
FF
FF
FF
FF
FF
FF
FF
ENDCHAR
STARTCHAR 259A
ENCODING 9626
SWIDTH 576 0
DWIDTH 8 0
BBX 8 19 0 -4
BITMAP
F0
F0
F0
F0
F0
F0
F0
F0
F0
F0
0F
0F
0F
0F
0F
0F
0F
0F
0F
ENDCHAR
STARTCHAR 259B
ENCODING 9627
SWIDTH 576 0
DWIDTH 8 0
BBX 8 19 0 -4
BITMAP
FF
FF
FF
FF
FF
FF
FF
FF
FF
FF
F0
F0
F0
F0
F0
F0
F0
F0
F0
ENDCHAR
STARTCHAR 259C
ENCODING 9628
SWIDTH 576 0
DWIDTH 8 0
BBX 8 19 0 -4
BITMAP
FF
FF
FF
FF
FF
FF
FF
FF
FF
FF
0F
0F
0F
0F
0F
0F
0F
0F
0F
ENDCHAR
STARTCHAR 259D
ENCODING 9629
SWIDTH 576 0
DWIDTH 8 0
BBX 4 9 4 5
BITMAP
F0
F0
F0
F0
F0
F0
F0
F0
F0
ENDCHAR
STARTCHAR 259E
ENCODING 9630
SWIDTH 576 0
DWIDTH 8 0
BBX 8 19 0 -4
BITMAP
0F
0F
0F
0F
0F
0F
0F
0F
0F
0F
F0
F0
F0
F0
F0
F0
F0
F0
F0
ENDCHAR
STARTCHAR 259F
ENCODING 9631
SWIDTH 576 0
DWIDTH 8 0
BBX 8 19 0 -4
BITMAP
0F
0F
0F
0F
0F
0F
0F
0F
0F
0F
FF
FF
FF
FF
FF
FF
FF
FF
FF
ENDCHAR
STARTCHAR 25A0
ENCODING 9632
SWIDTH 576 0
DWIDTH 8 0
BBX 8 9 0 1
BITMAP
FF
FF
FF
FF
FF
FF
FF
FF
FF
ENDCHAR
STARTCHAR 25A1
ENCODING 9633
SWIDTH 576 0
DWIDTH 8 0
BBX 8 9 0 1
BITMAP
FF
81
81
81
81
81
81
81
FF
ENDCHAR
STARTCHAR 25AA
ENCODING 9642
SWIDTH 576 0
DWIDTH 8 0
BBX 4 4 2 3
BITMAP
F0
F0
F0
F0
ENDCHAR
STARTCHAR 25AB
ENCODING 9643
SWIDTH 576 0
DWIDTH 8 0
BBX 4 4 2 3
BITMAP
F0
90
90
F0
ENDCHAR
STARTCHAR 25B2
ENCODING 9650
SWIDTH 576 0
DWIDTH 8 0
BBX 9 9 0 1
BITMAP
0800
0800
1800
1C00
3C00
3E00
7E00
7F00
FF80
ENDCHAR
STARTCHAR 25B3
ENCODING 9651
SWIDTH 576 0
DWIDTH 8 0
BBX 9 9 0 1
BITMAP
0800
0800
1800
2400
2400
4200
4200
8100
FF80
ENDCHAR
STARTCHAR 25B4
ENCODING 9652
SWIDTH 576 0
DWIDTH 8 0
BBX 4 4 2 3
BITMAP
20
60
70
F0
ENDCHAR
STARTCHAR 25B5
ENCODING 9653
SWIDTH 576 0
DWIDTH 8 0
BBX 4 5 2 3
BITMAP
20
20
60
50
F0
ENDCHAR
STARTCHAR 25B6
ENCODING 9654
SWIDTH 576 0
DWIDTH 8 0
BBX 9 8 0 1
BITMAP
C000
F000
FC00
FF80
FE00
FC00
F000
C000
ENDCHAR
STARTCHAR 25B7
ENCODING 9655
SWIDTH 576 0
DWIDTH 8 0
BBX 9 8 0 1
BITMAP
C000
B000
8C00
8380
8200
8C00
B000
C000
ENDCHAR
STARTCHAR 25B8
ENCODING 9656
SWIDTH 576 0
DWIDTH 8 0
BBX 4 4 2 3
BITMAP
80
F0
E0
80
ENDCHAR
STARTCHAR 25B9
ENCODING 9657
SWIDTH 576 0
DWIDTH 8 0
BBX 4 4 2 3
BITMAP
C0
B0
A0
C0
ENDCHAR
STARTCHAR 25BA
ENCODING 9658
SWIDTH 576 0
DWIDTH 8 0
BBX 9 4 0 3
BITMAP
E000
FF80
FC00
C000
ENDCHAR
STARTCHAR 25BB
ENCODING 9659
SWIDTH 576 0
DWIDTH 8 0
BBX 9 4 0 3
BITMAP
E000
9F80
9C00
E000
ENDCHAR
STARTCHAR 25BC
ENCODING 9660
SWIDTH 576 0
DWIDTH 8 0
BBX 9 9 0 0
BITMAP
FF80
7F00
7E00
3E00
3C00
1C00
1800
0800
0800
ENDCHAR
STARTCHAR 25BD
ENCODING 9661
SWIDTH 576 0
DWIDTH 8 0
BBX 9 9 0 0
BITMAP
FF80
8100
4200
4200
2400
2400
1800
0800
0800
ENDCHAR
STARTCHAR 25BE
ENCODING 9662
SWIDTH 576 0
DWIDTH 8 0
BBX 4 4 2 3
BITMAP
F0
70
60
20
ENDCHAR
STARTCHAR 25BF
ENCODING 9663
SWIDTH 576 0
DWIDTH 8 0
BBX 4 4 2 3
BITMAP
F0
50
60
20
ENDCHAR
STARTCHAR 25C0
ENCODING 9664
SWIDTH 576 0
DWIDTH 8 0
BBX 8 8 0 1
BITMAP
01
07
1F
FF
7F
1F
07
01
ENDCHAR
STARTCHAR 25C1
ENCODING 9665
SWIDTH 576 0
DWIDTH 8 0
BBX 8 8 0 1
BITMAP
03
05
19
E1
61
19
07
01
ENDCHAR
STARTCHAR 25C2
ENCODING 9666
SWIDTH 576 0
DWIDTH 8 0
BBX 4 4 2 3
BITMAP
10
F0
70
10
ENDCHAR
STARTCHAR 25C3
ENCODING 9667
SWIDTH 576 0
DWIDTH 8 0
BBX 4 4 2 3
BITMAP
10
F0
70
10
ENDCHAR
STARTCHAR 25C4
ENCODING 9668
SWIDTH 576 0
DWIDTH 8 0
BBX 8 4 0 3
BITMAP
03
FF
3F
03
ENDCHAR
STARTCHAR 25C5
ENCODING 9669
SWIDTH 576 0
DWIDTH 8 0
BBX 8 4 0 3
BITMAP
07
F9
39
07
ENDCHAR
STARTCHAR 25C6
ENCODING 9670
SWIDTH 576 0
DWIDTH 8 0
BBX 9 8 0 1
BITMAP
1800
3C00
7E00
FF80
FF00
7E00
3C00
1800
ENDCHAR
STARTCHAR 25C7
ENCODING 9671
SWIDTH 576 0
DWIDTH 8 0
BBX 9 8 0 1
BITMAP
1800
2400
4200
8180
C100
6200
3400
1800
ENDCHAR
STARTCHAR 25C8
ENCODING 9672
SWIDTH 576 0
DWIDTH 8 0
BBX 9 8 0 1
BITMAP
1800
2400
4A00
BD80
DD00
6A00
3400
1800
ENDCHAR
STARTCHAR 25C9
ENCODING 9673
SWIDTH 576 0
DWIDTH 8 0
BBX 9 9 0 1
BITMAP
3C00
4300
BD00
BE80
FE80
BE80
BD00
4300
3C00
ENDCHAR
STARTCHAR 25CA
ENCODING 9674
SWIDTH 576 0
DWIDTH 8 0
BBX 7 10 1 0
BITMAP
30
28
48
C4
86
86
C4
48
28
30
ENDCHAR
STARTCHAR 25CB
ENCODING 9675
SWIDTH 576 0
DWIDTH 8 0
BBX 9 9 0 1
BITMAP
3C00
6300
8100
8080
8080
8080
8100
4300
3E00
ENDCHAR
STARTCHAR 25CC
ENCODING 9676
SWIDTH 576 0
DWIDTH 8 0
BBX 9 9 0 1
BITMAP
1800
4200
8100
8080
8080
8080
8100
4200
1800
ENDCHAR
STARTCHAR 25CE
ENCODING 9678
SWIDTH 576 0
DWIDTH 8 0
BBX 9 9 0 1
BITMAP
3C00
4300
9D00
A280
C280
C280
A300
5F00
3C00
ENDCHAR
STARTCHAR 25CF
ENCODING 9679
SWIDTH 576 0
DWIDTH 8 0
BBX 9 9 0 1
BITMAP
0800
7E00
FF00
FF00
FF80
FF00
FF00
7F00
3C00
ENDCHAR
STARTCHAR 25D4
ENCODING 9684
SWIDTH 576 0
DWIDTH 8 0
BBX 9 9 0 1
BITMAP
3C00
6F00
8F00
8F00
8F80
8080
8100
4300
3E00
ENDCHAR
STARTCHAR 25D5
ENCODING 9685
SWIDTH 576 0
DWIDTH 8 0
BBX 9 9 0 1
BITMAP
3C00
4E00
8F00
8F00
8F80
FF00
FF00
7E00
3C00
ENDCHAR
STARTCHAR 25E6
ENCODING 9702
SWIDTH 576 0
DWIDTH 8 0
BBX 3 4 3 3
BITMAP
C0
A0
A0
C0
ENDCHAR
STARTCHAR 25E7
ENCODING 9703
SWIDTH 576 0
DWIDTH 8 0
BBX 8 9 0 1
BITMAP
FF
F1
F1
F1
F1
F1
F1
F1
FF
ENDCHAR
STARTCHAR 25E8
ENCODING 9704
SWIDTH 576 0
DWIDTH 8 0
BBX 8 9 0 1
BITMAP
FF
8F
8F
8F
8F
8F
8F
8F
FF
ENDCHAR
STARTCHAR 25E9
ENCODING 9705
SWIDTH 576 0
DWIDTH 8 0
BBX 8 9 0 1
BITMAP
FF
FF
FD
F9
F1
E1
C1
81
FF
ENDCHAR
STARTCHAR 25EA
ENCODING 9706
SWIDTH 576 0
DWIDTH 8 0
BBX 8 8 0 1
BITMAP
FF
81
83
87
8F
9F
BF
FF
ENDCHAR
STARTCHAR 25EB
ENCODING 9707
SWIDTH 576 0
DWIDTH 8 0
BBX 8 9 0 1
BITMAP
FF
89
89
89
89
89
89
89
FF
ENDCHAR
STARTCHAR 25EF
ENCODING 9711
SWIDTH 576 0
DWIDTH 8 0
BBX 9 9 0 1
BITMAP
3C00
6300
8100
8080
8080
8080
8100
4300
3E00
ENDCHAR
STARTCHAR 25F6
ENCODING 9718
SWIDTH 576 0
DWIDTH 8 0
BBX 9 9 0 1
BITMAP
3C00
4200
8100
8080
8F80
8880
8900
4A00
3C00
ENDCHAR
STARTCHAR 266D
ENCODING 9837
SWIDTH 576 0
DWIDTH 8 0
BBX 4 11 2 0
BITMAP
80
80
80
80
F0
90
90
90
90
E0
80
ENDCHAR
STARTCHAR 266F
ENCODING 9839
SWIDTH 576 0
DWIDTH 8 0
BBX 6 10 1 0
BITMAP
08
4C
58
68
CC
4C
78
C8
C8
40
ENDCHAR
STARTCHAR 2687
ENCODING 9863
SWIDTH 576 0
DWIDTH 8 0
BBX 9 9 0 1
BITMAP
3C00
4300
8100
8080
E680
A280
8100
4300
3C00
ENDCHAR
STARTCHAR 26A0
ENCODING 9888
SWIDTH 576 0
DWIDTH 8 0
BBX 9 11 0 0
BITMAP
0800
1800
1C00
3400
3400
3600
7600
7700
FF00
F700
FF80
ENDCHAR
STARTCHAR 26A1
ENCODING 9889
SWIDTH 576 0
DWIDTH 8 0
BBX 8 13 0 -2
BITMAP
06
04
08
18
30
3F
FE
0C
18
10
20
40
80
ENDCHAR
STARTCHAR 2713
ENCODING 10003
SWIDTH 576 0
DWIDTH 8 0
BBX 7 7 1 2
BITMAP
02
06
0C
88
98
70
20
ENDCHAR
STARTCHAR 2715
ENCODING 10005
SWIDTH 576 0
DWIDTH 8 0
BBX 6 7 1 1
BITMAP
84
4C
38
30
68
C4
84
ENDCHAR
STARTCHAR 2717
ENCODING 10007
SWIDTH 576 0
DWIDTH 8 0
BBX 8 8 0 1
BITMAP
41
E2
34
18
1C
26
C3
41
ENDCHAR
STARTCHAR 2736
ENCODING 10038
SWIDTH 576 0
DWIDTH 8 0
BBX 7 8 1 1
BITMAP
10
10
96
78
78
96
10
10
ENDCHAR
STARTCHAR 276E
ENCODING 10094
SWIDTH 576 0
DWIDTH 8 0
BBX 4 10 2 0
BITMAP
30
70
60
60
E0
E0
60
60
70
30
ENDCHAR
STARTCHAR 276F
ENCODING 10095
SWIDTH 576 0
DWIDTH 8 0
BBX 4 10 2 0
BITMAP
E0
60
60
70
30
30
70
60
60
E0
ENDCHAR
STARTCHAR 2770
ENCODING 10096
SWIDTH 576 0
DWIDTH 8 0
BBX 5 10 2 0
BITMAP
78
70
F0
F0
E0
E0
F0
F0
70
78
ENDCHAR
STARTCHAR 2771
ENCODING 10097
SWIDTH 576 0
DWIDTH 8 0
BBX 6 10 1 0
BITMAP
F0
78
78
38
3C
3C
38
78
78
F0
ENDCHAR
STARTCHAR 2794
ENCODING 10132
SWIDTH 576 0
DWIDTH 8 0
BBX 8 6 0 2
BITMAP
0C
06
FF
FF
06
0C
ENDCHAR
STARTCHAR 279C
ENCODING 10140
SWIDTH 576 0
DWIDTH 8 0
BBX 8 7 0 1
BITMAP
04
0E
06
FF
07
0E
04
ENDCHAR
STARTCHAR 279D
ENCODING 10141
SWIDTH 576 0
DWIDTH 8 0
BBX 8 7 0 1
BITMAP
04
02
02
FF
02
02
04
ENDCHAR
STARTCHAR 279E
ENCODING 10142
SWIDTH 576 0
DWIDTH 8 0
BBX 8 6 0 2
BITMAP
04
02
FF
FF
02
04
ENDCHAR
STARTCHAR 27C5
ENCODING 10181
SWIDTH 576 0
DWIDTH 8 0
BBX 5 13 2 -1
BITMAP
70
58
08
10
10
20
60
40
C0
80
80
C0
78
ENDCHAR
STARTCHAR 27C6
ENCODING 10182
SWIDTH 576 0
DWIDTH 8 0
BBX 5 13 2 -1
BITMAP
E0
90
80
80
40
60
20
30
10
18
18
10
F0
ENDCHAR
STARTCHAR 27DC
ENCODING 10204
SWIDTH 576 0
DWIDTH 8 0
BBX 8 3 0 3
BITMAP
E0
BF
E0
ENDCHAR
STARTCHAR 27E6
ENCODING 10214
SWIDTH 576 0
DWIDTH 8 0
BBX 5 13 2 -2
BITMAP
F8
A0
A0
A0
A0
A0
A0
A0
A0
A0
A0
A0
F8
ENDCHAR
STARTCHAR 27E7
ENCODING 10215
SWIDTH 576 0
DWIDTH 8 0
BBX 5 14 1 -2
BITMAP
F8
18
18
18
18
18
18
18
18
18
18
18
18
F8
ENDCHAR
STARTCHAR 27E8
ENCODING 10216
SWIDTH 576 0
DWIDTH 8 0
BBX 5 13 2 -2
BITMAP
18
30
20
60
C0
80
80
80
C0
60
20
30
18
ENDCHAR
STARTCHAR 27E9
ENCODING 10217
SWIDTH 576 0
DWIDTH 8 0
BBX 5 13 2 -2
BITMAP
80
40
60
20
30
18
08
18
30
20
60
40
80
ENDCHAR
STARTCHAR 27EA
ENCODING 10218
SWIDTH 576 0
DWIDTH 8 0
BBX 7 13 1 -2
BITMAP
0A
14
18
28
50
60
A0
60
50
28
18
14
0A
ENDCHAR
STARTCHAR 27EB
ENCODING 10219
SWIDTH 576 0
DWIDTH 8 0
BBX 6 13 1 -2
BITMAP
E0
A0
50
30
28
14
14
14
28
30
50
A0
E0
ENDCHAR
STARTCHAR 27F5
ENCODING 10229
SWIDTH 576 0
DWIDTH 8 0
BBX 10 7 -1 1
BITMAP
1800
3000
6000
FFC0
6000
2000
1800
ENDCHAR
STARTCHAR 27F6
ENCODING 10230
SWIDTH 576 0
DWIDTH 8 0
BBX 10 7 -1 1
BITMAP
0200
0100
0080
FFC0
0080
0100
0300
ENDCHAR
STARTCHAR 27F7
ENCODING 10231
SWIDTH 576 0
DWIDTH 8 0
BBX 11 7 -1 1
BITMAP
3300
2180
40C0
FFE0
40C0
6080
3300
ENDCHAR
STARTCHAR 2916
ENCODING 10518
SWIDTH 576 0
DWIDTH 8 0
BBX 11 5 -1 1
BITMAP
CD80
62C0
3FE0
62C0
CD80
ENDCHAR
STARTCHAR 294A
ENCODING 10570
SWIDTH 576 0
DWIDTH 8 0
BBX 11 6 -1 2
BITMAP
1000
2000
4000
FFE0
0080
0300
ENDCHAR
STARTCHAR 2987
ENCODING 10631
SWIDTH 576 0
DWIDTH 8 0
BBX 5 14 2 -2
BITMAP
08
38
68
48
C8
C8
C8
C8
C8
C8
48
68
38
08
ENDCHAR
STARTCHAR 2988
ENCODING 10632
SWIDTH 576 0
DWIDTH 8 0
BBX 4 14 2 -2
BITMAP
80
C0
A0
B0
90
90
90
90
90
90
B0
A0
C0
80
ENDCHAR
STARTCHAR 2A00
ENCODING 10752
SWIDTH 576 0
DWIDTH 8 0
BBX 9 9 0 1
BITMAP
3C00
4300
8100
8080
9880
8880
8100
4300
3C00
ENDCHAR
STARTCHAR 2A05
ENCODING 10757
SWIDTH 576 0
DWIDTH 8 0
BBX 7 10 1 0
BITMAP
FE
82
82
82
82
82
82
82
82
82
ENDCHAR
STARTCHAR 2A06
ENCODING 10758
SWIDTH 576 0
DWIDTH 8 0
BBX 7 10 1 0
BITMAP
82
82
82
82
82
82
82
82
82
FE
ENDCHAR
STARTCHAR 2B58
ENCODING 11096
SWIDTH 576 0
DWIDTH 8 0
BBX 9 9 0 0
BITMAP
3C00
6700
C100
8180
8180
8180
C100
6300
3E00
ENDCHAR
STARTCHAR E0A0
ENCODING 57504
SWIDTH 576 0
DWIDTH 8 0
BBX 7 18 1 -4
BITMAP
C0
C0
C0
C4
CC
DE
CC
CC
8C
18
70
60
C0
C0
C0
C0
C0
C0
ENDCHAR
STARTCHAR E0A1
ENCODING 57505
SWIDTH 576 0
DWIDTH 8 0
BBX 6 15 1 -3
BITMAP
C0
C0
C0
C0
C0
C0
F8
00
64
64
54
54
4C
4C
4C
ENDCHAR
STARTCHAR E0A2
ENCODING 57506
SWIDTH 576 0
DWIDTH 8 0
BBX 7 13 1 -1
BITMAP
38
4C
44
44
44
FE
CE
C6
CE
EE
EE
FE
FE
ENDCHAR
STARTCHAR E0B0
ENCODING 57520
SWIDTH 576 0
DWIDTH 8 0
BBX 9 19 -1 -4
BITMAP
8000
C000
E000
F000
F800
FC00
FC00
FE00
FF00
FF80
FF80
FF00
FE00
FC00
F800
F000
E000
C000
C000
ENDCHAR
STARTCHAR E0B1
ENCODING 57521
SWIDTH 576 0
DWIDTH 8 0
BBX 8 19 0 -4
BITMAP
C0
40
20
30
18
08
0C
06
02
01
03
02
04
0C
18
10
20
60
C0
ENDCHAR
STARTCHAR E0B2
ENCODING 57522
SWIDTH 576 0
DWIDTH 8 0
BBX 9 19 0 -4
BITMAP
0080
0180
0380
0380
0780
0F80
1F80
3F80
7F80
FF80
7F80
3F80
3F80
1F80
0F80
0780
0380
0180
0080
ENDCHAR
STARTCHAR E0B3
ENCODING 57523
SWIDTH 576 0
DWIDTH 8 0
BBX 8 19 0 -4
BITMAP
01
03
06
04
08
18
30
20
60
C0
40
60
30
10
18
0C
06
02
03
ENDCHAR
STARTCHAR FE62
ENCODING 65122
SWIDTH 576 0
DWIDTH 8 0
BBX 5 5 2 0
BITMAP
20
20
F8
20
20
ENDCHAR
STARTCHAR FEFF
ENCODING 65279
SWIDTH 0 0
DWIDTH 0 0
BBX 0 0 0 0
BITMAP
ENDCHAR
STARTCHAR FF5B
ENCODING 65371
SWIDTH 576 0
DWIDTH 8 0
BBX 6 13 1 -1
BITMAP
0C
10
10
10
10
10
E0
10
10
10
10
10
1C
ENDCHAR
STARTCHAR FF5D
ENCODING 65373
SWIDTH 576 0
DWIDTH 8 0
BBX 6 13 1 -1
BITMAP
E0
30
30
20
20
20
1C
20
20
20
20
30
E0
ENDCHAR
STARTCHAR FFFD
ENCODING 65533
SWIDTH 576 0
DWIDTH 8 0
BBX 9 10 0 0
BITMAP
1800
3C00
6600
7B00
FB80
FF00
7F00
3600
3C00
1800
ENDCHAR
ENDFONT
